{
.appVersion = "3202";
DisplayStrings = (
"Ñ/Ohorn ááââääààååãã/dcroat ééêêëëèèííîîïïììññóóôôööòò/ohorn õõúúûûüüùù/uhorn ýý/ydieresis/ydieresis/Ustraitstroke-cy/Shha-cy/dieresiscomb/gravecomb/acutecomb/circumflexcomb/caroncomb/ringcomb/tildecomb/macroncomb/cedillacomb",
"ß",
"/hungarumlautcomb",
"/Ohungarumlaut/Uhungarumlaut/ohungarumlaut/uhungarumlaut/space/hungarumlaut Ô",
"Á/Abreve ÂÄÇ/Dcroat/acutecomb.case/acutecomb ÉËÍÎÑÓÔÖ/hungarumlautcomb/acutecomb.case/hungarumlautcomb.case O/Ohungarumlaut Ó/acutecomb.case UÚÜ/Uhungarumlaut Ý\012/Uhungarumlaut O/hungarumlautcomb.case/Ohungarumlaut/space"
);
copyright = "Copyright 2011 The Prata Project Authors (contact@cyreal.org)";
customParameters = (
{
name = fsType;
value = (
);
},
{
name = "Use Typo Metrics";
value = 1;
},
{
name = "Disable Last Change";
value = 1;
},
{
name = "Use Line Breaks";
value = 1;
},
{
name = vendorID;
value = CYRE;
},
{
name = license;
value = "This Font Software is licensed under the SIL Open Font License, Version 1.1. This license is available with a FAQ at: http://scripts.sil.org/OFL";
},
{
name = licenseURL;
value = "http://scripts.sil.org/OFL";
}
);
date = "2023-09-12 11:06:19 +0000";
designer = "Ivan Petrov";
designerURL = "http://www.cyreal.org";
disablesNiceNames = 1;
familyName = Prata;
featurePrefixes = (
{
automatic = 1;
code = "languagesystem DFLT dflt;

languagesystem latn dflt;

languagesystem cyrl dflt;
languagesystem cyrl BSH;
languagesystem cyrl CHU;
";
name = Languagesystems;
}
);
features = (
{
automatic = 1;
code = "feature locl;
feature sups;
feature frac;
feature ordn;
feature case;
";
name = aalt;
},
{
automatic = 1;
code = "lookup ccmp_Other_1 {
	@CombiningTopAccents = [acutecomb brevecomb caroncomb circumflexcomb dieresiscomb gravecomb hookabovecomb hungarumlautcomb macroncomb ringcomb tildecomb];
	lookupflag UseMarkFilteringSet @CombiningTopAccents;
	sub i' @CombiningTopAccents by idotless;
} ccmp_Other_1;

lookup ccmp_latn_1 {
	lookupflag 0;

glyphs = (
{
glyphname = A;
layers = (
{
anchors = (
{
name = bottom;
position = "{360, 0}";
},
{
name = ogonek;
position = "{647, 10}";
},
{
name = top;
position = "{367, 800}";
}
);
layerId = UUID0;
paths = (
{
closed = 1;
nodes = (
"186 0 LINE",
"186 21 LINE",
"96 61 LINE",
"177 271 LINE",
"443 271 LINE",
"528 34 LINE",
"446 21 LINE",
"446 0 LINE",
"740 0 LINE",
"740 21 LINE",
"648 36 LINE",
"375 820 LINE",
"359 820 LINE",
"70 61 LINE",
"-28 21 LINE",
"-28 0 LINE"
);
},
{
closed = 1;
nodes = (
"316 644 LINE",
"436 292 LINE",
"185 292 LINE"
);
}
);
width = 719;
}
);
leftKerningGroup = A;
rightKerningGroup = A;
unicode = 0041;
},
{
glyphname = Aring;
layers = (
{
layerId = UUID0;
paths = (
{
closed = 1;
nodes = (
"186 0 LINE",
"186 21 LINE",
"96 61 LINE",
"177 271 LINE",
"443 271 LINE",
"528 34 LINE",
"446 21 LINE",
"446 0 LINE",
"740 0 LINE",
"740 21 LINE",
"648 36 LINE",
"385 789 LINE",
"414 794 LINE",
"435 816 LINE",
"463 844 LINE",
"463 922 LINE",
"408 978 LINE",
"368 978 LINE",
"329 978 LINE",
"274 922 LINE",
"274 844 LINE",
"301 816 LINE",
"321 795 LINE",
"347 790 LINE",
"70 61 LINE",
"-28 21 LINE",
"-28 0 LINE"
);
},
{
closed = 1;
nodes = (
"316 644 LINE",
"436 292 LINE",
"185 292 LINE"
);
},
{
closed = 1;
nodes = (
"306 858 LINE",
"306 908 LINE",
"324 926 LINE",
"343 945 LINE",
"393 945 LINE",
"431 908 LINE",
"431 858 LINE",
"393 821 LINE",
"343 821 LINE"
);
}
);
width = 719;
}
);
leftKerningGroup = A;
rightKerningGroup = A;
unicode = 00C5;
},
{
glyphname = AE;
layers = (
{
layerId = UUID0;
paths = (
{
closed = 1;
nodes = (
"174 0 LINE",
"174 21 LINE",
"85 60 LINE",
"249 309 LINE",
"541 309 LINE",
"541 0 LINE",
"1058 0 LINE",
"1058 244 LINE",
"1031 244 LINE",
"949 24 LINE",
"650 24 LINE",
"650 391 LINE",
"770 391 LINE",
"829 244 LINE",
"856 244 LINE",
"856 560 LINE",
"829 560 LINE",
"770 415 LINE",
"650 415 LINE",
"650 775 LINE",
"931 775 LINE",
"1008 571 LINE",
"1035 571 LINE",
"1035 800 LINE",
"432 800 LINE",
"432 778 LINE",
"517 764 LINE",
"55 60 LINE",
"-40 21 LINE",
"-40 0 LINE"
);
},
{
closed = 1;
nodes = (
"541 751 LINE",
"541 330 LINE",
"263 330 LINE"
);
}
);
width = 1114;
}
);
leftKerningGroup = A;
rightKerningGroup = E;
unicode = 00C6;
},
{
glyphname = B;
layers = (
{
layerId = UUID0;
paths = (
{
closed = 1;
nodes = (
"393 0 LINE SMOOTH",
"565 0 OFFCURVE",
"691 62 OFFCURVE",
"691 216 CURVE SMOOTH",
"691 342 OFFCURVE",
"599 405 OFFCURVE",
"457 424 CURVE",
"457 429 LINE",
"581 456 OFFCURVE",
"639 518 OFFCURVE",
"639 613 CURVE SMOOTH",
"639 742 OFFCURVE",
"561 800 OFFCURVE",
"345 800 CURVE SMOOTH",
"40 800 LINE",
"40 778 LINE",
"132 764 LINE",
"132 36 LINE",
"40 21 LINE",
"40 0 LINE"
);
},
{
closed = 1;
nodes = (
"242 407 LINE",
"393 407 LINE SMOOTH",
"505 407 OFFCURVE",
"572 350 OFFCURVE",
"572 226 CURVE SMOOTH",
"572 215 LINE SMOOTH",
"572 91 OFFCURVE",
"505 24 OFFCURVE",
"393 24 CURVE SMOOTH",
"242 24 LINE"
);
},
{
closed = 1;
nodes = (
"242 775 LINE",
"345 775 LINE SMOOTH",
"456 775 OFFCURVE",
"519 726 OFFCURVE",
"519 611 CURVE SMOOTH",
"519 605 LINE SMOOTH",
"519 494 OFFCURVE",
"459 432 OFFCURVE",
"353 432 CURVE SMOOTH",
"242 432 LINE"
);
}
);
width = 745;
}
);
leftKerningGroup = I;
rightKerningGroup = B;
unicode = 0042;
},
{
glyphname = C;
layers = (
{
layerId = UUID0;
paths = (
{
closed = 1;
nodes = (
"476 -20 OFFCURVE",
"541 3 OFFCURVE",
"589 41 CURVE",
"661 -10 LINE",
"682 -10 LINE",
"682 247 LINE",
"661 247 LINE",
"603 86 LINE",
"558 36 OFFCURVE",
"484 3 OFFCURVE",
"416 3 CURVE SMOOTH",
"277 3 OFFCURVE",
"184 115 OFFCURVE",
"184 309 CURVE SMOOTH",
"184 492 LINE SMOOTH",
"184 686 OFFCURVE",
"282 797 OFFCURVE",
"421 797 CURVE SMOOTH",
"482 797 OFFCURVE",
"548 769 OFFCURVE",
"594 727 CURVE",
"656 572 LINE",
"677 572 LINE",
"677 820 LINE",
"656 820 LINE",
"589 763 LINE",
"541 798 OFFCURVE",
"479 820 OFFCURVE",
"421 820 CURVE SMOOTH",
"200 820 OFFCURVE",
"54 650 OFFCURVE",
"54 400 CURVE SMOOTH",
"54 151 OFFCURVE",
"195 -20 OFFCURVE",
"416 -20 CURVE SMOOTH"
);
}
);
width = 745;
}
);
leftKerningGroup = O;
leftMetricsKey = O;
rightKerningGroup = C;
unicode = 0043;
},
{
glyphname = Ccedilla;
layers = (
{
layerId = UUID0;
paths = (
{
closed = 1;
nodes = (
"461 -242 OFFCURVE",
"524 -215 OFFCURVE",
"524 -146 CURVE SMOOTH",
"524 -83 OFFCURVE",
"473 -57 OFFCURVE",
"402 -54 CURVE",
"410 -20 LINE",
"417 -20 LINE SMOOTH",
"477 -20 OFFCURVE",
"542 3 OFFCURVE",
"590 41 CURVE",
"662 -10 LINE",
"683 -10 LINE",
"683 247 LINE",
"662 247 LINE",
"604 86 LINE",
"559 36 OFFCURVE",
"485 3 OFFCURVE",
"417 3 CURVE SMOOTH",
"278 3 OFFCURVE",
"185 115 OFFCURVE",
"185 309 CURVE SMOOTH",
"185 492 LINE SMOOTH",
"185 686 OFFCURVE",
"283 797 OFFCURVE",
"422 797 CURVE SMOOTH",
"483 797 OFFCURVE",
"549 769 OFFCURVE",
"595 727 CURVE",
"657 572 LINE",
"678 572 LINE",
"678 820 LINE",
"657 820 LINE",
"590 763 LINE",
"542 798 OFFCURVE",
"480 820 OFFCURVE",
"422 820 CURVE SMOOTH",
"201 820 OFFCURVE",
"55 650 OFFCURVE",
"55 400 CURVE SMOOTH",
"55 164 OFFCURVE",
"182 -2 OFFCURVE",
"383 -18 CURVE",
"367 -79 LINE",
"418 -84 OFFCURVE",
"439 -113 OFFCURVE",
"439 -147 CURVE SMOOTH",
"439 -197 OFFCURVE",
"399 -214 OFFCURVE",
"360 -214 CURVE SMOOTH",
"350 -214 OFFCURVE",
"340 -213 OFFCURVE",
"332 -211 CURVE",
"326 -233 LINE",
"347 -239 OFFCURVE",
"371 -242 OFFCURVE",
"398 -242 CURVE SMOOTH"
);
}
);
width = 746;
}
);
leftKerningGroup = O;
rightKerningGroup = C;
unicode = 00C7;
},
{
glyphname = D;
layers = (
{
layerId = UUID0;
paths = (
{
closed = 1;
nodes = (
"423 0 LINE SMOOTH",
"643 0 OFFCURVE",
"800 157 OFFCURVE",
"800 400 CURVE SMOOTH",
"800 644 OFFCURVE",
"643 800 OFFCURVE",
"423 800 CURVE SMOOTH",
"242 800 LINE",
"40 800 LINE",
"40 778 LINE",
"132 764 LINE",
"132 36 LINE",
"40 21 LINE",
"40 0 LINE"
);
},
{
closed = 1;
nodes = (
"242 775 LINE",
"423 775 LINE SMOOTH",
"566 775 OFFCURVE",
"673 675 OFFCURVE",
"673 477 CURVE SMOOTH",
"673 323 LINE SMOOTH",
"673 125 OFFCURVE",
"566 24 OFFCURVE",
"423 24 CURVE SMOOTH",
"242 24 LINE"
);
}
);
width = 854;
}
);
leftKerningGroup = I;
rightKerningGroup = D;
rightMetricsKey = O;
unicode = 0044;
},
{
glyphname = Eth;
layers = (
{
layerId = UUID0;
paths = (
{
closed = 1;
nodes = (
"423 0 LINE SMOOTH",
"643 0 OFFCURVE",
"800 157 OFFCURVE",
"800 400 CURVE SMOOTH",
"800 644 OFFCURVE",
"643 800 OFFCURVE",
"423 800 CURVE SMOOTH",
"40 800 LINE",
"40 778 LINE",
"132 764 LINE",
"132 408 LINE",
"56 408 LINE",
"56 375 LINE",
"132 375 LINE",
"132 36 LINE",
"40 21 LINE",
"40 0 LINE"
);
},
{
closed = 1;
nodes = (
"242 375 LINE",
"426 375 LINE",
"426 408 LINE",
"242 408 LINE",
"242 775 LINE",
"423 775 LINE SMOOTH",
"566 775 OFFCURVE",
"673 675 OFFCURVE",
"673 477 CURVE SMOOTH",
"673 323 LINE SMOOTH",
"673 127 OFFCURVE",
"568 26 OFFCURVE",
"427 24 CURVE",
"242 24 LINE"
);
}
);
width = 859;
}
);
leftKerningGroup = I;
rightKerningGroup = D;
unicode = 00D0;
},
{
glyphname = E;
layers = (
{
anchors = (
{
name = bottom;
position = "{361, 0}";
},
{
name = ogonek;
position = "{649, 10}";
},
{
name = top;
position = "{361, 800}";
},
{
name = topleft;
position = "{20, 800}";
}
);
layerId = UUID0;
paths = (
{
closed = 1;
nodes = (
"664 0 LINE",
"664 244 LINE",
"638 244 LINE",
"556 24 LINE",
"242 24 LINE",
"242 391 LINE",
"371 391 LINE",
"431 244 LINE",
"457 244 LINE",
"457 560 LINE",
"431 560 LINE",
"372 415 LINE",
"242 415 LINE",
"242 775 LINE",
"538 775 LINE",
"615 571 LINE",
"642 571 LINE",
"642 800 LINE",
"40 800 LINE",
"40 778 LINE",
"132 764 LINE",
"132 36 LINE",
"40 21 LINE",
"40 0 LINE"
);
}
);
width = 721;
}
);
leftKerningGroup = I;
rightKerningGroup = E;
unicode = 0045;
},
{
glyphname = F;
layers = (
{
layerId = UUID0;
paths = (
{
closed = 1;
nodes = (
"334 0 LINE",
"334 21 LINE",
"242 36 LINE",
"242 376 LINE",
"411 376 LINE",
"470 229 LINE",
"497 229 LINE",
"497 545 LINE",
"470 545 LINE",
"411 400 LINE",
"242 400 LINE",
"242 775 LINE",
"538 775 LINE",
"615 571 LINE",
"642 571 LINE",
"642 800 LINE",
"40 800 LINE",
"40 778 LINE",
"132 764 LINE",
"132 36 LINE",
"40 21 LINE",
"40 0 LINE"
);
}
);
width = 672;
}
);
leftKerningGroup = I;
rightKerningGroup = F;
unicode = 0046;
},
{
glyphname = G;
layers = (
{
layerId = UUID0;
paths = (
{
closed = 1;
nodes = (
"627 -20 OFFCURVE",
"710 90 OFFCURVE",
"710 198 CURVE SMOOTH",
"710 291 LINE",
"803 305 LINE",
"803 327 LINE",
"504 327 LINE",
"504 305 LINE",
"597 291 LINE",
"597 198 LINE SMOOTH",
"597 81 OFFCURVE",
"533 3 OFFCURVE",
"416 3 CURVE SMOOTH",
"277 3 OFFCURVE",
"182 115 OFFCURVE",
"182 309 CURVE SMOOTH",
"182 492 LINE SMOOTH",
"182 686 OFFCURVE",
"287 797 OFFCURVE",
"426 797 CURVE SMOOTH",
"498 797 OFFCURVE",
"552 773 OFFCURVE",
"595 737 CURVE",
"661 572 LINE",
"682 572 LINE",
"682 820 LINE",
"661 820 LINE",
"600 768 LINE",
"556 800 OFFCURVE",
"500 820 OFFCURVE",
"426 820 CURVE SMOOTH",
"205 820 OFFCURVE",
"54 650 OFFCURVE",
"54 400 CURVE SMOOTH",
"54 151 OFFCURVE",
"195 -20 OFFCURVE",
"416 -20 CURVE SMOOTH"
);
}
);
width = 813;
},
{
associatedMasterId = UUID0;
layerId = "AC960A15-58CD-4134-B02B-56118F232BB4";
name = old;
paths = (
{
closed = 1;
nodes = (
"659 820 LINE",
"598 768 LINE",
"554 800 OFFCURVE",
"498 820 OFFCURVE",
"424 820 CURVE SMOOTH",
"203 820 OFFCURVE",
"52 650 OFFCURVE",
"52 400 CURVE SMOOTH",
"52 151 OFFCURVE",
"193 -20 OFFCURVE",
"414 -20 CURVE SMOOTH",
"625 -20 OFFCURVE",
"708 100 OFFCURVE",
"708 218 CURVE SMOOTH",
"708 331 LINE",
"801 345 LINE",
"801 367 LINE",
"502 367 LINE",
"502 345 LINE",
"595 331 LINE",
"595 218 LINE SMOOTH",
"595 89 OFFCURVE",
"531 3 OFFCURVE",
"414 3 CURVE SMOOTH",
"275 3 OFFCURVE",
"180 115 OFFCURVE",
"180 309 CURVE SMOOTH",
"180 492 LINE SMOOTH",
"180 686 OFFCURVE",
"285 797 OFFCURVE",
"424 797 CURVE SMOOTH",
"496 797 OFFCURVE",
"550 773 OFFCURVE",
"593 737 CURVE",
"659 572 LINE",
"680 572 LINE",
"680 820 LINE"
);
}
);
visible = 1;
width = 812;
}
);
leftKerningGroup = O;
leftMetricsKey = O;
rightKerningGroup = C;
unicode = 0047;
},
{
glyphname = H;
layers = (
{
layerId = UUID0;
paths = (
{
closed = 1;
nodes = (
"334 0 LINE",
"334 21 LINE",
"242 36 LINE",
"242 411 LINE",
"622 411 LINE",
"622 36 LINE",
"529 21 LINE",
"529 0 LINE",
"825 0 LINE",
"825 21 LINE",
"732 36 LINE",
"732 764 LINE",
"825 778 LINE",
"825 800 LINE",
"529 800 LINE",
"529 778 LINE",
"622 764 LINE",
"622 436 LINE",
"242 436 LINE",
"242 764 LINE",
"334 778 LINE",
"334 800 LINE",
"40 800 LINE",
"40 778 LINE",
"132 764 LINE",
"132 36 LINE",
"40 21 LINE",
"40 0 LINE"
);
}
);
width = 865;
}
);
leftKerningGroup = I;
rightKerningGroup = I;
unicode = 0048;
},
{
glyphname = I;
layers = (
{
anchors = (
{
name = bottom;
position = "{187, 0}";
},
{
name = ogonek;
position = "{337, 10}";
},
{
name = top;
position = "{185, 800}";
},
{
name = topleft;
position = "{20, 800}";
}
);
layerId = UUID0;
paths = (
{
closed = 1;
nodes = (
"334 0 LINE",
"334 21 LINE",
"242 36 LINE",
"242 764 LINE",
"334 778 LINE",
"334 800 LINE",
"40 800 LINE",
"40 778 LINE",
"132 764 LINE",
"132 36 LINE",
"40 21 LINE",
"40 0 LINE"
);
}
);
width = 374;
}
);
leftKerningGroup = I;
rightKerningGroup = I;
unicode = 0049;
},
{
glyphname = J;
layers = (
{
background = {
paths = (
{
closed = 1;
nodes = (
"146 -20 LINE",
"86 -20 LINE",
"7 32 LINE",
"7 82 LINE",
"7 115 LINE",
"44 156 LINE",
"74 156 LINE",
"98 156 LINE",
"130 126 LINE",
"134 112 LINE",
"137 97 LINE",
"108 76 LINE",
"108 48 LINE",
"108 29 LINE",
"132 3 LINE",
"153 3 LINE",
"185 3 LINE",
"218 89 LINE",
"222 197 LINE",
"222 764 LINE",
"130 778 LINE",
"130 800 LINE",
"420 800 LINE",
"420 778 LINE",
"328 764 LINE",
"328 197 LINE",
"328 145 LINE",
"315 75 LINE",
"278 11 LINE",
"203 -20 LINE"
);
}
);
};
layerId = UUID0;
paths = (
{
closed = 1;
nodes = (
"304 -20 OFFCURVE",
"328 73 OFFCURVE",
"328 197 CURVE SMOOTH",
"328 764 LINE",
"420 778 LINE",
"420 800 LINE",
"130 800 LINE",
"130 778 LINE",
"222 764 LINE",
"222 197 LINE SMOOTH",
"222 45 OFFCURVE",
"192 3 OFFCURVE",
"153 3 CURVE SMOOTH",
"124 3 OFFCURVE",
"108 24 OFFCURVE",
"108 48 CURVE SMOOTH",
"108 67 OFFCURVE",
"119 84 OFFCURVE",
"137 97 CURVE",
"137 97 OFFCURVE",
"129 156 OFFCURVE",
"74 156 CURVE SMOOTH",
"34 156 OFFCURVE",
"7 126 OFFCURVE",
"7 82 CURVE SMOOTH",
"7 12 OFFCURVE",
"71 -20 OFFCURVE",
"146 -20 CURVE SMOOTH"
);
}
);
width = 448;
}
);
leftKerningGroup = J;
rightKerningGroup = U;
unicode = 004A;
},
{
glyphname = K;
layers = (
{
layerId = UUID0;
paths = (
{
closed = 1;
nodes = (
"334 0 LINE",
"334 21 LINE",
"242 36 LINE",
"242 369 LINE",
"302 430 LINE",
"564 35 LINE",
"473 21 LINE",
"473 0 LINE",
"768 0 LINE",
"768 21 LINE",
"700 36 LINE",
"380 508 LINE",
"607 736 LINE",
"689 778 LINE",
"689 800 LINE",
"458 800 LINE",
"458 778 LINE",
"567 736 LINE",
"242 404 LINE",
"242 764 LINE",
"334 778 LINE",
"334 800 LINE",
"40 800 LINE",
"40 778 LINE",
"132 764 LINE",
"132 36 LINE",
"40 21 LINE",
"40 0 LINE"
);
}
);
width = 738;
}
);
leftKerningGroup = I;
rightKerningGroup = K;
unicode = 004B;
},
{
glyphname = L;
layers = (
{
layerId = UUID0;
paths = (
{
closed = 1;
nodes = (
"650 0 LINE",
"650 244 LINE",
"623 244 LINE",
"541 24 LINE",
"242 24 LINE",
"242 764 LINE",
"334 778 LINE",
"334 800 LINE",
"40 800 LINE",
"40 778 LINE",
"132 764 LINE",
"132 36 LINE",
"40 21 LINE",
"40 0 LINE"
);
}
);
width = 675;
}
);
leftKerningGroup = I;
rightKerningGroup = L;
unicode = 004C;
},
{
glyphname = M;
layers = (
{
layerId = UUID0;
paths = (
{
closed = 1;
nodes = (
"474 -10 LINE",
"770 734 LINE",
"770 36 LINE",
"678 21 LINE",
"678 0 LINE",
"972 0 LINE",
"972 21 LINE",
"880 36 LINE",
"880 764 LINE",
"972 778 LINE",
"972 800 LINE",
"770 800 LINE",
"514 158 LINE",
"263 800 LINE",
"42 800 LINE",
"42 778 LINE",
"134 764 LINE",
"134 61 LINE",
"40 21 LINE",
"40 0 LINE",
"254 0 LINE",
"254 21 LINE",
"158 61 LINE",
"158 764 LINE",
"456 -10 LINE"
);
}
);
width = 1012;
}
);
leftKerningGroup = I;
rightKerningGroup = I;
unicode = 004D;
},
{
glyphname = N;
layers = (
{
background = {
paths = (
{
closed = 1;
nodes = (
"136 61 LINE",
"136 739 LINE",
"43 778 LINE",
"43 800 LINE",
"229 800 LINE",
"660 196 LINE",
"660 739 LINE",
"567 778 LINE",
"567 800 LINE",
"780 800 LINE",
"780 778 LINE",
"685 739 LINE",
"685 0 LINE",
"660 0 LINE",
"161 701 LINE",
"161 61 LINE",
"257 21 LINE",
"257 0 LINE",
"43 0 LINE",
"43 21 LINE"
);
}
);
};
layerId = UUID0;
paths = (
{
closed = 1;
nodes = (
"257 0 LINE",
"257 21 LINE",
"161 61 LINE",
"161 701 LINE",
"660 0 LINE",
"685 0 LINE",
"685 739 LINE",
"780 778 LINE",
"780 800 LINE",
"567 800 LINE",
"567 778 LINE",
"660 739 LINE",
"660 196 LINE",
"229 800 LINE",
"43 800 LINE",
"43 778 LINE",
"136 739 LINE",
"136 61 LINE",
"43 21 LINE",
"43 0 LINE"
);
}
);
width = 814;
}
);
leftKerningGroup = N;
rightKerningGroup = N;
unicode = 004E;
},
{
glyphname = O;
layers = (
{
anchors = (
{
name = bottom;
position = "{431, 0}";
},
{
name = center;
position = "{431, 400}";
},
{
name = ogonek;
position = "{776, 10}";
},
{
name = top;
position = "{431, 800}";
},
{
name = topleft;
position = "{20, 800}";
},
{
name = topright;
position = "{684, 783}";
}
);
layerId = UUID0;
paths = (
{
closed = 1;
nodes = (
"651 -20 OFFCURVE",
"808 151 OFFCURVE",
"808 400 CURVE SMOOTH",
"808 650 OFFCURVE",
"651 820 OFFCURVE",
"431 820 CURVE SMOOTH",
"210 820 OFFCURVE",
"54 650 OFFCURVE",
"54 400 CURVE SMOOTH",
"54 151 OFFCURVE",
"210 -20 OFFCURVE",
"431 -20 CURVE SMOOTH"
);
},
{
closed = 1;
nodes = (
"287 3 OFFCURVE",
"178 119 OFFCURVE",
"178 323 CURVE SMOOTH",
"178 477 LINE SMOOTH",
"178 681 OFFCURVE",
"287 797 OFFCURVE",
"431 797 CURVE SMOOTH",
"574 797 OFFCURVE",
"684 681 OFFCURVE",
"684 477 CURVE SMOOTH",
"684 323 LINE SMOOTH",
"684 119 OFFCURVE",
"574 3 OFFCURVE",
"431 3 CURVE SMOOTH"
);
}
);
width = 862;
}
);
leftKerningGroup = O;
rightKerningGroup = O;
unicode = 004F;
},
{
glyphname = Oslash;
layers = (
{
layerId = UUID0;
paths = (
{
closed = 1;
nodes = (
"263 -22 LINE",
"277 11 LINE",
"323 -9 OFFCURVE",
"375 -20 OFFCURVE",
"431 -20 CURVE SMOOTH",
"651 -20 OFFCURVE",
"808 151 OFFCURVE",
"808 400 CURVE SMOOTH",
"808 569 OFFCURVE",
"736 701 OFFCURVE",
"621 769 CURVE",
"645 822 LINE",
"604 822 LINE",
"588 787 LINE",
"541 808 OFFCURVE",
"488 820 OFFCURVE",
"431 820 CURVE SMOOTH",
"210 820 OFFCURVE",
"54 650 OFFCURVE",
"54 400 CURVE SMOOTH",
"54 230 OFFCURVE",
"126 96 OFFCURVE",
"243 28 CURVE",
"221 -22 LINE"
);
},
{
closed = 1;
nodes = (
"211 123 OFFCURVE",
"178 210 OFFCURVE",
"178 323 CURVE",
"178 477 LINE SMOOTH",
"178 681 OFFCURVE",
"287 797 OFFCURVE",
"431 797 CURVE SMOOTH",
"482 797 OFFCURVE",
"529 782 OFFCURVE",
"569 753 CURVE",
"266 69 LINE"
);
},
{
closed = 1;
nodes = (
"380 3 OFFCURVE",
"334 17 OFFCURVE",
"295 44 CURVE",
"598 727 LINE",
"651 673 OFFCURVE",
"684 588 OFFCURVE",
"684 477 CURVE SMOOTH",
"684 323 LINE SMOOTH",
"684 119 OFFCURVE",
"574 3 OFFCURVE",
"431 3 CURVE SMOOTH"
);
}
);
width = 862;
}
);
leftKerningGroup = O;
rightKerningGroup = O;
unicode = 00D8;
},
{
glyphname = OE;
layers = (
{
layerId = UUID0;
paths = (
{
closed = 1;
nodes = (
"538 -20 OFFCURVE",
"623 20 OFFCURVE",
"681 91 CURVE",
"681 0 LINE",
"1182 0 LINE",
"1182 244 LINE",
"1156 244 LINE",
"1074 24 LINE",
"780 24 LINE",
"780 391 LINE",
"897 391 LINE",
"957 244 LINE",
"983 244 LINE",
"983 560 LINE",
"957 560 LINE",
"897 415 LINE",
"780 415 LINE",
"780 775 LINE",
"1056 775 LINE",
"1133 571 LINE",
"1160 571 LINE",
"1160 800 LINE",
"681 800 LINE",
"681 709 LINE",
"623 779 OFFCURVE",
"539 820 OFFCURVE",
"431 820 CURVE SMOOTH",
"210 820 OFFCURVE",
"54 650 OFFCURVE",
"54 400 CURVE SMOOTH",
"54 151 OFFCURVE",
"210 -20 OFFCURVE",
"431 -20 CURVE SMOOTH"
);
},
{
closed = 1;
nodes = (
"287 3 OFFCURVE",
"182 119 OFFCURVE",
"182 323 CURVE SMOOTH",
"182 477 LINE SMOOTH",
"182 681 OFFCURVE",
"287 797 OFFCURVE",
"431 797 CURVE SMOOTH",
"575 797 OFFCURVE",
"670 681 OFFCURVE",
"670 477 CURVE SMOOTH",
"670 323 LINE SMOOTH",
"670 119 OFFCURVE",
"575 3 OFFCURVE",
"431 3 CURVE SMOOTH"
);
}
);
width = 1239;
}
);
leftKerningGroup = O;
rightKerningGroup = E;
unicode = 0152;
},
{
glyphname = P;
layers = (
{
layerId = UUID0;
paths = (
{
closed = 1;
nodes = (
"334 0 LINE",
"334 21 LINE",
"242 36 LINE",
"242 310 LINE",
"354 310 LINE SMOOTH",
"555 310 OFFCURVE",
"646 399 OFFCURVE",
"646 555 CURVE SMOOTH",
"646 710 OFFCURVE",
"555 800 OFFCURVE",
"354 800 CURVE SMOOTH",
"242 800 LINE",
"40 800 LINE",
"40 778 LINE",
"132 764 LINE",
"132 36 LINE",
"40 21 LINE",
"40 0 LINE"
);
},
{
closed = 1;
nodes = (
"242 775 LINE",
"340 775 LINE SMOOTH",
"468 775 OFFCURVE",
"525 704 OFFCURVE",
"525 575 CURVE SMOOTH",
"525 535 LINE SMOOTH",
"525 406 OFFCURVE",
"468 334 OFFCURVE",
"340 334 CURVE SMOOTH",
"242 334 LINE"
);
}
);
width = 684;
}
);
leftKerningGroup = I;
rightKerningGroup = P;
unicode = 0050;
},
{
glyphname = Thorn;
layers = (
{
layerId = UUID0;
paths = (
{
closed = 1;
nodes = (
"338 0 LINE",
"338 21 LINE",
"246 36 LINE",
"246 183 LINE",
"358 183 LINE SMOOTH",
"576 183 OFFCURVE",
"678 248 OFFCURVE",
"678 403 CURVE SMOOTH",
"678 559 OFFCURVE",
"576 624 OFFCURVE",
"358 624 CURVE SMOOTH",
"246 624 LINE",
"246 764 LINE",
"338 778 LINE",
"338 800 LINE",
"40 800 LINE",
"40 778 LINE",
"132 764 LINE",
"132 36 LINE",
"40 21 LINE",
"40 0 LINE"
);
},
{
closed = 1;
nodes = (
"246 600 LINE",
"344 600 LINE SMOOTH",
"489 600 OFFCURVE",
"550 533 OFFCURVE",
"550 418 CURVE SMOOTH",
"550 388 LINE SMOOTH",
"550 274 OFFCURVE",
"489 207 OFFCURVE",
"344 207 CURVE SMOOTH",
"246 207 LINE"
);
}
);
width = 707;
}
);
leftKerningGroup = I;
rightKerningGroup = P;
unicode = 00DE;
},
{
glyphname = Q;
layers = (
{
layerId = UUID0;
paths = (
{
closed = 1;
nodes = (
"616 -231 LINE",
"616 -208 LINE",
"536 -208 OFFCURVE",
"494 -167 OFFCURVE",
"494 -82 CURVE SMOOTH",
"494 -15 LINE",
"680 14 OFFCURVE",
"808 175 OFFCURVE",
"808 400 CURVE SMOOTH",
"808 650 OFFCURVE",
"651 820 OFFCURVE",
"431 820 CURVE SMOOTH",
"210 820 OFFCURVE",
"54 650 OFFCURVE",
"54 400 CURVE SMOOTH",
"54 174 OFFCURVE",
"182 12 OFFCURVE",
"371 -15 CURVE",
"371 -58 LINE SMOOTH",
"371 -174 OFFCURVE",
"443 -231 OFFCURVE",
"583 -231 CURVE SMOOTH"
);
},
{
closed = 1;
nodes = (
"287 3 OFFCURVE",
"180 119 OFFCURVE",
"180 323 CURVE SMOOTH",
"180 477 LINE SMOOTH",
"180 681 OFFCURVE",
"287 797 OFFCURVE",
"431 797 CURVE SMOOTH",
"574 797 OFFCURVE",
"682 681 OFFCURVE",
"682 477 CURVE SMOOTH",
"682 323 LINE SMOOTH",
"682 119 OFFCURVE",
"574 3 OFFCURVE",
"431 3 CURVE SMOOTH"
);
}
);
width = 862;
}
);
leftKerningGroup = O;
rightKerningGroup = O;
unicode = 0051;
},
{
glyphname = R;
layers = (
{
layerId = UUID0;
paths = (
{
closed = 1;
nodes = (
"667 -10 OFFCURVE",
"708 6 OFFCURVE",
"748 51 CURVE",
"731 69 LINE",
"709 46 OFFCURVE",
"681 32 OFFCURVE",
"659 36 CURVE SMOOTH",
"635 41 OFFCURVE",
"626 66 OFFCURVE",
"616 131 CURVE SMOOTH",
"603 217 LINE SMOOTH",
"587 315 OFFCURVE",
"523 375 OFFCURVE",
"421 389 CURVE",
"421 395 LINE",
"565 414 OFFCURVE",
"629 484 OFFCURVE",
"629 594 CURVE SMOOTH",
"629 730 OFFCURVE",
"542 800 OFFCURVE",
"320 800 CURVE SMOOTH",
"242 800 LINE",
"40 800 LINE",
"40 778 LINE",
"132 764 LINE",
"132 36 LINE",
"40 21 LINE",
"40 0 LINE",
"334 0 LINE",
"334 21 LINE",
"242 36 LINE",
"242 388 LINE",
"320 388 LINE SMOOTH",
"430 388 OFFCURVE",
"468 324 OFFCURVE",
"480 243 CURVE SMOOTH",
"499 109 LINE SMOOTH",
"512 21 OFFCURVE",
"547 -10 OFFCURVE",
"621 -10 CURVE SMOOTH"
);
},
{
closed = 1;
nodes = (
"242 775 LINE",
"320 775 LINE SMOOTH",
"435 775 OFFCURVE",
"508 728 OFFCURVE",
"508 609 CURVE SMOOTH",
"508 588 LINE SMOOTH",
"508 469 OFFCURVE",
"449 412 OFFCURVE",
"354 412 CURVE SMOOTH",
"242 412 LINE"
);
}
);
width = 727;
}
);
leftKerningGroup = I;
rightKerningGroup = R;
unicode = 0052;
},
{
glyphname = S;
layers = (
{
layerId = UUID0;
paths = (
{
closed = 1;
nodes = (
"508 -20 OFFCURVE",
"609 67 OFFCURVE",
"609 217 CURVE SMOOTH",
"609 370 OFFCURVE",
"546 427 OFFCURVE",
"437 455 CURVE SMOOTH",
"258 502 LINE SMOOTH",
"172 524 OFFCURVE",
"118 561 OFFCURVE",
"118 636 CURVE SMOOTH",
"118 731 OFFCURVE",
"187 798 OFFCURVE",
"305 798 CURVE SMOOTH",
"365 798 OFFCURVE",
"422 784 OFFCURVE",
"468 762 CURVE",
"540 616 LINE",
"562 616 LINE",
"562 820 LINE",
"540 820 LINE",
"467 789 LINE",
"416 811 OFFCURVE",
"361 820 OFFCURVE",
"304 820 CURVE SMOOTH",
"155 820 OFFCURVE",
"70 723 OFFCURVE",
"70 585 CURVE SMOOTH",
"70 487 OFFCURVE",
"126 407 OFFCURVE",
"245 375 CURVE",
"411 332 LINE SMOOTH",
"520 304 OFFCURVE",
"568 262 OFFCURVE",
"568 179 CURVE SMOOTH",
"568 63 OFFCURVE",
"478 2 OFFCURVE",
"365 2 CURVE SMOOTH",
"294 2 OFFCURVE",
"231 21 OFFCURVE",
"175 61 CURVE",
"89 247 LINE",
"67 247 LINE",
"67 -10 LINE",
"89 -10 LINE",
"174 33 LINE",
"230 0 OFFCURVE",
"294 -20 OFFCURVE",
"357 -20 CURVE SMOOTH"
);
}
);
width = 666;
}
);
leftKerningGroup = S;
rightKerningGroup = S;
unicode = 0053;
},
{
glyphname = T;
layers = (
{
layerId = UUID0;
paths = (
{
closed = 1;
nodes = (
"497 0 LINE",
"497 21 LINE",
"405 36 LINE",
"405 775 LINE",
"571 775 LINE",
"646 577 LINE",
"676 577 LINE",
"676 800 LINE",
"25 800 LINE",
"25 577 LINE",
"54 577 LINE",
"130 775 LINE",
"295 775 LINE",
"295 36 LINE",
"203 21 LINE",
"203 0 LINE"
);
}
);
width = 700;
}
);
leftKerningGroup = T;
rightKerningGroup = T;
unicode = 0054;
},
{
glyphname = U;
layers = (
{
anchors = (
{
name = bottom;
position = "{405, 0}";
},
{
name = ogonek;
position = "{728, 10}";
},
{
name = top;
position = "{425, 800}";
},
{
name = topright;
position = "{789, 800}";
}
);
annotations = (
{
position = "{444.671, 893.531}";
type = Text;
}
);
layerId = UUID0;
paths = (
{
closed = 1;
nodes = (
"609 -20 OFFCURVE",
"687 63 OFFCURVE",
"687 219 CURVE",
"687 739 LINE",
"783 778 LINE",
"783 800 LINE",
"570 800 LINE",
"570 778 LINE",
"663 739 LINE",
"663 219 LINE SMOOTH",
"663 73 OFFCURVE",
"580 16 OFFCURVE",
"451 16 CURVE SMOOTH",
"298 16 OFFCURVE",
"229 91 OFFCURVE",
"229 219 CURVE SMOOTH",
"229 764 LINE",
"321 778 LINE",
"321 800 LINE",
"27 800 LINE",
"27 778 LINE",
"119 764 LINE",
"119 219 LINE SMOOTH",
"119 87 OFFCURVE",
"194 -20 OFFCURVE",
"402 -20 CURVE SMOOTH"
);
}
);
width = 809;
}
);
leftKerningGroup = U;
rightKerningGroup = U;
unicode = 0055;
},
{
glyphname = Uhorn;
layers = (
{
anchors = (
{
name = bottom;
position = "{405, 0}";
},
{
name = ogonek;
position = "{728, 10}";
},
{
name = top;
position = "{405, 800}";
},
{
name = topright;
position = "{789, 800}";
}
);
components = (
{
alignment = -1;
name = horncomb;
transform = "{1, 0, 0, 1, 530, 266}";
}
);
layerId = UUID0;
paths = (
{
closed = 1;
nodes = (
"609 -20 OFFCURVE",
"687 63 OFFCURVE",
"687 219 CURVE",
"687 800 LINE",
"570 800 LINE",
"570 778 LINE",
"663 739 LINE",
"663 219 LINE SMOOTH",
"663 73 OFFCURVE",
"580 16 OFFCURVE",
"451 16 CURVE SMOOTH",
"298 16 OFFCURVE",
"229 91 OFFCURVE",
"229 219 CURVE SMOOTH",
"229 764 LINE",
"321 778 LINE",
"321 800 LINE",
"27 800 LINE",
"27 778 LINE",
"119 764 LINE",
"119 219 LINE SMOOTH",
"119 87 OFFCURVE",
"194 -20 OFFCURVE",
"402 -20 CURVE SMOOTH"
);
}
);
width = 809;
}
);
leftKerningGroup = U;
rightKerningGroup = U;
unicode = 01AF;
},
{
glyphname = V;
layers = (
{
layerId = UUID0;
paths = (
{
closed = 1;
nodes = (
"347 -20 LINE",
"633 734 LINE",
"706 778 LINE",
"706 800 LINE",
"491 800 LINE",
"491 778 LINE",
"606 733 LINE",
"390 167 LINE",
"170 766 LINE",
"264 778 LINE",
"264 800 LINE",
"-29 800 LINE",
"-29 778 LINE",
"51 764 LINE",
"339 -20 LINE"
);
}
);
width = 681;
}
);
leftKerningGroup = V;
rightKerningGroup = V;
unicode = 0056;
},
{
glyphname = W;
layers = (
{
layerId = UUID0;
paths = (
{
closed = 1;
nodes = (
"336 -20 LINE",
"540 519 LINE",
"735 -20 LINE",
"743 -20 LINE",
"1029 734 LINE",
"1105 778 LINE",
"1105 800 LINE",
"890 800 LINE",
"890 778 LINE",
"1003 733 LINE",
"788 173 LINE",
"571 766 LINE",
"657 778 LINE",
"657 800 LINE",
"360 800 LINE",
"360 778 LINE",
"452 764 LINE",
"527 554 LINE",
"381 172 LINE",
"166 764 LINE",
"257 778 LINE",
"257 800 LINE",
"-21 800 LINE",
"-21 778 LINE",
"46 764 LINE",
"328 -20 LINE"
);
}
);
width = 1081;
}
);
leftKerningGroup = V;
rightKerningGroup = V;
unicode = 0057;
},
{
glyphname = X;
layers = (
{
layerId = UUID0;
paths = (
{
closed = 1;
nodes = (
"241 0 LINE",
"241 21 LINE",
"123 68 LINE",
"344 362 LINE",
"562 34 LINE",
"483 21 LINE",
"483 0 LINE",
"787 0 LINE",
"787 21 LINE",
"701 35 LINE",
"424 452 LINE",
"628 725 LINE",
"723 778 LINE",
"723 800 LINE",
"484 800 LINE",
"484 778 LINE",
"603 730 LINE",
"410 472 LINE",
"216 766 LINE",
"295 778 LINE",
"295 800 LINE",
"-8 800 LINE",
"-8 778 LINE",
"77 764 LINE",
"330 383 LINE",
"101 77 LINE",
"2 21 LINE",
"2 0 LINE"
);
}
);
width = 760;
}
);
leftKerningGroup = X;
rightKerningGroup = X;
unicode = 0058;
},
{
glyphname = Y;
layers = (
{
anchors = (
{
name = bottom;
position = "{329, 0}";
},
{
name = top;
position = "{329, 800}";
},
{
name = topleft;
position = "{20, 800}";
}
);
layerId = UUID0;
paths = (
{
closed = 1;
nodes = (
"490 0 LINE",
"490 21 LINE",
"397 36 LINE",
"397 373 LINE",
"605 729 LINE",
"682 778 LINE",
"682 800 LINE",
"458 800 LINE",
"458 778 LINE",
"578 730 LINE",
"385 401 LINE",
"175 764 LINE",
"268 778 LINE",
"268 800 LINE",
"-33 800 LINE",
"-33 778 LINE",
"46 764 LINE",
"289 340 LINE",
"289 36 LINE",
"196 21 LINE",
"196 0 LINE"
);
}
);
width = 657;
}
);
leftKerningGroup = Y;
rightKerningGroup = Y;
unicode = 0059;
},
{
glyphname = Z;
layers = (
{
guideLines = (
{
angle = 180;
position = "{629, 571}";
},
{
position = "{637, 244}";
}
);
layerId = UUID0;
paths = (
{
closed = 1;
nodes = (
"622 0 LINE",
"646 239 LINE",
"620 239 LINE",
"517 24 LINE",
"167 24 LINE",
"636 775 LINE",
"636 800 LINE",
"86 800 LINE",
"62 575 LINE",
"88 575 LINE",
"191 775 LINE",
"501 775 LINE",
"33 24 LINE",
"33 0 LINE"
);
}
);
width = 685;
}
);
leftKerningGroup = Z;
rightKerningGroup = Z;
unicode = 005A;
},
{
glyphname = a;
layers = (
{
anchors = (
{
name = bottom;
position = "{284, 0}";
},
{
name = ogonek;
position = "{510, 10}";
},
{
name = top;
position = "{273, 518}";
}
);
layerId = UUID0;
paths = (
{
closed = 1;
nodes = (
"271 -10 OFFCURVE",
"342 30 OFFCURVE",
"375 99 CURVE",
"377 20 OFFCURVE",
"429 -10 OFFCURVE",
"485 -10 CURVE SMOOTH",
"538 -10 OFFCURVE",
"570 18 OFFCURVE",
"570 65 CURVE",
"549 65 LINE",
"549 38 OFFCURVE",
"535 22 OFFCURVE",
"512 22 CURVE SMOOTH",
"488 22 OFFCURVE",
"475 38 OFFCURVE",
"475 67 CURVE SMOOTH",
"475 353 LINE SMOOTH",
"475 489 OFFCURVE",
"384 527 OFFCURVE",
"275 527 CURVE SMOOTH",
"162 527 OFFCURVE",
"72 478 OFFCURVE",
"72 399 CURVE SMOOTH",
"72 355 OFFCURVE",
"99 336 OFFCURVE",
"134 336 CURVE SMOOTH",
"168 336 OFFCURVE",
"198 365 OFFCURVE",
"198 399 CURVE",
"180 405 OFFCURVE",
"170 417 OFFCURVE",
"170 437 CURVE SMOOTH",
"170 476 OFFCURVE",
"198 505 OFFCURVE",
"263 505 CURVE SMOOTH",
"342 505 OFFCURVE",
"375 477 OFFCURVE",
"375 373 CURVE SMOOTH",
"375 296 LINE",
"308 296 LINE SMOOTH",
"197 296 OFFCURVE",
"46 262 OFFCURVE",
"46 123 CURVE SMOOTH",
"46 31 OFFCURVE",
"112 -10 OFFCURVE",
"192 -10 CURVE SMOOTH"
);
},
{
closed = 1;
nodes = (
"184 34 OFFCURVE",
"145 59 OFFCURVE",
"145 135 CURVE SMOOTH",
"145 220 OFFCURVE",
"196 274 OFFCURVE",
"308 274 CURVE SMOOTH",
"375 274 LINE",
"375 170 LINE",
"367 80 OFFCURVE",
"299 34 OFFCURVE",
"247 34 CURVE SMOOTH"
);
}
);
width = 567;
},
{
anchors = (
{
name = top;
position = "{264, 518}";
}
);
associatedMasterId = UUID0;
layerId = "A3AC9A56-3604-495F-A160-C8D19E1940A7";
name = old;
paths = (
{
closed = 1;
nodes = (
"368 20 OFFCURVE",
"420 -10 OFFCURVE",
"472 -10 CURVE SMOOTH",
"529 -10 OFFCURVE",
"561 18 OFFCURVE",
"561 65 CURVE",
"540 65 LINE",
"540 38 OFFCURVE",
"526 22 OFFCURVE",
"503 22 CURVE SMOOTH",
"479 22 OFFCURVE",
"466 38 OFFCURVE",
"466 67 CURVE SMOOTH",
"466 373 LINE SMOOTH",
"466 489 OFFCURVE",
"380 527 OFFCURVE",
"264 527 CURVE SMOOTH",
"158 527 OFFCURVE",
"63 478 OFFCURVE",
"63 399 CURVE SMOOTH",
"63 365 OFFCURVE",
"90 336 OFFCURVE",
"125 336 CURVE SMOOTH",
"159 336 OFFCURVE",
"189 365 OFFCURVE",
"189 399 CURVE",
"171 405 OFFCURVE",
"161 417 OFFCURVE",
"161 437 CURVE SMOOTH",
"161 469 OFFCURVE",
"200 505 OFFCURVE",
"264 505 CURVE SMOOTH",
"328 505 OFFCURVE",
"366 470 OFFCURVE",
"366 393 CURVE SMOOTH",
"366 298 LINE",
"329 298 LINE SMOOTH",
"188 298 OFFCURVE",
"37 262 OFFCURVE",
"37 123 CURVE SMOOTH",
"37 31 OFFCURVE",
"103 -10 OFFCURVE",
"178 -10 CURVE SMOOTH",
"262 -10 OFFCURVE",
"333 30 OFFCURVE",
"366 99 CURVE"
);
},
{
closed = 1;
nodes = (
"366 170 LINE",
"357 84 OFFCURVE",
"289 37 OFFCURVE",
"228 37 CURVE SMOOTH",
"177 37 OFFCURVE",
"146 69 OFFCURVE",
"146 123 CURVE SMOOTH",
"146 231 OFFCURVE",
"234 273 OFFCURVE",
"329 273 CURVE SMOOTH",
"366 273 LINE"
);
}
);
visible = 1;
width = 558;
},
{
anchors = (
{
name = top;
position = "{266, 518}";
}
);
associatedMasterId = UUID0;
layerId = "5D6F5E5E-9CF3-48E5-8DBD-5DAD3CAEF765";
name = "Sep 9 16, 12:19";
paths = (
{
closed = 1;
nodes = (
"370 20 OFFCURVE",
"422 -10 OFFCURVE",
"474 -10 CURVE SMOOTH",
"531 -10 OFFCURVE",
"563 18 OFFCURVE",
"563 65 CURVE",
"542 65 LINE",
"542 38 OFFCURVE",
"528 22 OFFCURVE",
"505 22 CURVE SMOOTH",
"481 22 OFFCURVE",
"468 38 OFFCURVE",
"468 67 CURVE SMOOTH",
"468 373 LINE SMOOTH",
"468 489 OFFCURVE",
"382 527 OFFCURVE",
"266 527 CURVE SMOOTH",
"160 527 OFFCURVE",
"65 478 OFFCURVE",
"65 399 CURVE SMOOTH",
"65 365 OFFCURVE",
"92 336 OFFCURVE",
"127 336 CURVE SMOOTH",
"161 336 OFFCURVE",
"191 365 OFFCURVE",
"191 399 CURVE",
"173 405 OFFCURVE",
"163 417 OFFCURVE",
"163 437 CURVE SMOOTH",
"163 476 OFFCURVE",
"194 505 OFFCURVE",
"266 505 CURVE SMOOTH",
"338 505 OFFCURVE",
"368 477 OFFCURVE",
"368 393 CURVE SMOOTH",
"368 296 LINE",
"331 296 LINE SMOOTH",
"190 296 OFFCURVE",
"39 262 OFFCURVE",
"39 123 CURVE SMOOTH",
"39 31 OFFCURVE",
"105 -10 OFFCURVE",
"180 -10 CURVE SMOOTH",
"264 -10 OFFCURVE",
"335 30 OFFCURVE",
"368 99 CURVE"
);
},
{
closed = 1;
nodes = (
"368 170 LINE",
"359 84 OFFCURVE",
"291 37 OFFCURVE",
"230 37 CURVE SMOOTH",
"179 37 OFFCURVE",
"148 69 OFFCURVE",
"148 133 CURVE SMOOTH",
"148 233 OFFCURVE",
"226 274 OFFCURVE",
"331 274 CURVE SMOOTH",
"368 274 LINE"
);
}
);
width = 560;
}
);
leftKerningGroup = a;
rightKerningGroup = a;
unicode = 0061;
},
{
glyphname = ae;
layers = (
{
layerId = UUID0;
paths = (
{
closed = 1;
nodes = (
"273 -10 OFFCURVE",
"343 30 OFFCURVE",
"383 138 CURVE",
"421 46 OFFCURVE",
"515 -10 OFFCURVE",
"624 -10 CURVE SMOOTH",
"734 -10 OFFCURVE",
"815 53 OFFCURVE",
"834 152 CURVE",
"811 152 LINE",
"795 68 OFFCURVE",
"714 12 OFFCURVE",
"624 12 CURVE SMOOTH",
"521 12 OFFCURVE",
"470 96 OFFCURVE",
"470 209 CURVE SMOOTH",
"470 308 LINE",
"838 308 LINE",
"836 437 OFFCURVE",
"746 527 OFFCURVE",
"618 527 CURVE SMOOTH",
"550 527 OFFCURVE",
"489 504 OFFCURVE",
"443 461 CURVE",
"410 509 OFFCURVE",
"345 527 OFFCURVE",
"266 527 CURVE SMOOTH",
"160 527 OFFCURVE",
"65 478 OFFCURVE",
"65 399 CURVE SMOOTH",
"65 365 OFFCURVE",
"92 336 OFFCURVE",
"127 336 CURVE SMOOTH",
"161 336 OFFCURVE",
"191 365 OFFCURVE",
"191 399 CURVE",
"173 405 OFFCURVE",
"163 417 OFFCURVE",
"163 437 CURVE SMOOTH",
"163 469 OFFCURVE",
"202 505 OFFCURVE",
"266 505 CURVE SMOOTH",
"330 505 OFFCURVE",
"368 470 OFFCURVE",
"368 393 CURVE SMOOTH",
"368 298 LINE",
"331 298 LINE SMOOTH",
"190 298 OFFCURVE",
"39 262 OFFCURVE",
"39 123 CURVE SMOOTH",
"39 31 OFFCURVE",
"105 -10 OFFCURVE",
"180 -10 CURVE SMOOTH"
);
},
{
closed = 1;
nodes = (
"179 37 OFFCURVE",
"148 69 OFFCURVE",
"148 123 CURVE SMOOTH",
"148 231 OFFCURVE",
"236 273 OFFCURVE",
"331 273 CURVE SMOOTH",
"368 273 LINE",
"368 191 LINE SMOOTH",
"368 104 OFFCURVE",
"298 37 OFFCURVE",
"230 37 CURVE SMOOTH"
);
},
{
closed = 1;
nodes = (
"478 433 OFFCURVE",
"525 505 OFFCURVE",
"618 505 CURVE SMOOTH",
"693 505 OFFCURVE",
"729 449 OFFCURVE",
"729 333 CURVE",
"471 333 LINE"
);
}
);
width = 878;
}
);
leftKerningGroup = a;
rightKerningGroup = e;
unicode = 00E6;
},
{
glyphname = b;
layers = (
{
layerId = UUID0;
paths = (
{
closed = 1;
nodes = (
"502 -10 OFFCURVE",
"598 96 OFFCURVE",
"598 259 CURVE SMOOTH",
"598 422 OFFCURVE",
"502 527 OFFCURVE",
"359 527 CURVE SMOOTH",
"278 527 OFFCURVE",
"222 481 OFFCURVE",
"190 413 CURVE",
"190 800 LINE",
"20 800 LINE",
"20 780 LINE",
"90 770 LINE",
"90 30 LINE",
"20 20 LINE",
"20 0 LINE",
"190 0 LINE",
"190 104 LINE",
"222 36 OFFCURVE",
"278 -10 OFFCURVE",
"359 -10 CURVE SMOOTH"
);
},
{
closed = 1;
nodes = (
"256 15 OFFCURVE",
"190 106 OFFCURVE",
"190 209 CURVE SMOOTH",
"190 316 LINE",
"193 416 OFFCURVE",
"258 502 OFFCURVE",
"349 502 CURVE SMOOTH",
"452 502 OFFCURVE",
"488 422 OFFCURVE",
"488 309 CURVE SMOOTH",
"488 209 LINE SMOOTH",
"488 96 OFFCURVE",
"452 15 OFFCURVE",
"349 15 CURVE SMOOTH"
);
}
);
width = 641;
}
);
leftKerningGroup = h;
leftMetricsKey = l;
rightKerningGroup = o;
rightMetricsKey = o;
unicode = 0062;
},
{
glyphname = c;
layers = (
{
layerId = UUID0;
paths = (
{
closed = 1;
nodes = (
"407 -10 OFFCURVE",
"487 53 OFFCURVE",
"506 152 CURVE",
"483 152 LINE",
"467 68 OFFCURVE",
"392 12 OFFCURVE",
"302 12 CURVE SMOOTH",
"199 12 OFFCURVE",
"153 96 OFFCURVE",
"153 209 CURVE SMOOTH",
"153 309 LINE SMOOTH",
"153 432 OFFCURVE",
"206 505 OFFCURVE",
"302 505 CURVE SMOOTH",
"368 505 OFFCURVE",
"410 470 OFFCURVE",
"410 421 CURVE SMOOTH",
"410 397 OFFCURVE",
"403 383 OFFCURVE",
"383 369 CURVE",
"383 333 OFFCURVE",
"410 306 OFFCURVE",
"446 306 CURVE SMOOTH",
"481 306 OFFCURVE",
"508 328 OFFCURVE",
"508 374 CURVE SMOOTH",
"508 463 OFFCURVE",
"417 527 OFFCURVE",
"302 527 CURVE SMOOTH",
"170 527 OFFCURVE",
"43 432 OFFCURVE",
"43 259 CURVE SMOOTH",
"43 96 OFFCURVE",
"159 -10 OFFCURVE",
"302 -10 CURVE SMOOTH"
);
}
);
width = 547;
}
);
leftKerningGroup = o;
rightKerningGroup = c;
unicode = 0063;
},
{
glyphname = ccedilla;
layers = (
{
layerId = UUID0;
paths = (
{
closed = 1;
nodes = (
"367 -232 OFFCURVE",
"430 -205 OFFCURVE",
"430 -136 CURVE SMOOTH",
"430 -73 OFFCURVE",
"379 -47 OFFCURVE",
"308 -44 CURVE",
"316 -9 LINE",
"414 -4 OFFCURVE",
"488 57 OFFCURVE",
"506 152 CURVE",
"483 152 LINE",
"467 68 OFFCURVE",
"392 12 OFFCURVE",
"302 12 CURVE SMOOTH",
"199 12 OFFCURVE",
"153 96 OFFCURVE",
"153 209 CURVE SMOOTH",
"153 309 LINE SMOOTH",
"153 432 OFFCURVE",
"206 505 OFFCURVE",
"302 505 CURVE SMOOTH",
"368 505 OFFCURVE",
"410 470 OFFCURVE",
"410 421 CURVE SMOOTH",
"410 397 OFFCURVE",
"403 383 OFFCURVE",
"383 369 CURVE",
"383 333 OFFCURVE",
"410 306 OFFCURVE",
"446 306 CURVE SMOOTH",
"481 306 OFFCURVE",
"508 328 OFFCURVE",
"508 374 CURVE SMOOTH",
"508 463 OFFCURVE",
"417 527 OFFCURVE",
"302 527 CURVE SMOOTH",
"170 527 OFFCURVE",
"43 432 OFFCURVE",
"43 259 CURVE SMOOTH",
"43 101 OFFCURVE",
"152 -3 OFFCURVE",
"289 -10 CURVE",
"273 -69 LINE",
"324 -74 OFFCURVE",
"345 -103 OFFCURVE",
"345 -137 CURVE SMOOTH",
"345 -187 OFFCURVE",
"305 -204 OFFCURVE",
"266 -204 CURVE SMOOTH",
"256 -204 OFFCURVE",
"246 -203 OFFCURVE",
"238 -201 CURVE",
"232 -223 LINE",
"253 -229 OFFCURVE",
"277 -232 OFFCURVE",
"304 -232 CURVE SMOOTH"
);
}
);
width = 547;
}
);
leftKerningGroup = o;
rightKerningGroup = c;
unicode = 00E7;
},
{
glyphname = d;
layers = (
{
layerId = UUID0;
paths = (
{
closed = 1;
nodes = (
"362 -10 OFFCURVE",
"419 36 OFFCURVE",
"451 104 CURVE",
"451 0 LINE",
"621 0 LINE",
"621 20 LINE",
"551 30 LINE",
"551 800 LINE",
"381 800 LINE",
"381 780 LINE",
"451 770 LINE",
"451 413 LINE",
"419 481 OFFCURVE",
"362 527 OFFCURVE",
"282 527 CURVE SMOOTH",
"139 527 OFFCURVE",
"43 422 OFFCURVE",
"43 259 CURVE SMOOTH",
"43 96 OFFCURVE",
"139 -10 OFFCURVE",
"282 -10 CURVE SMOOTH"
);
},
{
closed = 1;
nodes = (
"189 15 OFFCURVE",
"153 96 OFFCURVE",
"153 209 CURVE SMOOTH",
"153 309 LINE SMOOTH",
"153 422 OFFCURVE",
"189 502 OFFCURVE",
"292 502 CURVE SMOOTH",
"382 502 OFFCURVE",
"448 416 OFFCURVE",
"451 316 CURVE",
"451 201 LINE",
"448 101 OFFCURVE",
"382 15 OFFCURVE",
"292 15 CURVE SMOOTH"
);
}
);
width = 642;
}
);
leftKerningGroup = o;
leftMetricsKey = o;
rightKerningGroup = d;
unicode = 0064;
},
{
glyphname = eth;
layers = (
{
layerId = UUID0;
paths = (
{
closed = 1;
nodes = (
"445 -10 OFFCURVE",
"562 96 OFFCURVE",
"562 259 CURVE SMOOTH",
"562 372 LINE SMOOTH",
"562 527 OFFCURVE",
"510 642 OFFCURVE",
"408 718 CURVE",
"513 776 LINE",
"500 798 LINE",
"385 735 LINE",
"334 768 OFFCURVE",
"272 793 OFFCURVE",
"199 810 CURVE",
"194 788 LINE",
"265 770 OFFCURVE",
"316 747 OFFCURVE",
"354 718 CURVE",
"235 653 LINE",
"247 629 LINE",
"375 700 LINE",
"426 649 OFFCURVE",
"444 582 OFFCURVE",
"449 493 CURVE",
"408 514 OFFCURVE",
"355 527 OFFCURVE",
"302 527 CURVE SMOOTH",
"159 527 OFFCURVE",
"43 422 OFFCURVE",
"43 259 CURVE SMOOTH",
"43 96 OFFCURVE",
"159 -10 OFFCURVE",
"302 -10 CURVE SMOOTH"
);
},
{
closed = 1;
nodes = (
"199 12 OFFCURVE",
"153 96 OFFCURVE",
"153 209 CURVE SMOOTH",
"153 309 LINE SMOOTH",
"153 422 OFFCURVE",
"199 505 OFFCURVE",
"302 505 CURVE SMOOTH",
"355 505 OFFCURVE",
"410 489 OFFCURVE",
"450 467 CURVE",
"451 444 OFFCURVE",
"452 419 OFFCURVE",
"452 393 CURVE",
"452 209 LINE SMOOTH",
"452 96 OFFCURVE",
"405 12 OFFCURVE",
"302 12 CURVE SMOOTH"
);
}
);
width = 627;
}
);
leftKerningGroup = o;
rightKerningGroup = o;
unicode = 00F0;
},
{
glyphname = e;
layers = (
{
anchors = (
{
name = bottom;
position = "{281, 0}";
},
{
name = ogonek;
position = "{505, 10}";
},
{
name = top;
position = "{300, 518}";
}
);
layerId = UUID0;
paths = (
{
closed = 1;
nodes = (
"417 -10 OFFCURVE",
"498 53 OFFCURVE",
"517 152 CURVE",
"494 152 LINE",
"478 68 OFFCURVE",
"397 12 OFFCURVE",
"307 12 CURVE SMOOTH",
"204 12 OFFCURVE",
"153 96 OFFCURVE",
"153 209 CURVE SMOOTH",
"153 308 LINE",
"521 308 LINE",
"519 437 OFFCURVE",
"429 527 OFFCURVE",
"301 527 CURVE SMOOTH",
"158 527 OFFCURVE",
"43 422 OFFCURVE",
"43 259 CURVE SMOOTH",
"43 96 OFFCURVE",
"159 -10 OFFCURVE",
"307 -10 CURVE SMOOTH"
);
},
{
closed = 1;
nodes = (
"160 433 OFFCURVE",
"208 505 OFFCURVE",
"300 505 CURVE SMOOTH",
"376 505 OFFCURVE",
"411 449 OFFCURVE",
"411 333 CURVE",
"154 333 LINE"
);
}
);
width = 561;
}
);
leftKerningGroup = o;
leftMetricsKey = o;
rightKerningGroup = e;
unicode = 0065;
},
{
glyphname = f;
layers = (
{
layerId = UUID0;
paths = (
{
closed = 1;
nodes = (
"316 0 LINE",
"316 20 LINE",
"197 30 LINE",
"197 488 LINE",
"327 498 LINE",
"327 518 LINE",
"197 518 LINE",
"197 633 LINE SMOOTH",
"197 741 OFFCURVE",
"217 788 OFFCURVE",
"269 788 CURVE SMOOTH",
"295 788 OFFCURVE",
"315 768 OFFCURVE",
"315 746 CURVE SMOOTH",
"315 726 OFFCURVE",
"307 707 OFFCURVE",
"281 699 CURVE",
"281 665 OFFCURVE",
"310 636 OFFCURVE",
"344 636 CURVE SMOOTH",
"382 636 OFFCURVE",
"405 665 OFFCURVE",
"405 704 CURVE SMOOTH",
"405 771 OFFCURVE",
"345 810 OFFCURVE",
"269 810 CURVE SMOOTH",
"135 810 OFFCURVE",
"97 717 OFFCURVE",
"97 602 CURVE SMOOTH",
"97 518 LINE",
"27 518 LINE",
"27 498 LINE",
"97 488 LINE",
"97 30 LINE",
"27 20 LINE",
"27 0 LINE"
);
}
);
width = 340;
}
);
leftKerningGroup = f;
rightKerningGroup = f;
unicode = 0066;
},
{
glyphname = g;
layers = (
{
background = {
paths = (
{
closed = 1;
nodes = (
"148 184 LINE",
"89 176 OFFCURVE",
"49 136 OFFCURVE",
"49 72 CURVE SMOOTH",
"49 8 OFFCURVE",
"92 -27 OFFCURVE",
"190 -27 CURVE SMOOTH",
"342 -27 LINE SMOOTH",
"438 -27 OFFCURVE",
"465 -53 OFFCURVE",
"465 -106 CURVE SMOOTH",
"465 -180 OFFCURVE",
"387 -261 OFFCURVE",
"263 -261 CURVE SMOOTH",
"152 -261 OFFCURVE",
"122 -192 OFFCURVE",
"122 -144 CURVE SMOOTH",
"122 -111 OFFCURVE",
"134 -86 OFFCURVE",
"153 -66 CURVE",
"139 -64 OFFCURVE",
"128 -62 OFFCURVE",
"116 -62 CURVE SMOOTH",
"52 -62 OFFCURVE",
"19 -106 OFFCURVE",
"19 -148 CURVE SMOOTH",
"19 -224 OFFCURVE",
"84 -282 OFFCURVE",
"252 -282 CURVE SMOOTH",
"406 -282 OFFCURVE",
"492 -188 OFFCURVE",
"492 -77 CURVE SMOOTH",
"492 34 OFFCURVE",
"435 69 OFFCURVE",
"332 69 CURVE SMOOTH",
"190 69 LINE SMOOTH",
"140 69 OFFCURVE",
"100 85 OFFCURVE",
"100 117 CURVE SMOOTH",
"100 153 OFFCURVE",
"133 170 OFFCURVE",
"177 169 CURVE"
);
}
);
};
layerId = UUID0;
paths = (
{
closed = 1;
nodes = (
"397 -255 OFFCURVE",
"483 -161 OFFCURVE",
"483 -50 CURVE SMOOTH",
"483 61 OFFCURVE",
"426 96 OFFCURVE",
"323 96 CURVE SMOOTH",
"211 96 LINE SMOOTH",
"148 96 OFFCURVE",
"121 111 OFFCURVE",
"121 146 CURVE SMOOTH",
"121 178 OFFCURVE",
"146 196 OFFCURVE",
"198 196 CURVE",
"169 211 LINE",
"112 211 OFFCURVE",
"70 166 OFFCURVE",
"70 109 CURVE SMOOTH",
"70 37 OFFCURVE",
"118 0 OFFCURVE",
"211 0 CURVE SMOOTH",
"333 0 LINE SMOOTH",
"429 0 OFFCURVE",
"456 -26 OFFCURVE",
"456 -79 CURVE SMOOTH",
"456 -153 OFFCURVE",
"378 -234 OFFCURVE",
"254 -234 CURVE SMOOTH",
"154 -234 OFFCURVE",
"126 -175 OFFCURVE",
"126 -127 CURVE SMOOTH",
"126 -94 OFFCURVE",
"138 -69 OFFCURVE",
"157 -49 CURVE",
"143 -47 OFFCURVE",
"132 -45 OFFCURVE",
"120 -45 CURVE SMOOTH",
"56 -45 OFFCURVE",
"23 -89 OFFCURVE",
"23 -131 CURVE SMOOTH",
"23 -201 OFFCURVE",
"84 -255 OFFCURVE",
"243 -255 CURVE SMOOTH"
);
},
{
closed = 1;
nodes = (
"358 190 OFFCURVE",
"445 251 OFFCURVE",
"445 358 CURVE SMOOTH",
"445 470 OFFCURVE",
"390 527 OFFCURVE",
"249 527 CURVE SMOOTH",
"142 527 OFFCURVE",
"56 466 OFFCURVE",
"56 358 CURVE SMOOTH",
"56 247 OFFCURVE",
"118 190 OFFCURVE",
"249 190 CURVE SMOOTH"
);
},
{
closed = 1;
nodes = (
"180 207 OFFCURVE",
"150 258 OFFCURVE",
"150 334 CURVE SMOOTH",
"150 383 LINE SMOOTH",
"150 463 OFFCURVE",
"180 510 OFFCURVE",
"249 510 CURVE SMOOTH",
"319 510 OFFCURVE",
"351 463 OFFCURVE",
"351 383 CURVE SMOOTH",
"351 334 LINE SMOOTH",
"351 258 OFFCURVE",
"319 207 OFFCURVE",
"249 207 CURVE SMOOTH"
);
},
{
closed = 1;
nodes = (
"502 467 OFFCURVE",
"540 513 OFFCURVE",
"540 565 CURVE SMOOTH",
"540 599 OFFCURVE",
"515 620 OFFCURVE",
"483 620 CURVE SMOOTH",
"453 620 OFFCURVE",
"427 595 OFFCURVE",
"427 565 CURVE",
"442 565 OFFCURVE",
"457 554 OFFCURVE",
"457 532 CURVE SMOOTH",
"457 506 OFFCURVE",
"434 483 OFFCURVE",
"379 481 CURVE",
"396 460 LINE"
);
}
);
width = 535;
},
{
associatedMasterId = UUID0;
layerId = "93EF7911-E4B5-45CB-8BE0-4321DA36B035";
name = old;
paths = (
{
closed = 1;
nodes = (
"381 -27 LINE SMOOTH",
"462 -27 OFFCURVE",
"484 -54 OFFCURVE",
"484 -109 CURVE SMOOTH",
"484 -187 OFFCURVE",
"401 -273 OFFCURVE",
"269 -273 CURVE SMOOTH",
"150 -273 OFFCURVE",
"118 -199 OFFCURVE",
"118 -148 CURVE SMOOTH",
"118 -112 OFFCURVE",
"130 -84 OFFCURVE",
"149 -64 CURVE",
"135 -62 OFFCURVE",
"124 -60 OFFCURVE",
"112 -60 CURVE SMOOTH",
"48 -60 OFFCURVE",
"15 -107 OFFCURVE",
"15 -152 CURVE SMOOTH",
"15 -231 OFFCURVE",
"86 -292 OFFCURVE",
"268 -292 CURVE SMOOTH",
"425 -292 OFFCURVE",
"513 -189 OFFCURVE",
"513 -67 CURVE SMOOTH",
"513 36 OFFCURVE",
"451 69 OFFCURVE",
"351 69 CURVE SMOOTH",
"186 69 LINE SMOOTH",
"136 69 OFFCURVE",
"96 85 OFFCURVE",
"96 117 CURVE SMOOTH",
"96 150 OFFCURVE",
"124 167 OFFCURVE",
"163 169 CURVE",
"191 156 OFFCURVE",
"224 150 OFFCURVE",
"261 150 CURVE SMOOTH",
"375 150 OFFCURVE",
"466 218 OFFCURVE",
"466 338 CURVE SMOOTH",
"466 391 OFFCURVE",
"448 434 OFFCURVE",
"419 465 CURVE",
"528 474 OFFCURVE",
"567 521 OFFCURVE",
"567 574 CURVE SMOOTH",
"567 612 OFFCURVE",
"539 635 OFFCURVE",
"504 635 CURVE SMOOTH",
"471 635 OFFCURVE",
"442 608 OFFCURVE",
"442 574 CURVE",
"459 574 OFFCURVE",
"476 562 OFFCURVE",
"476 538 CURVE SMOOTH",
"476 512 OFFCURVE",
"453 487 OFFCURVE",
"400 483 CURVE",
"363 512 OFFCURVE",
"315 527 OFFCURVE",
"261 527 CURVE SMOOTH",
"149 527 OFFCURVE",
"58 459 OFFCURVE",
"58 338 CURVE SMOOTH",
"58 267 OFFCURVE",
"87 215 OFFCURVE",
"136 183 CURVE",
"81 172 OFFCURVE",
"45 133 OFFCURVE",
"45 72 CURVE SMOOTH",
"45 8 OFFCURVE",
"88 -27 OFFCURVE",
"186 -27 CURVE SMOOTH"
);
},
{
closed = 1;
nodes = (
"372 314 LINE SMOOTH",
"372 226 OFFCURVE",
"338 167 OFFCURVE",
"261 167 CURVE SMOOTH",
"185 167 OFFCURVE",
"152 226 OFFCURVE",
"152 314 CURVE SMOOTH",
"152 363 LINE SMOOTH",
"152 456 OFFCURVE",
"185 510 OFFCURVE",
"261 510 CURVE SMOOTH",
"338 510 OFFCURVE",
"372 456 OFFCURVE",
"372 363 CURVE SMOOTH"
);
}
);
width = 539;
},
{
associatedMasterId = UUID0;
layerId = "EB5CC2BE-343C-4890-819E-0B26DFDE3C53";
name = "Sep 9 16, 12:09";
paths = (
{
closed = 1;
nodes = (
"358 -27 LINE SMOOTH",
"454 -27 OFFCURVE",
"481 -53 OFFCURVE",
"481 -106 CURVE SMOOTH",
"481 -180 OFFCURVE",
"399 -261 OFFCURVE",
"269 -261 CURVE SMOOTH",
"158 -261 OFFCURVE",
"128 -192 OFFCURVE",
"128 -144 CURVE SMOOTH",
"128 -111 OFFCURVE",
"140 -86 OFFCURVE",
"159 -66 CURVE",
"145 -64 OFFCURVE",
"134 -62 OFFCURVE",
"122 -62 CURVE SMOOTH",
"58 -62 OFFCURVE",
"25 -106 OFFCURVE",
"25 -148 CURVE SMOOTH",
"25 -224 OFFCURVE",
"90 -282 OFFCURVE",
"258 -282 CURVE SMOOTH",
"418 -282 OFFCURVE",
"508 -188 OFFCURVE",
"508 -77 CURVE SMOOTH",
"508 34 OFFCURVE",
"451 69 OFFCURVE",
"348 69 CURVE SMOOTH",
"186 69 LINE SMOOTH",
"136 69 OFFCURVE",
"96 85 OFFCURVE",
"96 117 CURVE SMOOTH",
"96 150 OFFCURVE",
"124 167 OFFCURVE",
"163 169 CURVE",
"191 156 OFFCURVE",
"224 150 OFFCURVE",
"261 150 CURVE SMOOTH",
"375 150 OFFCURVE",
"466 218 OFFCURVE",
"466 338 CURVE SMOOTH",
"466 391 OFFCURVE",
"448 434 OFFCURVE",
"419 465 CURVE",
"528 474 OFFCURVE",
"567 521 OFFCURVE",
"567 574 CURVE SMOOTH",
"567 612 OFFCURVE",
"539 635 OFFCURVE",
"504 635 CURVE SMOOTH",
"471 635 OFFCURVE",
"442 608 OFFCURVE",
"442 574 CURVE",
"459 574 OFFCURVE",
"476 562 OFFCURVE",
"476 538 CURVE SMOOTH",
"476 512 OFFCURVE",
"453 487 OFFCURVE",
"400 483 CURVE",
"363 512 OFFCURVE",
"315 527 OFFCURVE",
"261 527 CURVE SMOOTH",
"149 527 OFFCURVE",
"58 459 OFFCURVE",
"58 338 CURVE SMOOTH",
"58 267 OFFCURVE",
"87 215 OFFCURVE",
"136 183 CURVE",
"81 172 OFFCURVE",
"45 133 OFFCURVE",
"45 72 CURVE SMOOTH",
"45 8 OFFCURVE",
"88 -27 OFFCURVE",
"186 -27 CURVE SMOOTH"
);
},
{
closed = 1;
nodes = (
"372 314 LINE SMOOTH",
"372 226 OFFCURVE",
"338 167 OFFCURVE",
"261 167 CURVE SMOOTH",
"185 167 OFFCURVE",
"152 226 OFFCURVE",
"152 314 CURVE SMOOTH",
"152 363 LINE SMOOTH",
"152 456 OFFCURVE",
"185 510 OFFCURVE",
"261 510 CURVE SMOOTH",
"338 510 OFFCURVE",
"372 456 OFFCURVE",
"372 363 CURVE SMOOTH"
);
}
);
width = 539;
},
{
associatedMasterId = UUID0;
background = {
paths = (
{
closed = 1;
nodes = (
"154 184 LINE",
"95 176 OFFCURVE",
"55 136 OFFCURVE",
"55 72 CURVE SMOOTH",
"55 8 OFFCURVE",
"98 -27 OFFCURVE",
"196 -27 CURVE SMOOTH",
"348 -27 LINE SMOOTH",
"444 -27 OFFCURVE",
"471 -53 OFFCURVE",
"471 -106 CURVE SMOOTH",
"471 -180 OFFCURVE",
"393 -261 OFFCURVE",
"269 -261 CURVE SMOOTH",
"158 -261 OFFCURVE",
"128 -192 OFFCURVE",
"128 -144 CURVE SMOOTH",
"128 -111 OFFCURVE",
"140 -86 OFFCURVE",
"159 -66 CURVE",
"145 -64 OFFCURVE",
"134 -62 OFFCURVE",
"122 -62 CURVE SMOOTH",
"58 -62 OFFCURVE",
"25 -106 OFFCURVE",
"25 -148 CURVE SMOOTH",
"25 -224 OFFCURVE",
"90 -282 OFFCURVE",
"258 -282 CURVE SMOOTH",
"412 -282 OFFCURVE",
"498 -188 OFFCURVE",
"498 -77 CURVE SMOOTH",
"498 34 OFFCURVE",
"441 69 OFFCURVE",
"338 69 CURVE SMOOTH",
"196 69 LINE SMOOTH",
"146 69 OFFCURVE",
"106 85 OFFCURVE",
"106 117 CURVE SMOOTH",
"106 153 OFFCURVE",
"139 170 OFFCURVE",
"183 169 CURVE"
);
}
);
};
layerId = "522F1B9C-80AE-4291-BEED-FED52CF490C5";
name = "Sep 9 16, 12:32";
paths = (
{
closed = 1;
nodes = (
"411 465 LINE",
"517 471 OFFCURVE",
"555 515 OFFCURVE",
"555 565 CURVE SMOOTH",
"555 599 OFFCURVE",
"530 620 OFFCURVE",
"498 620 CURVE SMOOTH",
"468 620 OFFCURVE",
"442 595 OFFCURVE",
"442 565 CURVE",
"457 565 OFFCURVE",
"472 554 OFFCURVE",
"472 532 CURVE SMOOTH",
"472 506 OFFCURVE",
"449 483 OFFCURVE",
"394 481 CURVE"
);
},
{
closed = 1;
nodes = (
"355 334 LINE SMOOTH",
"355 258 OFFCURVE",
"327 207 OFFCURVE",
"264 207 CURVE SMOOTH",
"202 207 OFFCURVE",
"175 258 OFFCURVE",
"175 334 CURVE SMOOTH",
"175 383 LINE SMOOTH",
"175 463 OFFCURVE",
"202 510 OFFCURVE",
"264 510 CURVE SMOOTH",
"327 510 OFFCURVE",
"355 463 OFFCURVE",
"355 383 CURVE SMOOTH"
);
},
{
closed = 1;
nodes = (
"200 211 LINE",
"141 205 OFFCURVE",
"98 160 OFFCURVE",
"98 115 CURVE SMOOTH",
"98 35 OFFCURVE",
"144 0 OFFCURVE",
"242 0 CURVE SMOOTH",
"323 0 LINE SMOOTH",
"423 0 OFFCURVE",
"465 -23 OFFCURVE",
"465 -69 CURVE SMOOTH",
"465 -165 OFFCURVE",
"406 -234 OFFCURVE",
"294 -234 CURVE SMOOTH",
"191 -234 OFFCURVE",
"164 -167 OFFCURVE",
"164 -121 CURVE SMOOTH",
"164 -89 OFFCURVE",
"176 -65 OFFCURVE",
"194 -46 CURVE",
"180 -44 OFFCURVE",
"170 -42 OFFCURVE",
"158 -42 CURVE SMOOTH",
"97 -42 OFFCURVE",
"65 -84 OFFCURVE",
"65 -125 CURVE SMOOTH",
"65 -197 OFFCURVE",
"122 -255 OFFCURVE",
"283 -255 CURVE SMOOTH",
"425 -255 OFFCURVE",
"493 -170 OFFCURVE",
"493 -58 CURVE SMOOTH",
"493 48 OFFCURVE",
"439 96 OFFCURVE",
"333 96 CURVE SMOOTH",
"242 96 LINE SMOOTH",
"192 96 OFFCURVE",
"152 112 OFFCURVE",
"152 144 CURVE SMOOTH",
"152 180 OFFCURVE",
"185 197 OFFCURVE",
"229 196 CURVE"
);
},
{
closed = 1;
nodes = (
"397 527 OFFCURVE",
"264 527 CURVE SMOOTH",
"163 527 OFFCURVE",
"81 466 OFFCURVE",
"81 358 CURVE SMOOTH",
"81 247 OFFCURVE",
"140 190 OFFCURVE",
"264 190 CURVE SMOOTH",
"367 190 OFFCURVE",
"449 251 OFFCURVE",
"449 358 CURVE SMOOTH",
"449 470 OFFCURVE"
);
}
);
width = 541;
},
{
associatedMasterId = UUID0;
background = {
paths = (
{
closed = 1;
nodes = (
"154 184 LINE",
"95 176 OFFCURVE",
"55 136 OFFCURVE",
"55 72 CURVE SMOOTH",
"55 8 OFFCURVE",
"98 -27 OFFCURVE",
"196 -27 CURVE SMOOTH",
"348 -27 LINE SMOOTH",
"444 -27 OFFCURVE",
"471 -53 OFFCURVE",
"471 -106 CURVE SMOOTH",
"471 -180 OFFCURVE",
"393 -261 OFFCURVE",
"269 -261 CURVE SMOOTH",
"158 -261 OFFCURVE",
"128 -192 OFFCURVE",
"128 -144 CURVE SMOOTH",
"128 -111 OFFCURVE",
"140 -86 OFFCURVE",
"159 -66 CURVE",
"145 -64 OFFCURVE",
"134 -62 OFFCURVE",
"122 -62 CURVE SMOOTH",
"58 -62 OFFCURVE",
"25 -106 OFFCURVE",
"25 -148 CURVE SMOOTH",
"25 -224 OFFCURVE",
"90 -282 OFFCURVE",
"258 -282 CURVE SMOOTH",
"412 -282 OFFCURVE",
"498 -188 OFFCURVE",
"498 -77 CURVE SMOOTH",
"498 34 OFFCURVE",
"441 69 OFFCURVE",
"338 69 CURVE SMOOTH",
"196 69 LINE SMOOTH",
"146 69 OFFCURVE",
"106 85 OFFCURVE",
"106 117 CURVE SMOOTH",
"106 153 OFFCURVE",
"139 170 OFFCURVE",
"183 169 CURVE"
);
}
);
};
layerId = "0AF9D578-CA63-4EDC-BA7D-2CABF38DCBD8";
name = "Sep 9 16, 21:14";
paths = (
{
closed = 1;
nodes = (
"402 465 LINE",
"508 471 OFFCURVE",
"546 515 OFFCURVE",
"546 565 CURVE SMOOTH",
"546 599 OFFCURVE",
"521 620 OFFCURVE",
"489 620 CURVE SMOOTH",
"459 620 OFFCURVE",
"433 595 OFFCURVE",
"433 565 CURVE",
"448 565 OFFCURVE",
"463 554 OFFCURVE",
"463 532 CURVE SMOOTH",
"463 506 OFFCURVE",
"440 483 OFFCURVE",
"385 481 CURVE"
);
},
{
closed = 1;
nodes = (
"346 334 LINE SMOOTH",
"346 258 OFFCURVE",
"318 207 OFFCURVE",
"255 207 CURVE SMOOTH",
"193 207 OFFCURVE",
"166 258 OFFCURVE",
"166 334 CURVE SMOOTH",
"166 383 LINE SMOOTH",
"166 463 OFFCURVE",
"193 510 OFFCURVE",
"255 510 CURVE SMOOTH",
"318 510 OFFCURVE",
"346 463 OFFCURVE",
"346 383 CURVE SMOOTH"
);
},
{
closed = 1;
nodes = (
"440 470 OFFCURVE",
"388 527 OFFCURVE",
"255 527 CURVE SMOOTH",
"154 527 OFFCURVE",
"72 466 OFFCURVE",
"72 358 CURVE SMOOTH",
"72 247 OFFCURVE",
"131 190 OFFCURVE",
"255 190 CURVE SMOOTH",
"358 190 OFFCURVE",
"440 251 OFFCURVE",
"440 358 CURVE SMOOTH"
);
},
{
closed = 1;
nodes = (
"175 211 LINE",
"118 211 OFFCURVE",
"76 164 OFFCURVE",
"76 109 CURVE SMOOTH",
"76 40 OFFCURVE",
"127 0 OFFCURVE",
"217 0 CURVE SMOOTH",
"339 0 LINE SMOOTH",
"435 0 OFFCURVE",
"462 -26 OFFCURVE",
"462 -79 CURVE SMOOTH",
"462 -153 OFFCURVE",
"384 -234 OFFCURVE",
"260 -234 CURVE SMOOTH",
"165 -234 OFFCURVE",
"139 -175 OFFCURVE",
"139 -127 CURVE SMOOTH",
"139 -94 OFFCURVE",
"151 -69 OFFCURVE",
"170 -49 CURVE",
"156 -47 OFFCURVE",
"145 -45 OFFCURVE",
"133 -45 CURVE SMOOTH",
"69 -45 OFFCURVE",
"36 -89 OFFCURVE",
"36 -131 CURVE SMOOTH",
"36 -201 OFFCURVE",
"95 -255 OFFCURVE",
"249 -255 CURVE SMOOTH",
"403 -255 OFFCURVE",
"489 -161 OFFCURVE",
"489 -50 CURVE SMOOTH",
"489 61 OFFCURVE",
"432 96 OFFCURVE",
"329 96 CURVE SMOOTH",
"217 96 LINE SMOOTH",
"167 96 OFFCURVE",
"127 109 OFFCURVE",
"127 141 CURVE SMOOTH",
"127 175 OFFCURVE",
"152 196 OFFCURVE",
"204 196 CURVE"
);
}
);
width = 541;
}
);
leftKerningGroup = g;
rightKerningGroup = g;
unicode = 0067;
},
{
glyphname = h;
layers = (
{
layerId = UUID0;
paths = (
{
closed = 1;
nodes = (
"251 0 LINE",
"251 20 LINE",
"191 30 LINE",
"191 375 LINE",
"229 432 OFFCURVE",
"289 491 OFFCURVE",
"355 491 CURVE SMOOTH",
"415 491 OFFCURVE",
"441 449 OFFCURVE",
"441 382 CURVE SMOOTH",
"441 30 LINE",
"381 20 LINE",
"381 0 LINE",
"611 0 LINE",
"611 20 LINE",
"541 30 LINE",
"541 384 LINE SMOOTH",
"541 482 OFFCURVE",
"479 527 OFFCURVE",
"386 527 CURVE SMOOTH",
"306 527 OFFCURVE",
"238 478 OFFCURVE",
"191 410 CURVE",
"191 800 LINE",
"21 800 LINE",
"21 780 LINE",
"91 770 LINE",
"91 30 LINE",
"21 20 LINE",
"21 0 LINE"
);
}
);
width = 629;
}
);
leftKerningGroup = h;
rightKerningGroup = n;
unicode = 0068;
},
{
glyphname = i;
layers = (
{
anchors = (
{
name = bottom;
position = "{145, 0}";
}
);
layerId = UUID0;
paths = (
{
closed = 1;
nodes = (
"268 0 LINE",
"268 20 LINE",
"198 30 LINE",
"198 517 LINE",
"28 517 LINE",
"28 497 LINE",
"98 487 LINE",
"98 30 LINE",
"28 20 LINE",
"28 0 LINE"
);
},
{
closed = 1;
nodes = (
"170 634 OFFCURVE",
"199 664 OFFCURVE",
"199 701 CURVE SMOOTH",
"199 738 OFFCURVE",
"170 767 OFFCURVE",
"134 767 CURVE SMOOTH",
"96 767 OFFCURVE",
"66 738 OFFCURVE",
"66 701 CURVE SMOOTH",
"66 664 OFFCURVE",
"96 634 OFFCURVE",
"134 634 CURVE SMOOTH"
);
}
);
width = 289;
}
);
leftKerningGroup = i;
rightKerningGroup = i;
unicode = 0069;
},
{
glyphname = idotless;
layers = (
{
anchors = (
{
name = bottom;
position = "{145, 0}";
},
{
name = ogonek;
position = "{260, 10}";
},
{
name = top;
position = "{137, 518}";
}
);
layerId = UUID0;
paths = (
{
closed = 1;
nodes = (
"268 0 LINE",
"268 20 LINE",
"198 30 LINE",
"198 517 LINE",
"28 517 LINE",
"28 497 LINE",
"98 487 LINE",
"98 30 LINE",
"28 20 LINE",
"28 0 LINE"
);
}
);
width = 289;
}
);
leftKerningGroup = i;
rightKerningGroup = i;
unicode = 0131;
},
{
glyphname = j;
layers = (
{
annotations = (
{
position = "{241, 586}";
type = Circle;
width = 30;
}
);
layerId = UUID0;
paths = (
{
closed = 1;
nodes = (
"161 -292 OFFCURVE",
"197 -208 OFFCURVE",
"197 -104 CURVE SMOOTH",
"197 518 LINE",
"22 518 LINE",
"22 498 LINE",
"97 488 LINE",
"97 -115 LINE SMOOTH",
"97 -231 OFFCURVE",
"79 -270 OFFCURVE",
"32 -270 CURVE SMOOTH",
"7 -270 OFFCURVE",
"-9 -251 OFFCURVE",
"-9 -233 CURVE SMOOTH",
"-9 -216 OFFCURVE",
"-1 -201 OFFCURVE",
"22 -194 CURVE",
"22 -163 OFFCURVE",
"-4 -137 OFFCURVE",
"-35 -137 CURVE SMOOTH",
"-69 -137 OFFCURVE",
"-90 -163 OFFCURVE",
"-90 -198 CURVE SMOOTH",
"-90 -255 OFFCURVE",
"-43 -292 OFFCURVE",
"32 -292 CURVE SMOOTH"
);
},
{
closed = 1;
nodes = (
"171 634 OFFCURVE",
"200 664 OFFCURVE",
"200 701 CURVE SMOOTH",
"200 738 OFFCURVE",
"171 767 OFFCURVE",
"135 767 CURVE SMOOTH",
"97 767 OFFCURVE",
"67 738 OFFCURVE",
"67 701 CURVE SMOOTH",
"67 664 OFFCURVE",
"97 634 OFFCURVE",
"135 634 CURVE SMOOTH"
);
}
);
width = 278;
},
{
associatedMasterId = UUID0;
layerId = "64D0B0CC-CEE4-44DD-8253-DE61DCCDC0CE";
name = old;
paths = (
{
closed = 1;
nodes = (
"150 -195 OFFCURVE",
"189 -153 OFFCURVE",
"189 -57 CURVE SMOOTH",
"189 518 LINE",
"89 518 LINE",
"14 518 LINE",
"14 498 LINE",
"89 488 LINE",
"89 133 LINE SMOOTH",
"89 30 OFFCURVE",
"160 4 OFFCURVE",
"160 -87 CURVE SMOOTH",
"160 -138 OFFCURVE",
"138 -168 OFFCURVE",
"103 -168 CURVE SMOOTH",
"74 -168 OFFCURVE",
"62 -149 OFFCURVE",
"62 -127 CURVE SMOOTH",
"62 -107 OFFCURVE",
"73 -88 OFFCURVE",
"94 -74 CURVE",
"94 -74 OFFCURVE",
"86 -21 OFFCURVE",
"31 -21 CURVE SMOOTH",
"-7 -21 OFFCURVE",
"-31 -49 OFFCURVE",
"-31 -89 CURVE SMOOTH",
"-31 -157 OFFCURVE",
"21 -195 OFFCURVE",
"87 -195 CURVE SMOOTH"
);
},
{
closed = 1;
nodes = (
"59 664 OFFCURVE",
"89 634 OFFCURVE",
"127 634 CURVE SMOOTH",
"163 634 OFFCURVE",
"192 664 OFFCURVE",
"192 701 CURVE SMOOTH",
"192 738 OFFCURVE",
"163 767 OFFCURVE",
"127 767 CURVE SMOOTH",
"89 767 OFFCURVE",
"59 738 OFFCURVE",
"59 701 CURVE SMOOTH"
);
}
);
width = 266;
},
{
annotations = (
{
position = "{241, 586}";
type = Circle;
width = 30;
}
);
associatedMasterId = UUID0;
layerId = "73EF92B3-BDCE-462D-BD47-542913019717";
name = "Sep 9 16, 14:21";
paths = (
{
closed = 1;
nodes = (
"53 664 OFFCURVE",
"83 634 OFFCURVE",
"121 634 CURVE SMOOTH",
"157 634 OFFCURVE",
"186 664 OFFCURVE",
"186 701 CURVE SMOOTH",
"186 738 OFFCURVE",
"157 767 OFFCURVE",
"121 767 CURVE SMOOTH",
"83 767 OFFCURVE",
"53 738 OFFCURVE",
"53 701 CURVE SMOOTH"
);
},
{
closed = 1;
nodes = (
"183 518 LINE",
"8 518 LINE",
"8 498 LINE",
"83 488 LINE",
"83 -115 LINE SMOOTH",
"83 -223 OFFCURVE",
"64 -270 OFFCURVE",
"14 -270 CURVE SMOOTH",
"-11 -270 OFFCURVE",
"-30 -251 OFFCURVE",
"-30 -231 CURVE SMOOTH",
"-30 -212 OFFCURVE",
"-22 -195 OFFCURVE",
"4 -187 CURVE",
"4 -153 OFFCURVE",
"-25 -124 OFFCURVE",
"-59 -124 CURVE SMOOTH",
"-97 -124 OFFCURVE",
"-120 -153 OFFCURVE",
"-120 -192 CURVE SMOOTH",
"-120 -255 OFFCURVE",
"-61 -292 OFFCURVE",
"14 -292 CURVE SMOOTH",
"146 -292 OFFCURVE",
"183 -199 OFFCURVE",
"183 -84 CURVE"
);
}
);
visible = 1;
width = 264;
}
);
leftKerningGroup = jdotless;
rightKerningGroup = jdotless;
unicode = 006A;
},
{
glyphname = k;
layers = (
{
layerId = UUID0;
paths = (
{
closed = 1;
nodes = (
"250 0 LINE",
"250 20 LINE",
"190 30 LINE",
"190 256 LINE",
"216 278 LINE",
"404 30 LINE",
"344 20 LINE",
"344 0 LINE",
"578 0 LINE",
"578 20 LINE",
"524 29 LINE",
"290 339 LINE",
"456 475 LINE",
"520 498 LINE",
"520 518 LINE",
"332 518 LINE",
"332 498 LINE",
"419 475 LINE",
"190 287 LINE",
"190 800 LINE",
"20 800 LINE",
"20 780 LINE",
"90 770 LINE",
"90 30 LINE",
"20 20 LINE",
"20 0 LINE"
);
}
);
width = 565;
}
);
leftKerningGroup = h;
leftMetricsKey = l;
rightKerningGroup = k;
unicode = 006B;
},
{
glyphname = l;
layers = (
{
layerId = UUID0;
paths = (
{
closed = 1;
nodes = (
"265 0 LINE",
"265 20 LINE",
"195 30 LINE",
"195 800 LINE",
"20 800 LINE",
"20 780 LINE",
"95 770 LINE",
"95 30 LINE",
"20 20 LINE",
"20 0 LINE"
);
}
);
width = 286;
}
);
leftKerningGroup = h;
rightKerningGroup = l;
unicode = 006C;
},
{
glyphname = m;
layers = (
{
layerId = UUID0;
paths = (
{
closed = 1;
nodes = (
"257 0 LINE",
"257 20 LINE",
"197 30 LINE",
"197 391 LINE",
"234 443 OFFCURVE",
"287 491 OFFCURVE",
"346 491 CURVE SMOOTH",
"406 491 OFFCURVE",
"427 449 OFFCURVE",
"427 382 CURVE SMOOTH",
"427 30 LINE",
"367 20 LINE",
"367 0 LINE",
"588 0 LINE",
"588 20 LINE",
"528 30 LINE",
"528 384 LINE",
"528 391 LINE",
"565 443 OFFCURVE",
"618 491 OFFCURVE",
"677 491 CURVE SMOOTH",
"737 491 OFFCURVE",
"758 449 OFFCURVE",
"758 382 CURVE SMOOTH",
"758 30 LINE",
"698 20 LINE",
"698 0 LINE",
"928 0 LINE",
"928 20 LINE",
"858 30 LINE",
"858 384 LINE SMOOTH",
"858 482 OFFCURVE",
"800 527 OFFCURVE",
"708 527 CURVE SMOOTH",
"632 527 OFFCURVE",
"570 483 OFFCURVE",
"525 421 CURVE",
"511 493 OFFCURVE",
"457 527 OFFCURVE",
"377 527 CURVE SMOOTH",
"303 527 OFFCURVE",
"242 485 OFFCURVE",
"197 426 CURVE",
"197 518 LINE",
"97 518 LINE",
"27 518 LINE",
"27 498 LINE",
"97 488 LINE",
"97 30 LINE",
"27 20 LINE",
"27 0 LINE"
);
}
);
width = 946;
}
);
leftKerningGroup = n;
rightKerningGroup = n;
unicode = 006D;
},
{
glyphname = n;
layers = (
{
layerId = UUID0;
paths = (
{
closed = 1;
nodes = (
"257 0 LINE",
"257 20 LINE",
"197 30 LINE",
"197 375 LINE",
"235 432 OFFCURVE",
"295 491 OFFCURVE",
"361 491 CURVE SMOOTH",
"421 491 OFFCURVE",
"447 449 OFFCURVE",
"447 382 CURVE SMOOTH",
"447 30 LINE",
"387 20 LINE",
"387 0 LINE",
"617 0 LINE",
"617 20 LINE",
"547 30 LINE",
"547 384 LINE SMOOTH",
"547 482 OFFCURVE",
"485 527 OFFCURVE",
"392 527 CURVE SMOOTH",
"312 527 OFFCURVE",
"244 478 OFFCURVE",
"197 410 CURVE",
"197 518 LINE",
"97 518 LINE",
"27 518 LINE",
"27 498 LINE",
"97 488 LINE",
"97 30 LINE",
"27 20 LINE",
"27 0 LINE"
);
}
);
width = 635;
}
);
leftKerningGroup = n;
rightKerningGroup = n;
unicode = 006E;
},
{
glyphname = o;
layers = (
{
anchors = (
{
name = bottom;
position = "{302, 0}";
},
{
name = center;
position = "{302, 259}";
},
{
name = ogonek;
position = "{544, 10}";
},
{
name = top;
position = "{302, 518}";
},
{
name = topright;
position = "{508, 488}";
}
);
layerId = UUID0;
paths = (
{
closed = 1;
nodes = (
"445 -10 OFFCURVE",
"561 96 OFFCURVE",
"561 259 CURVE SMOOTH",
"561 422 OFFCURVE",
"445 527 OFFCURVE",
"302 527 CURVE SMOOTH",
"159 527 OFFCURVE",
"43 422 OFFCURVE",
"43 259 CURVE SMOOTH",
"43 96 OFFCURVE",
"159 -10 OFFCURVE",
"302 -10 CURVE SMOOTH"
);
},
{
closed = 1;
nodes = (
"199 12 OFFCURVE",
"153 96 OFFCURVE",
"153 209 CURVE SMOOTH",
"153 309 LINE SMOOTH",
"153 422 OFFCURVE",
"199 505 OFFCURVE",
"302 505 CURVE SMOOTH",
"405 505 OFFCURVE",
"451 422 OFFCURVE",
"451 309 CURVE SMOOTH",
"451 209 LINE SMOOTH",
"451 96 OFFCURVE",
"405 12 OFFCURVE",
"302 12 CURVE SMOOTH"
);
}
);
width = 604;
}
);
leftKerningGroup = o;
rightKerningGroup = o;
unicode = 006F;
},
{
glyphname = oslash;
layers = (
{
layerId = UUID0;
paths = (
{
closed = 1;
nodes = (
"170 -74 LINE",
"206 7 LINE",
"235 -4 OFFCURVE",
"268 -10 OFFCURVE",
"302 -10 CURVE SMOOTH",
"445 -10 OFFCURVE",
"561 96 OFFCURVE",
"561 259 CURVE SMOOTH",
"561 369 OFFCURVE",
"508 453 OFFCURVE",
"429 496 CURVE",
"475 601 LINE",
"435 601 LINE",
"395 511 LINE",
"366 521 OFFCURVE",
"334 527 OFFCURVE",
"302 527 CURVE SMOOTH",
"159 527 OFFCURVE",
"43 422 OFFCURVE",
"43 259 CURVE SMOOTH",
"43 149 OFFCURVE",
"95 65 OFFCURVE",
"173 22 CURVE",
"130 -74 LINE"
);
},
{
closed = 1;
nodes = (
"166 98 OFFCURVE",
"153 149 OFFCURVE",
"153 209 CURVE",
"153 309 LINE SMOOTH",
"153 422 OFFCURVE",
"199 505 OFFCURVE",
"302 505 CURVE SMOOTH",
"333 505 OFFCURVE",
"359 497 OFFCURVE",
"380 484 CURVE",
"193 62 LINE"
);
},
{
closed = 1;
nodes = (
"269 12 OFFCURVE",
"243 20 OFFCURVE",
"221 35 CURVE",
"409 458 LINE",
"438 423 OFFCURVE",
"451 370 OFFCURVE",
"451 309 CURVE SMOOTH",
"451 209 LINE SMOOTH",
"451 96 OFFCURVE",
"405 12 OFFCURVE",
"302 12 CURVE SMOOTH"
);
}
);
width = 604;
}
);
leftKerningGroup = o;
rightKerningGroup = o;
unicode = 00F8;
},
{
glyphname = oe;
layers = (
{
layerId = UUID0;
paths = (
{
closed = 1;
nodes = (
"385 -10 OFFCURVE",
"459 26 OFFCURVE",
"506 88 CURVE",
"554 26 OFFCURVE",
"629 -10 OFFCURVE",
"715 -10 CURVE SMOOTH",
"825 -10 OFFCURVE",
"906 53 OFFCURVE",
"925 152 CURVE",
"902 152 LINE",
"886 68 OFFCURVE",
"806 12 OFFCURVE",
"715 12 CURVE SMOOTH",
"612 12 OFFCURVE",
"562 96 OFFCURVE",
"562 209 CURVE SMOOTH",
"562 308 LINE",
"930 308 LINE",
"928 437 OFFCURVE",
"837 527 OFFCURVE",
"710 527 CURVE SMOOTH",
"626 527 OFFCURVE",
"553 492 OFFCURVE",
"506 430 CURVE",
"458 492 OFFCURVE",
"385 527 OFFCURVE",
"302 527 CURVE SMOOTH",
"159 527 OFFCURVE",
"43 422 OFFCURVE",
"43 259 CURVE SMOOTH",
"43 96 OFFCURVE",
"159 -10 OFFCURVE",
"302 -10 CURVE SMOOTH"
);
},
{
closed = 1;
nodes = (
"199 12 OFFCURVE",
"153 96 OFFCURVE",
"153 209 CURVE SMOOTH",
"153 309 LINE SMOOTH",
"153 422 OFFCURVE",
"199 505 OFFCURVE",
"302 505 CURVE SMOOTH",
"405 505 OFFCURVE",
"451 422 OFFCURVE",
"451 309 CURVE SMOOTH",
"451 209 LINE SMOOTH",
"451 96 OFFCURVE",
"405 12 OFFCURVE",
"302 12 CURVE SMOOTH"
);
},
{
closed = 1;
nodes = (
"569 433 OFFCURVE",
"616 505 OFFCURVE",
"709 505 CURVE SMOOTH",
"784 505 OFFCURVE",
"820 449 OFFCURVE",
"820 333 CURVE",
"563 333 LINE"
);
}
);
width = 970;
}
);
leftKerningGroup = o;
rightKerningGroup = e;
unicode = 0153;
},
{
glyphname = p;
layers = (
{
layerId = UUID0;
paths = (
{
closed = 1;
nodes = (
"285 -283 LINE",
"285 -263 LINE",
"191 -253 LINE",
"191 104 LINE",
"223 36 OFFCURVE",
"279 -10 OFFCURVE",
"360 -10 CURVE SMOOTH",
"503 -10 OFFCURVE",
"599 95 OFFCURVE",
"599 258 CURVE SMOOTH",
"599 421 OFFCURVE",
"503 527 OFFCURVE",
"360 527 CURVE SMOOTH",
"279 527 OFFCURVE",
"223 481 OFFCURVE",
"191 412 CURVE",
"191 517 LINE",
"21 517 LINE",
"21 497 LINE",
"91 487 LINE",
"91 -253 LINE",
"21 -263 LINE",
"21 -283 LINE"
);
},
{
closed = 1;
nodes = (
"257 15 OFFCURVE",
"191 105 OFFCURVE",
"191 208 CURVE SMOOTH",
"191 315 LINE",
"194 415 OFFCURVE",
"259 502 OFFCURVE",
"350 502 CURVE SMOOTH",
"453 502 OFFCURVE",
"489 421 OFFCURVE",
"489 308 CURVE SMOOTH",
"489 208 LINE SMOOTH",
"489 95 OFFCURVE",
"453 15 OFFCURVE",
"350 15 CURVE SMOOTH"
);
}
);
width = 642;
}
);
leftKerningGroup = n;
rightKerningGroup = p;
rightMetricsKey = o;
unicode = 0070;
},
{
glyphname = thorn;
layers = (
{
layerId = UUID0;
paths = (
{
closed = 1;
nodes = (
"271 -283 LINE",
"271 -263 LINE",
"177 -253 LINE",
"177 97 LINE",
"209 33 OFFCURVE",
"265 -10 OFFCURVE",
"343 -10 CURVE SMOOTH",
"486 -10 OFFCURVE",
"582 95 OFFCURVE",
"582 258 CURVE SMOOTH",
"582 421 OFFCURVE",
"486 527 OFFCURVE",
"343 527 CURVE SMOOTH",
"265 527 OFFCURVE",
"209 483 OFFCURVE",
"177 418 CURVE",
"177 800 LINE",
"7 800 LINE",
"7 780 LINE",
"77 770 LINE",
"77 -253 LINE",
"7 -263 LINE",
"7 -283 LINE"
);
},
{
closed = 1;
nodes = (
"251 15 OFFCURVE",
"191 84 OFFCURVE",
"177 170 CURVE",
"177 346 LINE",
"191 432 OFFCURVE",
"251 502 OFFCURVE",
"333 502 CURVE SMOOTH",
"436 502 OFFCURVE",
"472 421 OFFCURVE",
"472 308 CURVE SMOOTH",
"472 208 LINE SMOOTH",
"472 95 OFFCURVE",
"436 15 OFFCURVE",
"333 15 CURVE SMOOTH"
);
}
);
width = 626;
}
);
leftKerningGroup = h;
rightKerningGroup = p;
unicode = 00FE;
},
{
glyphname = q;
layers = (
{
layerId = UUID0;
paths = (
{
closed = 1;
nodes = (
"621 -283 LINE",
"621 -263 LINE",
"551 -253 LINE",
"551 487 LINE",
"621 497 LINE",
"621 517 LINE",
"451 517 LINE",
"451 412 LINE",
"419 481 OFFCURVE",
"362 527 OFFCURVE",
"282 527 CURVE SMOOTH",
"139 527 OFFCURVE",
"43 421 OFFCURVE",
"43 258 CURVE SMOOTH",
"43 95 OFFCURVE",
"139 -10 OFFCURVE",
"282 -10 CURVE SMOOTH",
"362 -10 OFFCURVE",
"419 36 OFFCURVE",
"451 104 CURVE",
"451 -253 LINE",
"332 -263 LINE",
"332 -283 LINE"
);
},
{
closed = 1;
nodes = (
"189 15 OFFCURVE",
"153 95 OFFCURVE",
"153 208 CURVE SMOOTH",
"153 308 LINE SMOOTH",
"153 421 OFFCURVE",
"189 502 OFFCURVE",
"292 502 CURVE SMOOTH",
"382 502 OFFCURVE",
"448 415 OFFCURVE",
"451 315 CURVE",
"451 200 LINE",
"448 101 OFFCURVE",
"382 15 OFFCURVE",
"292 15 CURVE SMOOTH"
);
}
);
width = 642;
}
);
leftKerningGroup = o;
leftMetricsKey = o;
rightKerningGroup = q;
unicode = 0071;
},
{
glyphname = r;
layers = (
{
layerId = UUID0;
paths = (
{
closed = 1;
nodes = (
"277 0 LINE",
"277 20 LINE",
"197 30 LINE",
"197 404 LINE",
"234 458 OFFCURVE",
"262 484 OFFCURVE",
"290 484 CURVE SMOOTH",
"316 484 OFFCURVE",
"332 468 OFFCURVE",
"332 446 CURVE SMOOTH",
"332 437 OFFCURVE",
"329 426 OFFCURVE",
"321 416 CURVE",
"334 400 OFFCURVE",
"353 391 OFFCURVE",
"373 391 CURVE SMOOTH",
"412 391 OFFCURVE",
"435 418 OFFCURVE",
"435 452 CURVE SMOOTH",
"435 503 OFFCURVE",
"385 527 OFFCURVE",
"339 527 CURVE SMOOTH",
"285 527 OFFCURVE",
"237 496 OFFCURVE",
"197 441 CURVE",
"197 518 LINE",
"97 518 LINE",
"27 518 LINE",
"27 498 LINE",
"97 488 LINE",
"97 30 LINE",
"27 20 LINE",
"27 0 LINE"
);
}
);
width = 442;
}
);
leftKerningGroup = n;
rightKerningGroup = r;
unicode = 0072;
},
{
glyphname = s;
layers = (
{
layerId = UUID0;
paths = (
{
closed = 1;
nodes = (
"374 -10 OFFCURVE",
"426 71 OFFCURVE",
"426 159 CURVE SMOOTH",
"426 229 OFFCURVE",
"391 269 OFFCURVE",
"327 292 CURVE SMOOTH",
"187 342 LINE SMOOTH",
"128 363 OFFCURVE",
"105 377 OFFCURVE",
"105 411 CURVE SMOOTH",
"105 456 OFFCURVE",
"152 505 OFFCURVE",
"244 505 CURVE SMOOTH",
"316 505 OFFCURVE",
"344 475 OFFCURVE",
"344 441 CURVE SMOOTH",
"344 420 OFFCURVE",
"339 406 OFFCURVE",
"321 392 CURVE",
"321 365 OFFCURVE",
"342 349 OFFCURVE",
"369 349 CURVE SMOOTH",
"397 349 OFFCURVE",
"416 370 OFFCURVE",
"416 402 CURVE SMOOTH",
"416 487 OFFCURVE",
"331 527 OFFCURVE",
"244 527 CURVE SMOOTH",
"126 527 OFFCURVE",
"60 456 OFFCURVE",
"60 365 CURVE SMOOTH",
"60 303 OFFCURVE",
"94 266 OFFCURVE",
"149 246 CURVE SMOOTH",
"300 191 LINE SMOOTH",
"361 169 OFFCURVE",
"383 156 OFFCURVE",
"383 117 CURVE SMOOTH",
"383 51 OFFCURVE",
"322 12 OFFCURVE",
"240 12 CURVE SMOOTH",
"174 12 OFFCURVE",
"137 51 OFFCURVE",
"137 89 CURVE SMOOTH",
"137 106 OFFCURVE",
"145 125 OFFCURVE",
"159 140 CURVE",
"151 164 OFFCURVE",
"131 178 OFFCURVE",
"105 178 CURVE SMOOTH",
"71 178 OFFCURVE",
"48 155 OFFCURVE",
"48 116 CURVE SMOOTH",
"48 39 OFFCURVE",
"134 -10 OFFCURVE",
"240 -10 CURVE SMOOTH"
);
}
);
width = 476;
},
{
associatedMasterId = UUID0;
layerId = "34608E52-3594-400E-9BB3-772E8C5EE257";
name = old;
paths = (
{
closed = 1;
nodes = (
"377 -10 OFFCURVE",
"429 75 OFFCURVE",
"429 149 CURVE SMOOTH",
"429 226 OFFCURVE",
"398 273 OFFCURVE",
"321 297 CURVE SMOOTH",
"162 346 LINE SMOOTH",
"110 363 OFFCURVE",
"96 379 OFFCURVE",
"96 420 CURVE SMOOTH",
"96 466 OFFCURVE",
"146 508 OFFCURVE",
"237 508 CURVE SMOOTH",
"303 508 OFFCURVE",
"328 482 OFFCURVE",
"328 445 CURVE SMOOTH",
"328 428 OFFCURVE",
"323 417 OFFCURVE",
"307 406 CURVE",
"307 379 OFFCURVE",
"328 363 OFFCURVE",
"355 363 CURVE SMOOTH",
"389 363 OFFCURVE",
"412 390 OFFCURVE",
"412 424 CURVE SMOOTH",
"412 484 OFFCURVE",
"347 527 OFFCURVE",
"237 527 CURVE SMOOTH",
"122 527 OFFCURVE",
"49 460 OFFCURVE",
"49 374 CURVE SMOOTH",
"49 300 OFFCURVE",
"79 259 OFFCURVE",
"139 242 CURVE SMOOTH",
"268 201 LINE SMOOTH",
"337 179 OFFCURVE",
"386 162 OFFCURVE",
"386 103 CURVE SMOOTH",
"386 55 OFFCURVE",
"328 9 OFFCURVE",
"243 9 CURVE SMOOTH",
"180 9 OFFCURVE",
"143 36 OFFCURVE",
"143 88 CURVE SMOOTH",
"143 104 OFFCURVE",
"150 119 OFFCURVE",
"160 130 CURVE",
"152 156 OFFCURVE",
"129 172 OFFCURVE",
"105 172 CURVE SMOOTH",
"65 172 OFFCURVE",
"41 137 OFFCURVE",
"41 101 CURVE SMOOTH",
"41 29 OFFCURVE",
"107 -10 OFFCURVE",
"243 -10 CURVE SMOOTH"
);
}
);
width = 472;
},
{
associatedMasterId = UUID0;
guideLines = (
{
angle = -18.2039;
position = "{227, 217}";
}
);
layerId = "0E1619B3-FC76-48C2-992D-2285CA69B099";
name = "Sep 9 16, 12:22";
paths = (
{
closed = 1;
nodes = (
"182 12 OFFCURVE",
"145 38 OFFCURVE",
"145 88 CURVE SMOOTH",
"145 104 OFFCURVE",
"152 119 OFFCURVE",
"162 130 CURVE",
"154 156 OFFCURVE",
"131 172 OFFCURVE",
"107 172 CURVE SMOOTH",
"67 172 OFFCURVE",
"43 137 OFFCURVE",
"43 101 CURVE SMOOTH",
"43 29 OFFCURVE",
"109 -10 OFFCURVE",
"245 -10 CURVE SMOOTH",
"379 -10 OFFCURVE",
"431 75 OFFCURVE",
"431 149 CURVE SMOOTH",
"431 226 OFFCURVE",
"398 272 OFFCURVE",
"323 297 CURVE SMOOTH",
"174 346 LINE SMOOTH",
"124 362 OFFCURVE",
"108 382 OFFCURVE",
"108 420 CURVE SMOOTH",
"108 463 OFFCURVE",
"157 505 OFFCURVE",
"249 505 CURVE SMOOTH",
"315 505 OFFCURVE",
"340 480 OFFCURVE",
"340 445 CURVE SMOOTH",
"340 428 OFFCURVE",
"335 417 OFFCURVE",
"319 406 CURVE",
"319 379 OFFCURVE",
"340 363 OFFCURVE",
"367 363 CURVE SMOOTH",
"401 363 OFFCURVE",
"424 390 OFFCURVE",
"424 424 CURVE SMOOTH",
"424 484 OFFCURVE",
"359 527 OFFCURVE",
"249 527 CURVE SMOOTH",
"133 527 OFFCURVE",
"60 460 OFFCURVE",
"60 374 CURVE SMOOTH",
"60 302 OFFCURVE",
"93 261 OFFCURVE",
"151 242 CURVE SMOOTH",
"305 191 LINE SMOOTH",
"367 169 OFFCURVE",
"388 153 OFFCURVE",
"388 107 CURVE SMOOTH",
"388 57 OFFCURVE",
"337 12 OFFCURVE",
"245 12 CURVE SMOOTH"
);
}
);
width = 476;
},
{
associatedMasterId = UUID0;
guideLines = (
{
angle = -18.2039;
position = "{227, 217}";
}
);
layerId = "3030453B-18D9-4F7E-A525-85147D09FFFC";
name = "Sep 9 16, 14:23";
paths = (
{
closed = 1;
nodes = (
"179 12 OFFCURVE",
"149 47 OFFCURVE",
"149 85 CURVE SMOOTH",
"149 104 OFFCURVE",
"157 124 OFFCURVE",
"172 140 CURVE",
"164 166 OFFCURVE",
"141 182 OFFCURVE",
"117 182 CURVE SMOOTH",
"77 182 OFFCURVE",
"53 157 OFFCURVE",
"53 115 CURVE SMOOTH",
"53 38 OFFCURVE",
"139 -10 OFFCURVE",
"245 -10 CURVE SMOOTH",
"379 -10 OFFCURVE",
"431 75 OFFCURVE",
"431 149 CURVE SMOOTH",
"431 221 OFFCURVE",
"396 272 OFFCURVE",
"314 300 CURVE SMOOTH",
"192 342 LINE SMOOTH",
"131 363 OFFCURVE",
"110 382 OFFCURVE",
"110 415 CURVE SMOOTH",
"110 457 OFFCURVE",
"157 505 OFFCURVE",
"249 505 CURVE SMOOTH",
"323 505 OFFCURVE",
"344 474 OFFCURVE",
"344 438 CURVE SMOOTH",
"344 417 OFFCURVE",
"339 403 OFFCURVE",
"321 389 CURVE",
"321 362 OFFCURVE",
"342 346 OFFCURVE",
"369 346 CURVE SMOOTH",
"397 346 OFFCURVE",
"416 367 OFFCURVE",
"416 399 CURVE SMOOTH",
"416 486 OFFCURVE",
"336 527 OFFCURVE",
"256 527 CURVE SMOOTH",
"134 527 OFFCURVE",
"65 460 OFFCURVE",
"65 374 CURVE SMOOTH",
"65 302 OFFCURVE",
"113 259 OFFCURVE",
"179 236 CURVE SMOOTH",
"305 191 LINE SMOOTH",
"366 169 OFFCURVE",
"388 153 OFFCURVE",
"388 107 CURVE SMOOTH",
"388 47 OFFCURVE",
"327 12 OFFCURVE",
"245 12 CURVE SMOOTH"
);
}
);
visible = 1;
width = 476;
}
);
leftKerningGroup = s;
rightKerningGroup = s;
unicode = 0073;
},
{
glyphname = germandbls;
layers = (
{
layerId = UUID0;
paths = (
{
closed = 1;
nodes = (
"576 -10 OFFCURVE",
"622 69 OFFCURVE",
"622 159 CURVE SMOOTH",
"622 241 OFFCURVE",
"584 296 OFFCURVE",
"501 317 CURVE SMOOTH",
"399 343 LINE SMOOTH",
"350 356 OFFCURVE",
"293 374 OFFCURVE",
"293 427 CURVE SMOOTH",
"293 463 OFFCURVE",
"322 485 OFFCURVE",
"367 507 CURVE SMOOTH",
"466 555 OFFCURVE",
"538 576 OFFCURVE",
"538 672 CURVE SMOOTH",
"538 760 OFFCURVE",
"469 820 OFFCURVE",
"327 820 CURVE SMOOTH",
"168 820 OFFCURVE",
"91 735 OFFCURVE",
"91 562 CURVE SMOOTH",
"91 30 LINE",
"21 20 LINE",
"21 0 LINE",
"191 0 LINE",
"191 605 LINE SMOOTH",
"191 744 OFFCURVE",
"240 802 OFFCURVE",
"327 802 CURVE SMOOTH",
"399 802 OFFCURVE",
"438 758 OFFCURVE",
"438 672 CURVE SMOOTH",
"438 590 OFFCURVE",
"424 557 OFFCURVE",
"357 525 CURVE SMOOTH",
"309 502 OFFCURVE",
"256 472 OFFCURVE",
"256 394 CURVE SMOOTH",
"256 304 OFFCURVE",
"304 260 OFFCURVE",
"388 236 CURVE SMOOTH",
"478 211 LINE SMOOTH",
"539 194 OFFCURVE",
"587 180 OFFCURVE",
"587 117 CURVE SMOOTH",
"587 57 OFFCURVE",
"523 9 OFFCURVE",
"438 9 CURVE SMOOTH",
"387 9 OFFCURVE",
"353 28 OFFCURVE",
"353 63 CURVE SMOOTH",
"353 80 OFFCURVE",
"360 94 OFFCURVE",
"370 106 CURVE",
"362 131 OFFCURVE",
"339 147 OFFCURVE",
"315 147 CURVE SMOOTH",
"275 147 OFFCURVE",
"251 120 OFFCURVE",
"251 84 CURVE SMOOTH",
"251 23 OFFCURVE",
"313 -10 OFFCURVE",
"438 -10 CURVE SMOOTH"
);
}
);
width = 648;
}
);
leftKerningGroup = h;
rightKerningGroup = germandbls;
unicode = 00DF;
},
{
glyphname = t;
layers = (
{
layerId = UUID0;
paths = (
{
closed = 1;
nodes = (
"280 -10 OFFCURVE",
"316 7 OFFCURVE",
"342 30 CURVE",
"329 46 LINE",
"329 46 OFFCURVE",
"302 24 OFFCURVE",
"265 24 CURVE SMOOTH",
"205 24 OFFCURVE",
"189 72 OFFCURVE",
"189 130 CURVE SMOOTH",
"189 488 LINE",
"319 498 LINE",
"319 518 LINE",
"189 518 LINE",
"189 626 LINE",
"89 601 LINE",
"89 518 LINE",
"18 518 LINE",
"18 498 LINE",
"89 488 LINE",
"89 128 LINE SMOOTH",
"89 26 OFFCURVE",
"152 -10 OFFCURVE",
"234 -10 CURVE SMOOTH"
);
}
);
width = 347;
}
);
leftKerningGroup = t;
rightKerningGroup = t;
unicode = 0074;
},
{
glyphname = u;
layers = (
{
anchors = (
{
name = bottom;
position = "{316, 0}";
},
{
name = ogonek;
position = "{569, 10}";
},
{
name = top;
position = "{316, 518}";
},
{
name = topright;
position = "{567, 487}";
}
);
layerId = UUID0;
paths = (
{
closed = 1;
nodes = (
"322 -10 OFFCURVE",
"390 32 OFFCURVE",
"437 96 CURVE",
"437 0 LINE",
"607 0 LINE",
"607 20 LINE",
"537 30 LINE",
"537 518 LINE",
"367 518 LINE",
"367 498 LINE",
"437 488 LINE",
"437 132 LINE",
"398 79 OFFCURVE",
"339 26 OFFCURVE",
"273 26 CURVE SMOOTH",
"213 26 OFFCURVE",
"187 69 OFFCURVE",
"187 135 CURVE SMOOTH",
"187 518 LINE",
"17 518 LINE",
"17 498 LINE",
"87 488 LINE",
"87 133 LINE SMOOTH",
"87 35 OFFCURVE",
"149 -10 OFFCURVE",
"242 -10 CURVE SMOOTH"
);
}
);
width = 632;
}
);
leftKerningGroup = u;
rightKerningGroup = u;
unicode = 0075;
},
{
glyphname = v;
layers = (
{
layerId = UUID0;
paths = (
{
closed = 1;
nodes = (
"293 -20 LINE",
"477 473 LINE",
"540 497 LINE",
"540 517 LINE",
"361 517 LINE",
"361 497 LINE",
"449 472 LINE",
"314 109 LINE",
"163 485 LINE",
"235 498 LINE",
"235 518 LINE",
"-14 518 LINE",
"-14 498 LINE",
"51 488 LINE",
"265 -20 LINE"
);
}
);
width = 530;
}
);
leftKerningGroup = v;
rightKerningGroup = v;
unicode = 0076;
},
{
glyphname = w;
layers = (
{
layerId = UUID0;
paths = (
{
closed = 1;
nodes = (
"293 -20 LINE",
"417 318 LINE",
"558 -20 LINE",
"586 -20 LINE",
"770 473 LINE",
"832 497 LINE",
"832 517 LINE",
"658 517 LINE",
"658 497 LINE",
"742 471 LINE",
"607 109 LINE",
"456 485 LINE",
"528 498 LINE",
"528 518 LINE",
"292 518 LINE",
"292 498 LINE",
"344 488 LINE",
"403 352 LINE",
"314 109 LINE",
"163 485 LINE",
"210 498 LINE",
"210 518 LINE",
"-14 518 LINE",
"-14 498 LINE",
"51 488 LINE",
"265 -20 LINE"
);
}
);
width = 822;
}
);
leftKerningGroup = v;
rightKerningGroup = v;
unicode = 0077;
},
{
glyphname = x;
layers = (
{
layerId = UUID0;
paths = (
{
closed = 1;
nodes = (
"580 0 LINE",
"580 20 LINE",
"516 29 LINE",
"182 487 LINE",
"245 498 LINE",
"245 518 LINE",
"1 518 LINE",
"1 498 LINE",
"62 489 LINE",
"396 30 LINE",
"336 20 LINE",
"336 0 LINE"
);
},
{
closed = 1;
nodes = (
"192 0 LINE",
"192 20 LINE",
"111 43 LINE",
"268 231 LINE",
"251 253 LINE",
"80 45 LINE",
"13 20 LINE",
"13 0 LINE"
);
},
{
closed = 1;
nodes = (
"473 471 LINE",
"546 497 LINE",
"546 517 LINE",
"362 517 LINE",
"362 497 LINE",
"441 474 LINE",
"298 305 LINE",
"314 282 LINE"
);
}
);
width = 577;
},
{
associatedMasterId = UUID0;
layerId = "35B0F5AA-A48B-4376-9D73-0ABE2F0184DC";
name = old;
paths = (
{
closed = 1;
nodes = (
"13 0 LINE",
"192 0 LINE",
"192 20 LINE",
"111 43 LINE",
"266 223 LINE",
"415 30 LINE",
"356 20 LINE",
"356 0 LINE",
"600 0 LINE",
"600 20 LINE",
"537 29 LINE",
"335 290 LINE",
"493 471 LINE",
"566 497 LINE",
"566 517 LINE",
"382 517 LINE",
"382 497 LINE",
"461 474 LINE",
"319 311 LINE",
"183 487 LINE",
"245 498 LINE",
"245 518 LINE",
"1 518 LINE",
"1 498 LINE",
"61 489 LINE",
"249 245 LINE",
"80 45 LINE",
"13 20 LINE"
);
}
);
visible = 1;
width = 597;
}
);
leftKerningGroup = x;
rightKerningGroup = x;
unicode = 0078;
},
{
glyphname = y;
layers = (
{
anchors = (
{
name = bottom;
position = "{388, 0}";
},
{
name = top;
position = "{287, 518}";
}
);
layerId = UUID0;
paths = (
{
closed = 1;
nodes = (
"195 -292 OFFCURVE",
"227 -252 OFFCURVE",
"253 -179 CURVE",
"477 472 LINE",
"545 497 LINE",
"545 517 LINE",
"365 517 LINE",
"365 497 LINE",
"451 472 LINE",
"332 128 LINE",
"165 485 LINE",
"235 497 LINE",
"235 517 LINE",
"-14 517 LINE",
"-14 497 LINE",
"53 487 LINE",
"285 -7 LINE",
"225 -179 LINE SMOOTH",
"205 -236 OFFCURVE",
"181 -251 OFFCURVE",
"152 -251 CURVE SMOOTH",
"125 -251 OFFCURVE",
"106 -232 OFFCURVE",
"106 -205 CURVE SMOOTH",
"106 -189 OFFCURVE",
"111 -175 OFFCURVE",
"121 -161 CURVE",
"109 -139 OFFCURVE",
"87 -129 OFFCURVE",
"63 -129 CURVE SMOOTH",
"30 -129 OFFCURVE",
"2 -155 OFFCURVE",
"2 -196 CURVE SMOOTH",
"2 -255 OFFCURVE",
"50 -292 OFFCURVE",
"118 -292 CURVE SMOOTH"
);
}
);
width = 535;
}
);
leftKerningGroup = y;
rightKerningGroup = y;
unicode = 0079;
},
{
glyphname = z;
layers = (
{
guideLines = (
{
position = "{35, 328}";
},
{
angle = 85.8058;
position = "{52, 443}";
}
);
layerId = UUID0;
paths = (
{
closed = 1;
nodes = (
"465 0 LINE",
"484 191 LINE",
"458 191 LINE",
"370 24 LINE",
"156 24 LINE",
"466 493 LINE",
"466 518 LINE",
"57 518 LINE",
"44 338 LINE",
"69 338 LINE",
"151 493 LINE",
"349 493 LINE",
"39 24 LINE",
"39 0 LINE"
);
}
);
width = 517;
},
{
associatedMasterId = UUID0;
layerId = "642FEF36-0DC2-45A0-B325-E49B3ACB678A";
name = old;
paths = (
{
closed = 1;
nodes = (
"77 368 LINE",
"137 493 LINE",
"349 493 LINE",
"39 24 LINE",
"39 0 LINE",
"465 0 LINE",
"477 161 LINE",
"443 161 LINE",
"377 24 LINE",
"156 24 LINE",
"466 493 LINE",
"466 518 LINE",
"57 518 LINE",
"46 368 LINE"
);
}
);
width = 517;
},
{
associatedMasterId = UUID0;
layerId = "6C4955F2-040B-450D-9C41-A993825F6C6F";
name = old2;
paths = (
{
closed = 1;
nodes = (
"156 24 LINE",
"466 493 LINE",
"466 518 LINE",
"57 518 LINE",
"46 368 LINE",
"69 368 LINE",
"129 493 LINE",
"349 493 LINE",
"39 24 LINE",
"39 0 LINE",
"465 0 LINE",
"481 161 LINE",
"456 161 LINE",
"391 24 LINE"
);
}
);
visible = 1;
width = 517;
}
);
leftKerningGroup = z;
rightKerningGroup = z;
unicode = 007A;
},
{
glyphname = ordfeminine;
layers = (
{
layerId = UUID0;
paths = (
{
closed = 1;
nodes = (
"232 371 OFFCURVE",
"283 395 OFFCURVE",
"312 436 CURVE",
"323 390 OFFCURVE",
"362 371 OFFCURVE",
"399 371 CURVE SMOOTH",
"445 371 OFFCURVE",
"476 393 OFFCURVE",
"476 432 CURVE",
"449 432 LINE",
"449 416 OFFCURVE",
"438 407 OFFCURVE",
"425 407 CURVE SMOOTH",
"407 407 OFFCURVE",
"399 417 OFFCURVE",
"399 433 CURVE SMOOTH",
"399 680 LINE SMOOTH",
"399 773 OFFCURVE",
"325 805 OFFCURVE",
"231 805 CURVE SMOOTH",
"145 805 OFFCURVE",
"69 768 OFFCURVE",
"69 698 CURVE SMOOTH",
"69 668 OFFCURVE",
"92 642 OFFCURVE",
"123 642 CURVE SMOOTH",
"154 642 OFFCURVE",
"181 668 OFFCURVE",
"181 698 CURVE",
"164 704 OFFCURVE",
"156 714 OFFCURVE",
"156 732 CURVE SMOOTH",
"156 760 OFFCURVE",
"187 777 OFFCURVE",
"231 777 CURVE SMOOTH",
"283 777 OFFCURVE",
"309 758 OFFCURVE",
"309 696 CURVE SMOOTH",
"309 624 LINE",
"284 624 LINE SMOOTH",
"170 624 OFFCURVE",
"43 590 OFFCURVE",
"43 478 CURVE SMOOTH",
"43 404 OFFCURVE",
"98 371 OFFCURVE",
"168 371 CURVE SMOOTH"
);
},
{
closed = 1;
nodes = (
"161 409 OFFCURVE",
"140 435 OFFCURVE",
"140 478 CURVE SMOOTH",
"140 555 OFFCURVE",
"207 595 OFFCURVE",
"284 595 CURVE SMOOTH",
"309 595 LINE",
"309 517 LINE",
"302 448 OFFCURVE",
"251 409 OFFCURVE",
"202 409 CURVE SMOOTH"
);
}
);
width = 502;
}
);
leftKerningGroup = ordfeminine;
rightKerningGroup = ordfeminine;
unicode = 00AA;
},
{
glyphname = ordmasculine;
layers = (
{
layerId = UUID0;
paths = (
{
closed = 1;
nodes = (
"372 371 OFFCURVE",
"467 456 OFFCURVE",
"467 587 CURVE SMOOTH",
"467 720 OFFCURVE",
"372 805 OFFCURVE",
"252 805 CURVE SMOOTH",
"131 805 OFFCURVE",
"38 720 OFFCURVE",
"38 587 CURVE SMOOTH",
"38 456 OFFCURVE",
"131 371 OFFCURVE",
"252 371 CURVE SMOOTH"
);
},
{
closed = 1;
nodes = (
"169 398 OFFCURVE",
"136 460 OFFCURVE",
"136 547 CURVE SMOOTH",
"136 628 LINE SMOOTH",
"136 715 OFFCURVE",
"169 777 OFFCURVE",
"252 777 CURVE SMOOTH",
"335 777 OFFCURVE",
"368 715 OFFCURVE",
"368 628 CURVE SMOOTH",
"368 547 LINE SMOOTH",
"368 460 OFFCURVE",
"335 398 OFFCURVE",
"252 398 CURVE SMOOTH"
);
}
);
width = 505;
}
);
leftKerningGroup = ordfeminine;
rightKerningGroup = ordfeminine;
unicode = 00BA;
},
{
glyphname = "Be-cy";
layers = (
{
layerId = UUID0;
paths = (
{
closed = 1;
nodes = (
"384 0 LINE SMOOTH",
"579 0 OFFCURVE",
"676 72 OFFCURVE",
"676 225 CURVE SMOOTH",
"676 378 OFFCURVE",
"579 450 OFFCURVE",
"384 450 CURVE SMOOTH",
"242 450 LINE",
"242 775 LINE",
"507 775 LINE",
"582 587 LINE",
"612 587 LINE",
"612 800 LINE",
"40 800 LINE",
"40 779 LINE",
"132 764 LINE",
"132 36 LINE",
"40 22 LINE",
"40 0 LINE"
);
},
{
closed = 1;
nodes = (
"242 426 LINE",
"370 426 LINE SMOOTH",
"493 426 OFFCURVE",
"555 369 OFFCURVE",
"555 245 CURVE SMOOTH",
"555 205 LINE SMOOTH",
"555 82 OFFCURVE",
"493 25 OFFCURVE",
"370 25 CURVE SMOOTH",
"242 25 LINE"
);
}
);
width = 723;
}
);
leftKerningGroup = H;
leftMetricsKey = H;
rightKerningGroup = "Be-cy";
unicode = 0411;
},
{
glyphname = "Ge-cy";
layers = (
{
anchors = (
{
name = bottomright;
position = "{334, 0}";
},
{
name = top;
position = "{334, 800}";
}
);
layerId = UUID0;
paths = (
{
closed = 1;
nodes = (
"334 0 LINE",
"334 21 LINE",
"242 36 LINE",
"242 775 LINE",
"528 775 LINE",
"603 577 LINE",
"633 577 LINE",
"633 800 LINE",
"40 800 LINE",
"40 775 LINE",
"132 760 LINE",
"132 36 LINE",
"40 21 LINE",
"40 0 LINE"
);
}
);
width = 654;
}
);
leftKerningGroup = H;
rightKerningGroup = "Ge-cy";
unicode = 0413;
},
{
glyphname = "Gheupturn-cy";
layers = (
{
layerId = UUID0;
paths = (
{
closed = 1;
nodes = (
"334 0 LINE",
"334 21 LINE",
"242 36 LINE",
"242 775 LINE",
"633 775 LINE",
"633 998 LINE",
"603 998 LINE",
"528 800 LINE",
"40 800 LINE",
"40 775 LINE",
"132 760 LINE",
"132 36 LINE",
"40 21 LINE",
"40 0 LINE"
);
}
);
width = 654;
}
);
leftKerningGroup = H;
leftMetricsKey = "Ge-cy";
rightKerningGroup = "Ge-cy";
rightMetricsKey = "Ge-cy";
unicode = 0490;
},
{
glyphname = "De-cy";
layers = (
{
layerId = UUID0;
paths = (
{
closed = 1;
nodes = (
"-15 -220 LINE",
"89 0 LINE",
"563 0 LINE",
"667 -220 LINE",
"697 -220 LINE",
"682 25 LINE",
"596 25 LINE",
"596 764 LINE",
"689 778 LINE",
"689 800 LINE",
"104 800 LINE",
"104 777 LINE",
"210 733 LINE",
"197 518 LINE SMOOTH",
"184 297 OFFCURVE",
"166 214 OFFCURVE",
"131 141 CURVE SMOOTH",
"90 55 OFFCURVE",
"44 25 OFFCURVE",
"3 25 CURVE SMOOTH",
"-30 25 LINE",
"-45 -220 LINE"
);
},
{
closed = 1;
nodes = (
"78 25 OFFCURVE",
"121 51 OFFCURVE",
"157 131 CURVE SMOOTH",
"189 203 OFFCURVE",
"209 284 OFFCURVE",
"224 518 CURVE SMOOTH",
"240 775 LINE",
"486 775 LINE",
"486 25 LINE",
"78 25 LINE"
);
}
);
width = 737;
},
{
associatedMasterId = UUID0;
background = {
components = (
{
name = H;
transform = "{1, 0, 0, 1, -95, 0}";
}
);
};
layerId = "9E38D5CC-1E32-48B8-9A38-B56D58105990";
name = corrected;
paths = (
{
closed = 1;
nodes = (
"-20 25 LINE",
"-35 -220 LINE",
"-5 -220 LINE",
"99 0 LINE",
"603 0 LINE",
"707 -220 LINE",
"737 -220 LINE",
"722 25 LINE",
"636 25 LINE",
"636 764 LINE",
"729 778 LINE",
"729 800 LINE",
"107 800 LINE",
"107 777 LINE",
"213 733 LINE",
"180 318 LINE SMOOTH",
"164 111 OFFCURVE",
"93 25 OFFCURVE",
"11 25 CURVE SMOOTH"
);
},
{
closed = 1;
nodes = (
"250 775 LINE",
"526 775 LINE",
"526 25 LINE",
"84 25 LINE",
"151 67 OFFCURVE",
"200 133 OFFCURVE",
"214 317 CURVE SMOOTH"
);
}
);
width = 775;
},
{
associatedMasterId = UUID0;
background = {
paths = (
{
closed = 1;
nodes = (
"10 25 LINE",
"-5 -220 LINE",
"25 -220 LINE",
"129 0 LINE",
"603 0 LINE",
"707 -220 LINE",
"737 -220 LINE",
"722 25 LINE",
"636 25 LINE",
"636 764 LINE",
"729 778 LINE",
"729 800 LINE",
"157 800 LINE",
"157 777 LINE",
"263 733 LINE",
"210 318 LINE SMOOTH",
"184 110 OFFCURVE",
"123 25 OFFCURVE",
"41 25 CURVE SMOOTH"
);
},
{
closed = 1;
nodes = (
"300 775 LINE",
"526 775 LINE",
"526 25 LINE",
"114 25 LINE",
"181 70 OFFCURVE",
"224 154 OFFCURVE",
"244 317 CURVE SMOOTH"
);
}
);
};
layerId = "4DEEED32-3FD0-4F97-A1C2-AC68385F597F";
name = old;
paths = (
{
closed = 1;
nodes = (
"10 25 LINE",
"-5 -220 LINE",
"25 -220 LINE",
"129 0 LINE",
"603 0 LINE",
"707 -220 LINE",
"737 -220 LINE",
"722 25 LINE",
"636 25 LINE",
"636 764 LINE",
"729 778 LINE",
"729 800 LINE",
"87 800 LINE",
"87 777 LINE",
"193 733 LINE",
"193 339 LINE SMOOTH",
"193 126 OFFCURVE",
"123 25 OFFCURVE",
"41 25 CURVE SMOOTH"
);
},
{
closed = 1;
nodes = (
"218 775 LINE",
"526 775 LINE",
"526 25 LINE",
"114 25 LINE",
"181 70 OFFCURVE",
"218 180 OFFCURVE",
"218 340 CURVE"
);
}
);
width = 775;
},
{
associatedMasterId = UUID0;
guideLines = (
{
angle = 87.5691;
position = "{206, 627}";
}
);
layerId = "868B8B52-7E21-4FF7-8287-A1C6665D08E4";
name = "Sep 9 16, 12:40";
paths = (
{
closed = 1;
nodes = (
"-22 25 LINE",
"-37 -220 LINE",
"-7 -220 LINE",
"97 0 LINE",
"601 0 LINE",
"705 -220 LINE",
"735 -220 LINE",
"720 25 LINE",
"634 25 LINE",
"634 764 LINE",
"727 778 LINE",
"727 800 LINE",
"112 800 LINE",
"112 777 LINE",
"218 733 LINE",
"205 518 LINE SMOOTH",
"193 317 OFFCURVE",
"175 212 OFFCURVE",
"144 143 CURVE SMOOTH",
"104 56 OFFCURVE",
"61 25 OFFCURVE",
"21 25 CURVE SMOOTH"
);
},
{
closed = 1;
nodes = (
"248 775 LINE",
"524 775 LINE",
"524 25 LINE",
"96 25 LINE",
"96 25 OFFCURVE",
"134 53 OFFCURVE",
"169 134 CURVE SMOOTH",
"198 202 OFFCURVE",
"219 304 OFFCURVE",
"232 518 CURVE SMOOTH"
);
}
);
width = 775;
},
{
associatedMasterId = UUID0;
background = {
paths = (
{
closed = 1;
nodes = (
"193 777 LINE",
"299 733 LINE",
"292 571 LINE SMOOTH",
"274 166 OFFCURVE",
"228 41 OFFCURVE",
"153 41 CURVE SMOOTH",
"135 41 OFFCURVE",
"125 54 OFFCURVE",
"125 69 CURVE SMOOTH",
"125 80 OFFCURVE",
"131 91 OFFCURVE",
"143 99 CURVE",
"143 99 OFFCURVE",
"127 131 OFFCURVE",
"88 131 CURVE SMOOTH",
"45 131 OFFCURVE",
"22 100 OFFCURVE",
"22 68 CURVE SMOOTH",
"22 30 OFFCURVE",
"45 -10 OFFCURVE",
"115 -10 CURVE SMOOTH",
"271 -10 OFFCURVE",
"301 164 OFFCURVE",
"319 570 CURVE SMOOTH",
"328 775 LINE",
"548 775 LINE",
"548 36 LINE",
"455 21 LINE",
"455 0 LINE",
"751 0 LINE",
"751 21 LINE",
"658 36 LINE",
"658 764 LINE",
"751 778 LINE",
"751 800 LINE",
"193 800 LINE"
);
}
);
};
guideLines = (
{
angle = 87.5691;
position = "{228, 627}";
}
);
layerId = "D8DABC7F-8776-4291-9D86-C88AF5E71C29";
name = "Sep 9 16, 14:45";
paths = (
{
closed = 1;
nodes = (
"30 25 LINE",
"15 -220 LINE",
"45 -220 LINE",
"149 0 LINE",
"623 0 LINE",
"727 -220 LINE",
"757 -220 LINE",
"742 25 LINE",
"656 25 LINE",
"656 764 LINE",
"749 778 LINE",
"749 800 LINE",
"164 800 LINE",
"164 777 LINE",
"270 733 LINE",
"257 518 LINE SMOOTH",
"245 317 OFFCURVE",
"227 212 OFFCURVE",
"196 143 CURVE SMOOTH",
"157 56 OFFCURVE",
"113 25 OFFCURVE",
"73 25 CURVE SMOOTH"
);
},
{
closed = 1;
nodes = (
"300 775 LINE",
"546 775 LINE",
"546 25 LINE",
"148 25 LINE",
"148 25 OFFCURVE",
"186 53 OFFCURVE",
"221 134 CURVE SMOOTH",
"250 202 OFFCURVE",
"271 304 OFFCURVE",
"284 518 CURVE SMOOTH"
);
}
);
visible = 1;
width = 797;
}
);
leftKerningGroup = "De-cy";
rightKerningGroup = "Tse-cy";
rightMetricsKey = H;
unicode = 0414;
},
{
glyphname = "Zhe-cy";
layers = (
{
anchors = (
{
name = top;
position = "{538, 800}";
}
);
layerId = UUID0;
paths = (
{
closed = 1;
nodes = (
"192 -10 OFFCURVE",
"226 22 OFFCURVE",
"239 109 CURVE SMOOTH",
"263 278 LINE SMOOTH",
"276 370 OFFCURVE",
"312 413 OFFCURVE",
"412 413 CURVE SMOOTH",
"486 413 LINE",
"486 36 LINE",
"394 21 LINE",
"394 0 LINE",
"688 0 LINE",
"688 21 LINE",
"596 36 LINE",
"596 413 LINE",
"670 413 LINE SMOOTH",
"770 413 OFFCURVE",
"806 370 OFFCURVE",
"819 278 CURVE SMOOTH",
"843 109 LINE SMOOTH",
"856 22 OFFCURVE",
"890 -10 OFFCURVE",
"965 -10 CURVE SMOOTH",
"1014 -10 OFFCURVE",
"1056 10 OFFCURVE",
"1092 51 CURVE",
"1075 69 LINE",
"1050 43 OFFCURVE",
"1026 32 OFFCURVE",
"1003 36 CURVE SMOOTH",
"980 41 OFFCURVE",
"971 64 OFFCURVE",
"960 131 CURVE SMOOTH",
"937 282 LINE SMOOTH",
"924 368 OFFCURVE",
"869 421 OFFCURVE",
"755 434 CURVE",
"795 452 OFFCURVE",
"827 497 OFFCURVE",
"844 559 CURVE",
"875 685 LINE SMOOTH",
"880 706 OFFCURVE",
"893 719 OFFCURVE",
"916 719 CURVE SMOOTH",
"943 719 OFFCURVE",
"958 698 OFFCURVE",
"966 676 CURVE",
"986 676 LINE SMOOTH",
"1023 676 OFFCURVE",
"1046 703 OFFCURVE",
"1046 741 CURVE SMOOTH",
"1046 783 OFFCURVE",
"1013 810 OFFCURVE",
"964 810 CURVE SMOOTH",
"908 810 OFFCURVE",
"873 774 OFFCURVE",
"853 698 CURVE",
"822 572 LINE",
"799 491 OFFCURVE",
"753 439 OFFCURVE",
"693 437 CURVE",
"596 437 LINE",
"596 764 LINE",
"688 778 LINE",
"688 800 LINE",
"394 800 LINE",
"394 778 LINE",
"486 764 LINE",
"486 437 LINE",
"390 437 LINE",
"329 438 OFFCURVE",
"282 490 OFFCURVE",
"260 572 CURVE",
"229 698 LINE",
"209 774 OFFCURVE",
"174 810 OFFCURVE",
"118 810 CURVE SMOOTH",
"69 810 OFFCURVE",
"36 783 OFFCURVE",
"36 741 CURVE SMOOTH",
"36 703 OFFCURVE",
"59 676 OFFCURVE",
"96 676 CURVE SMOOTH",
"116 676 LINE",
"124 698 OFFCURVE",
"139 719 OFFCURVE",
"166 719 CURVE SMOOTH",
"189 719 OFFCURVE",
"202 706 OFFCURVE",
"207 685 CURVE SMOOTH",
"238 559 LINE",
"255 497 OFFCURVE",
"286 452 OFFCURVE",
"327 434 CURVE",
"213 421 OFFCURVE",
"158 368 OFFCURVE",
"145 282 CURVE SMOOTH",
"122 131 LINE SMOOTH",
"111 64 OFFCURVE",
"102 41 OFFCURVE",
"79 36 CURVE SMOOTH",
"56 32 OFFCURVE",
"32 43 OFFCURVE",
"7 69 CURVE",
"-11 51 LINE",
"26 10 OFFCURVE",
"68 -10 OFFCURVE",
"117 -10 CURVE SMOOTH"
);
}
);
width = 1082;
}
);
leftKerningGroup = "Zhe-cy";
rightKerningGroup = "Ka-cy";
unicode = 0416;
},
{
glyphname = "Ze-cy";
layers = (
{
anchors = (
{
name = top;
position = "{327, 800}";
}
);
layerId = UUID0;
paths = (
{
closed = 1;
nodes = (
"527 -20 OFFCURVE",
"622 59 OFFCURVE",
"622 206 CURVE SMOOTH",
"622 316 OFFCURVE",
"564 398 OFFCURVE",
"401 423 CURVE",
"533 440 OFFCURVE",
"590 521 OFFCURVE",
"590 613 CURVE SMOOTH",
"590 734 OFFCURVE",
"520 820 OFFCURVE",
"327 820 CURVE SMOOTH",
"232 820 OFFCURVE",
"170 774 OFFCURVE",
"170 774 CURVE",
"103 820 LINE",
"82 820 LINE",
"82 572 LINE",
"103 572 LINE",
"165 740 LINE",
"165 740 OFFCURVE",
"216 797 OFFCURVE",
"326 797 CURVE SMOOTH",
"415 797 OFFCURVE",
"470 740 OFFCURVE",
"470 611 CURVE SMOOTH",
"470 605 LINE SMOOTH",
"470 494 OFFCURVE",
"420 431 OFFCURVE",
"311 431 CURVE SMOOTH",
"239 431 LINE",
"239 409 LINE",
"311 409 LINE SMOOTH",
"448 409 OFFCURVE",
"503 337 OFFCURVE",
"503 216 CURVE SMOOTH",
"503 205 LINE SMOOTH",
"503 82 OFFCURVE",
"453 3 OFFCURVE",
"336 3 CURVE SMOOTH",
"206 3 OFFCURVE",
"142 80 OFFCURVE",
"142 80 CURVE",
"84 247 LINE",
"63 247 LINE",
"63 -10 LINE",
"84 -10 LINE",
"150 41 LINE",
"150 41 OFFCURVE",
"224 -20 OFFCURVE",
"336 -20 CURVE SMOOTH"
);
}
);
width = 676;
}
);
leftKerningGroup = "Ze-cy";
rightKerningGroup = B;
unicode = 0417;
},
{
glyphname = "Ii-cy";
layers = (
{
anchors = (
{
name = top;
position = "{433, 800}";
}
);
layerId = UUID0;
paths = (
{
closed = 1;
nodes = (
"329 0 LINE",
"329 21 LINE",
"237 36 LINE",
"237 69 LINE",
"627 689 LINE",
"627 36 LINE",
"534 21 LINE",
"534 0 LINE",
"830 0 LINE",
"830 21 LINE",
"737 36 LINE",
"737 764 LINE",
"830 778 LINE",
"830 800 LINE",
"534 800 LINE",
"534 778 LINE",
"627 764 LINE",
"627 736 LINE",
"237 116 LINE",
"237 764 LINE",
"329 778 LINE",
"329 800 LINE",
"35 800 LINE",
"35 778 LINE",
"127 764 LINE",
"127 36 LINE",
"35 21 LINE",
"35 0 LINE"
);
}
);
width = 865;
}
);
leftKerningGroup = H;
rightKerningGroup = H;
unicode = 0418;
},
{
glyphname = "Ka-cy";
layers = (
{
anchors = (
{
name = center;
position = "{340, 426}";
},
{
name = top;
position = "{358, 800}";
}
);
layerId = UUID0;
paths = (
{
closed = 1;
nodes = (
"670 -10 OFFCURVE",
"712 10 OFFCURVE",
"748 51 CURVE",
"731 69 LINE",
"706 43 OFFCURVE",
"682 32 OFFCURVE",
"659 36 CURVE SMOOTH",
"636 41 OFFCURVE",
"627 64 OFFCURVE",
"616 131 CURVE SMOOTH",
"593 282 LINE SMOOTH",
"580 367 OFFCURVE",
"525 420 OFFCURVE",
"412 433 CURVE",
"452 452 OFFCURVE",
"484 496 OFFCURVE",
"500 559 CURVE SMOOTH",
"531 685 LINE SMOOTH",
"536 706 OFFCURVE",
"549 719 OFFCURVE",
"572 719 CURVE SMOOTH",
"599 719 OFFCURVE",
"614 698 OFFCURVE",
"622 676 CURVE",
"642 676 LINE SMOOTH",
"679 676 OFFCURVE",
"702 703 OFFCURVE",
"702 741 CURVE SMOOTH",
"702 783 OFFCURVE",
"663 810 OFFCURVE",
"620 810 CURVE SMOOTH",
"568 810 OFFCURVE",
"528 774 OFFCURVE",
"509 698 CURVE SMOOTH",
"478 572 LINE SMOOTH",
"458 492 OFFCURVE",
"412 439 OFFCURVE",
"347 437 CURVE SMOOTH",
"242 437 LINE",
"242 764 LINE",
"334 778 LINE",
"334 800 LINE",
"40 800 LINE",
"40 778 LINE",
"132 764 LINE",
"132 36 LINE",
"40 21 LINE",
"40 0 LINE",
"334 0 LINE",
"334 21 LINE",
"242 36 LINE",
"242 413 LINE",
"326 413 LINE SMOOTH",
"426 413 OFFCURVE",
"462 370 OFFCURVE",
"475 278 CURVE SMOOTH",
"499 109 LINE SMOOTH",
"512 22 OFFCURVE",
"546 -10 OFFCURVE",
"621 -10 CURVE SMOOTH"
);
}
);
width = 738;
}
);
leftKerningGroup = H;
leftMetricsKey = H;
rightKerningGroup = "Ka-cy";
unicode = 041A;
},
{
glyphname = "El-cy";
layers = (
{
layerId = UUID0;
paths = (
{
closed = 1;
nodes = (
"227 -10 OFFCURVE",
"252 164 OFFCURVE",
"270 570 CURVE SMOOTH",
"279 775 LINE",
"523 775 LINE",
"523 36 LINE",
"430 21 LINE",
"430 0 LINE",
"726 0 LINE",
"726 21 LINE",
"633 36 LINE",
"633 764 LINE",
"726 778 LINE",
"726 800 LINE",
"144 800 LINE",
"144 777 LINE",
"250 733 LINE",
"243 571 LINE SMOOTH",
"226 166 OFFCURVE",
"188 41 OFFCURVE",
"124 41 CURVE SMOOTH",
"106 41 OFFCURVE",
"96 54 OFFCURVE",
"96 69 CURVE SMOOTH",
"96 80 OFFCURVE",
"102 92 OFFCURVE",
"114 100 CURVE",
"114 100 OFFCURVE",
"100 133 OFFCURVE",
"59 133 CURVE SMOOTH",
"16 133 OFFCURVE",
"-7 101 OFFCURVE",
"-7 68 CURVE SMOOTH",
"-7 30 OFFCURVE",
"16 -10 OFFCURVE",
"86 -10 CURVE SMOOTH"
);
}
);
width = 766;
},
{
associatedMasterId = UUID0;
layerId = "760E61C1-6F62-4C44-83EA-E961B7BEB9F6";
name = old;
paths = (
{
closed = 1;
nodes = (
"521 775 LINE",
"521 36 LINE",
"428 21 LINE",
"428 0 LINE",
"724 0 LINE",
"724 21 LINE",
"631 36 LINE",
"631 764 LINE",
"724 778 LINE",
"724 800 LINE",
"91 800 LINE",
"91 778 LINE",
"197 732 LINE",
"197 359 LINE SMOOTH",
"197 98 OFFCURVE",
"154 48 OFFCURVE",
"115 48 CURVE SMOOTH",
"91 48 OFFCURVE",
"76 84 OFFCURVE",
"109 114 CURVE",
"109 114 OFFCURVE",
"91 151 OFFCURVE",
"45 151 CURVE SMOOTH",
"9 151 OFFCURVE",
"-25 126 OFFCURVE",
"-25 78 CURVE SMOOTH",
"-25 19 OFFCURVE",
"22 -10 OFFCURVE",
"80 -10 CURVE SMOOTH",
"159 -10 OFFCURVE",
"224 42 OFFCURVE",
"224 359 CURVE SMOOTH",
"224 775 LINE"
);
}
);
width = 762;
},
{
associatedMasterId = UUID0;
layerId = "913EFC73-4D3F-454D-BCCC-5A570C364EF2";
name = "Sep 9 16, 12:16";
paths = (
{
closed = 1;
nodes = (
"114 777 LINE",
"220 733 LINE",
"211 521 LINE SMOOTH",
"196 166 OFFCURVE",
"169 48 OFFCURVE",
"108 48 CURVE SMOOTH",
"89 48 OFFCURVE",
"78 58 OFFCURVE",
"78 77 CURVE SMOOTH",
"78 91 OFFCURVE",
"85 103 OFFCURVE",
"97 114 CURVE",
"97 114 OFFCURVE",
"79 151 OFFCURVE",
"33 151 CURVE SMOOTH",
"-3 151 OFFCURVE",
"-37 126 OFFCURVE",
"-37 78 CURVE SMOOTH",
"-37 19 OFFCURVE",
"0 -10 OFFCURVE",
"58 -10 CURVE SMOOTH",
"208 -10 OFFCURVE",
"220 164 OFFCURVE",
"237 520 CURVE SMOOTH",
"249 775 LINE",
"519 775 LINE",
"519 36 LINE",
"426 21 LINE",
"426 0 LINE",
"722 0 LINE",
"722 21 LINE",
"629 36 LINE",
"629 764 LINE",
"722 778 LINE",
"722 800 LINE",
"114 800 LINE"
);
}
);
width = 762;
},
{
associatedMasterId = UUID0;
layerId = "78326A38-AF2F-46B6-A94D-3A00778EE2D1";
name = "Sep 9 16, 12:58";
paths = (
{
closed = 1;
nodes = (
"628 450 LINE",
"628 764 LINE",
"721 778 LINE",
"721 800 LINE",
"114 800 LINE",
"114 777 LINE",
"220 733 LINE",
"211 521 LINE SMOOTH",
"196 166 OFFCURVE",
"169 48 OFFCURVE",
"108 48 CURVE SMOOTH",
"89 48 OFFCURVE",
"78 58 OFFCURVE",
"78 77 CURVE SMOOTH",
"78 91 OFFCURVE",
"85 103 OFFCURVE",
"97 114 CURVE",
"97 114 OFFCURVE",
"79 151 OFFCURVE",
"33 151 CURVE SMOOTH",
"-3 151 OFFCURVE",
"-37 126 OFFCURVE",
"-37 78 CURVE SMOOTH",
"-37 19 OFFCURVE",
"0 -10 OFFCURVE",
"58 -10 CURVE SMOOTH",
"208 -10 OFFCURVE",
"220 164 OFFCURVE",
"237 520 CURVE SMOOTH",
"249 775 LINE",
"519 775 LINE",
"519 36 LINE",
"426 21 LINE",
"426 0 LINE",
"628 0 LINE"
);
}
);
width = 762;
},
{
associatedMasterId = UUID0;
layerId = "17C4CA22-C4CD-4EAD-BBAB-121E3EB86B72";
name = "Sep 9 16, 14:46";
paths = (
{
closed = 1;
nodes = (
"164 777 LINE",
"270 733 LINE",
"263 571 LINE SMOOTH",
"245 166 OFFCURVE",
"199 41 OFFCURVE",
"124 41 CURVE SMOOTH",
"106 41 OFFCURVE",
"96 54 OFFCURVE",
"96 69 CURVE SMOOTH",
"96 80 OFFCURVE",
"102 91 OFFCURVE",
"114 99 CURVE",
"114 99 OFFCURVE",
"98 131 OFFCURVE",
"59 131 CURVE SMOOTH",
"16 131 OFFCURVE",
"-7 100 OFFCURVE",
"-7 68 CURVE SMOOTH",
"-7 30 OFFCURVE",
"16 -10 OFFCURVE",
"86 -10 CURVE SMOOTH",
"242 -10 OFFCURVE",
"273 164 OFFCURVE",
"290 570 CURVE SMOOTH",
"299 775 LINE",
"519 775 LINE",
"519 36 LINE",
"426 21 LINE",
"426 0 LINE",
"722 0 LINE",
"722 21 LINE",
"629 36 LINE",
"629 764 LINE",
"722 778 LINE",
"722 800 LINE",
"164 800 LINE"
);
}
);
visible = 1;
width = 762;
}
);
leftKerningGroup = "El-cy";
rightKerningGroup = H;
rightMetricsKey = H;
unicode = 041B;
},
{
glyphname = "Pe-cy";
layers = (
{
layerId = UUID0;
paths = (
{
closed = 1;
nodes = (
"334 0 LINE",
"334 21 LINE",
"242 36 LINE",
"242 775 LINE",
"612 775 LINE",
"612 36 LINE",
"519 21 LINE",
"519 0 LINE",
"815 0 LINE",
"815 21 LINE",
"722 36 LINE",
"722 764 LINE",
"815 778 LINE",
"815 800 LINE",
"40 800 LINE",
"40 778 LINE",
"132 764 LINE",
"132 36 LINE",
"40 21 LINE",
"40 0 LINE"
);
}
);
width = 855;
}
);
leftKerningGroup = H;
rightKerningGroup = H;
unicode = 041F;
},
{
glyphname = "U-cy";
layers = (
{
anchors = (
{
name = top;
position = "{397, 800}";
}
);
layerId = UUID0;
paths = (
{
closed = 1;
nodes = (
"298 -10 OFFCURVE",
"340 23 OFFCURVE",
"393 141 CURVE SMOOTH",
"657 729 LINE",
"734 778 LINE",
"734 800 LINE",
"510 800 LINE",
"510 778 LINE",
"630 730 LINE",
"441 308 LINE",
"187 764 LINE",
"280 778 LINE",
"280 800 LINE",
"-21 800 LINE",
"-21 778 LINE",
"58 764 LINE",
"383 180 LINE",
"370 150 LINE SMOOTH",
"328 57 OFFCURVE",
"303 35 OFFCURVE",
"270 35 CURVE SMOOTH",
"245 35 OFFCURVE",
"232 53 OFFCURVE",
"232 77 CURVE SMOOTH",
"232 106 OFFCURVE",
"251 123 OFFCURVE",
"251 123 CURVE",
"239 146 OFFCURVE",
"216 159 OFFCURVE",
"186 159 CURVE SMOOTH",
"148 159 OFFCURVE",
"114 129 OFFCURVE",
"114 82 CURVE SMOOTH",
"114 30 OFFCURVE",
"149 -10 OFFCURVE",
"215 -10 CURVE SMOOTH"
);
}
);
width = 726;
}
);
leftKerningGroup = "U-cy";
rightKerningGroup = "U-cy";
unicode = 0423;
},
{
glyphname = "Ef-cy";
layers = (
{
layerId = UUID0;
paths = (
{
closed = 1;
nodes = (
"620 0 LINE",
"620 21 LINE",
"528 36 LINE",
"528 140 LINE",
"789 141 OFFCURVE",
"904 235 OFFCURVE",
"904 420 CURVE SMOOTH",
"904 607 OFFCURVE",
"788 700 OFFCURVE",
"528 700 CURVE",
"528 784 LINE",
"620 798 LINE",
"620 820 LINE",
"326 820 LINE",
"326 798 LINE",
"418 784 LINE",
"418 700 LINE",
"158 700 OFFCURVE",
"42 607 OFFCURVE",
"42 420 CURVE SMOOTH",
"42 235 OFFCURVE",
"157 141 OFFCURVE",
"418 140 CURVE",
"418 36 LINE",
"326 21 LINE",
"326 0 LINE"
);
},
{
closed = 1;
nodes = (
"252 164 OFFCURVE",
"166 256 OFFCURVE",
"166 393 CURVE SMOOTH",
"166 447 LINE SMOOTH",
"166 583 OFFCURVE",
"251 677 OFFCURVE",
"418 677 CURVE",
"418 163 LINE"
);
},
{
closed = 1;
nodes = (
"528 677 LINE",
"695 677 OFFCURVE",
"780 583 OFFCURVE",
"780 447 CURVE SMOOTH",
"780 393 LINE SMOOTH",
"780 256 OFFCURVE",
"694 164 OFFCURVE",
"528 163 CURVE"
);
}
);
width = 946;
}
);
leftKerningGroup = O;
rightKerningGroup = O;
unicode = 0424;
},
{
glyphname = "Che-cy";
layers = (
{
anchors = (
{
name = center;
position = "{402, 345}";
},
{
name = top;
position = "{396, 800}";
}
);
layerId = UUID0;
paths = (
{
closed = 1;
nodes = (
"771 0 LINE",
"771 21 LINE",
"678 36 LINE",
"678 764 LINE",
"771 778 LINE",
"771 800 LINE",
"475 800 LINE",
"475 778 LINE",
"568 764 LINE",
"568 399 LINE",
"568 399 OFFCURVE",
"496 355 OFFCURVE",
"373 355 CURVE SMOOTH",
"261 355 OFFCURVE",
"218 415 OFFCURVE",
"218 534 CURVE SMOOTH",
"218 764 LINE",
"310 778 LINE",
"310 800 LINE",
"16 800 LINE",
"16 778 LINE",
"108 764 LINE",
"108 532 LINE SMOOTH",
"108 394 OFFCURVE",
"168 332 OFFCURVE",
"373 332 CURVE SMOOTH",
"490 332 OFFCURVE",
"568 373 OFFCURVE",
"568 373 CURVE",
"568 36 LINE",
"445 21 LINE",
"445 0 LINE"
);
}
);
width = 811;
}
);
leftKerningGroup = "Che-cy";
rightKerningGroup = H;
rightMetricsKey = H;
unicode = 0427;
},
{
glyphname = "Tse-cy";
layers = (
{
layerId = UUID0;
paths = (
{
closed = 1;
nodes = (
"813 -220 LINE",
"798 25 LINE",
"712 25 LINE",
"712 764 LINE",
"805 779 LINE",
"805 800 LINE",
"509 800 LINE",
"509 779 LINE",
"602 764 LINE",
"602 25 LINE",
"242 25 LINE",
"242 764 LINE",
"334 779 LINE",
"334 800 LINE",
"40 800 LINE",
"40 779 LINE",
"132 764 LINE",
"132 36 LINE",
"40 22 LINE",
"40 0 LINE",
"679 0 LINE",
"783 -220 LINE"
);
}
);
width = 853;
}
);
leftKerningGroup = H;
rightKerningGroup = "Tse-cy";
unicode = 0426;
},
{
glyphname = "Sha-cy";
layers = (
{
layerId = UUID0;
paths = (
{
closed = 1;
nodes = (
"1095 0 LINE",
"1095 21 LINE",
"1002 36 LINE",
"1002 764 LINE",
"1095 778 LINE",
"1095 800 LINE",
"799 800 LINE",
"799 778 LINE",
"892 764 LINE",
"892 25 LINE",
"622 25 LINE",
"622 764 LINE",
"714 778 LINE",
"715 778 LINE",
"715 800 LINE",
"419 800 LINE",
"419 778 LINE",
"420 778 LINE",
"512 764 LINE",
"512 25 LINE",
"242 25 LINE",
"242 764 LINE",
"334 778 LINE",
"334 800 LINE",
"40 800 LINE",
"40 778 LINE",
"132 764 LINE",
"132 36 LINE",
"40 21 LINE",
"40 0 LINE"
);
}
);
width = 1135;
}
);
leftKerningGroup = H;
rightKerningGroup = H;
unicode = 0428;
},
{
glyphname = "Shcha-cy";
layers = (
{
layerId = UUID0;
paths = (
{
closed = 1;
nodes = (
"1103 -220 LINE",
"1088 25 LINE",
"1002 25 LINE",
"1002 764 LINE",
"1095 778 LINE",
"1095 800 LINE",
"799 800 LINE",
"799 778 LINE",
"892 764 LINE",
"892 25 LINE",
"622 25 LINE",
"622 764 LINE",
"714 778 LINE",
"715 778 LINE",
"715 800 LINE",
"419 800 LINE",
"419 778 LINE",
"420 778 LINE",
"512 764 LINE",
"512 25 LINE",
"242 25 LINE",
"242 764 LINE",
"334 778 LINE",
"334 800 LINE",
"40 800 LINE",
"40 778 LINE",
"132 764 LINE",
"132 36 LINE",
"40 21 LINE",
"40 0 LINE",
"969 0 LINE",
"1073 -220 LINE"
);
}
);
width = 1143;
}
);
leftKerningGroup = H;
rightKerningGroup = "Tse-cy";
unicode = 0429;
},
{
glyphname = "Dzhe-cy";
layers = (
{
layerId = UUID0;
paths = (
{
closed = 1;
nodes = (
"815 0 LINE",
"815 22 LINE",
"722 36 LINE",
"722 764 LINE",
"815 779 LINE",
"815 800 LINE",
"519 800 LINE",
"519 779 LINE",
"612 764 LINE",
"612 25 LINE",
"242 25 LINE",
"242 764 LINE",
"334 779 LINE",
"334 800 LINE",
"40 800 LINE",
"40 779 LINE",
"132 764 LINE",
"132 36 LINE",
"40 22 LINE",
"40 0 LINE"
);
},
{
closed = 1;
nodes = (
"443 -220 LINE",
"493 15 LINE",
"362 15 LINE",
"412 -220 LINE"
);
}
);
width = 855;
}
);
leftKerningGroup = H;
leftMetricsKey = H;
rightKerningGroup = H;
rightMetricsKey = H;
unicode = 040F;
},
{
glyphname = "Softsign-cy";
layers = (
{
layerId = UUID0;
paths = (
{
closed = 1;
nodes = (
"384 0 LINE SMOOTH",
"579 0 OFFCURVE",
"676 72 OFFCURVE",
"676 225 CURVE SMOOTH",
"676 378 OFFCURVE",
"579 450 OFFCURVE",
"384 450 CURVE SMOOTH",
"242 450 LINE",
"242 764 LINE",
"334 779 LINE",
"334 800 LINE",
"40 800 LINE",
"40 779 LINE",
"132 764 LINE",
"132 36 LINE",
"40 22 LINE",
"40 0 LINE"
);
},
{
closed = 1;
nodes = (
"242 426 LINE",
"370 426 LINE SMOOTH",
"493 426 OFFCURVE",
"555 369 OFFCURVE",
"555 245 CURVE SMOOTH",
"555 205 LINE SMOOTH",
"555 82 OFFCURVE",
"493 25 OFFCURVE",
"370 25 CURVE SMOOTH",
"242 25 LINE"
);
}
);
width = 710;
}
);
leftKerningGroup = H;
rightKerningGroup = "Softsign-cy";
unicode = 042C;
},
{
glyphname = "Hardsign-cy";
layers = (
{
layerId = UUID0;
paths = (
{
closed = 1;
nodes = (
"529 0 LINE SMOOTH",
"724 0 OFFCURVE",
"821 72 OFFCURVE",
"821 225 CURVE SMOOTH",
"821 378 OFFCURVE",
"724 450 OFFCURVE",
"529 450 CURVE SMOOTH",
"387 450 LINE",
"387 764 LINE",
"479 779 LINE",
"479 800 LINE",
"228 800 LINE",
"228 775 LINE",
"277 775 LINE",
"277 36 LINE",
"185 22 LINE",
"185 0 LINE"
);
},
{
closed = 1;
nodes = (
"387 426 LINE",
"515 426 LINE SMOOTH",
"638 426 OFFCURVE",
"700 369 OFFCURVE",
"700 245 CURVE SMOOTH",
"700 205 LINE SMOOTH",
"700 82 OFFCURVE",
"638 25 OFFCURVE",
"515 25 CURVE SMOOTH",
"387 25 LINE"
);
},
{
closed = 1;
nodes = (
"44 577 LINE",
"120 775 LINE",
"228 775 LINE",
"228 800 LINE",
"15 800 LINE",
"15 577 LINE"
);
}
);
width = 855;
}
);
leftKerningGroup = T;
rightKerningGroup = "Softsign-cy";
unicode = 042A;
},
{
glyphname = "Yeru-cy";
layers = (
{
anchors = (
{
name = top;
position = "{512, 800}";
}
);
layerId = UUID0;
paths = (
{
closed = 1;
nodes = (
"371 0 LINE SMOOTH",
"566 0 OFFCURVE",
"663 72 OFFCURVE",
"663 225 CURVE SMOOTH",
"663 378 OFFCURVE",
"566 450 OFFCURVE",
"371 450 CURVE SMOOTH",
"242 450 LINE",
"242 764 LINE",
"334 779 LINE",
"334 800 LINE",
"40 800 LINE",
"40 779 LINE",
"132 764 LINE",
"132 36 LINE",
"40 22 LINE",
"40 0 LINE"
);
},
{
closed = 1;
nodes = (
"242 426 LINE",
"357 426 LINE SMOOTH",
"480 426 OFFCURVE",
"542 369 OFFCURVE",
"542 245 CURVE SMOOTH",
"542 205 LINE SMOOTH",
"542 82 OFFCURVE",
"480 25 OFFCURVE",
"357 25 CURVE SMOOTH",
"242 25 LINE"
);
},
{
closed = 1;
nodes = (
"994 0 LINE",
"994 21 LINE",
"902 36 LINE",
"902 764 LINE",
"994 778 LINE",
"994 800 LINE",
"700 800 LINE",
"700 778 LINE",
"792 764 LINE",
"792 36 LINE",
"700 21 LINE",
"700 0 LINE"
);
}
);
width = 1034;
}
);
leftKerningGroup = H;
rightKerningGroup = H;
unicode = 042B;
},
{
glyphname = "Lje-cy";
layers = (
{
layerId = UUID0;
paths = (
{
closed = 1;
nodes = (
"227 -10 OFFCURVE",
"252 164 OFFCURVE",
"270 570 CURVE SMOOTH",
"279 775 LINE",
"523 775 LINE",
"524 36 LINE",
"431 21 LINE",
"431 0 LINE",
"633 0 LINE",
"777 0 LINE SMOOTH",
"972 0 OFFCURVE",
"1069 72 OFFCURVE",
"1069 225 CURVE SMOOTH",
"1069 378 OFFCURVE",
"972 450 OFFCURVE",
"777 450 CURVE SMOOTH",
"633 450 LINE",
"633 764 LINE",
"726 778 LINE",
"726 800 LINE",
"144 800 LINE",
"144 777 LINE",
"250 733 LINE",
"243 571 LINE SMOOTH",
"226 166 OFFCURVE",
"188 41 OFFCURVE",
"124 41 CURVE SMOOTH",
"106 41 OFFCURVE",
"96 54 OFFCURVE",
"96 69 CURVE SMOOTH",
"96 80 OFFCURVE",
"102 92 OFFCURVE",
"114 100 CURVE",
"114 100 OFFCURVE",
"100 133 OFFCURVE",
"59 133 CURVE SMOOTH",
"16 133 OFFCURVE",
"-7 101 OFFCURVE",
"-7 68 CURVE SMOOTH",
"-7 30 OFFCURVE",
"16 -10 OFFCURVE",
"86 -10 CURVE SMOOTH"
);
},
{
closed = 1;
nodes = (
"633 426 LINE",
"761 426 LINE SMOOTH",
"884 426 OFFCURVE",
"946 369 OFFCURVE",
"946 245 CURVE SMOOTH",
"946 205 LINE SMOOTH",
"946 82 OFFCURVE",
"884 25 OFFCURVE",
"761 25 CURVE SMOOTH",
"633 25 LINE"
);
}
);
width = 1103;
}
);
leftKerningGroup = "El-cy";
leftMetricsKey = "El-cy";
rightKerningGroup = "Softsign-cy";
rightMetricsKey = "Softsign-cy";
unicode = 0409;
},
{
glyphname = "Nje-cy";
layers = (
{
layerId = UUID0;
paths = (
{
closed = 1;
nodes = (
"334 0 LINE",
"334 21 LINE",
"242 36 LINE",
"242 411 LINE",
"622 411 LINE",
"622 36 LINE",
"530 22 LINE",
"530 0 LINE",
"874 0 LINE SMOOTH",
"1069 0 OFFCURVE",
"1166 70 OFFCURVE",
"1166 220 CURVE SMOOTH",
"1166 367 OFFCURVE",
"1069 436 OFFCURVE",
"874 436 CURVE SMOOTH",
"732 436 LINE",
"732 764 LINE",
"824 779 LINE",
"824 800 LINE",
"530 800 LINE",
"530 779 LINE",
"622 764 LINE",
"622 436 LINE",
"242 436 LINE",
"242 764 LINE",
"334 778 LINE",
"334 800 LINE",
"40 800 LINE",
"40 778 LINE",
"132 764 LINE",
"132 36 LINE",
"40 21 LINE",
"40 0 LINE"
);
},
{
closed = 1;
nodes = (
"732 411 LINE",
"860 411 LINE SMOOTH",
"983 411 OFFCURVE",
"1045 357 OFFCURVE",
"1045 240 CURVE SMOOTH",
"1045 200 LINE SMOOTH",
"1045 80 OFFCURVE",
"983 25 OFFCURVE",
"860 25 CURVE SMOOTH",
"732 25 LINE"
);
}
);
width = 1200;
}
);
leftKerningGroup = H;
leftMetricsKey = H;
rightKerningGroup = "Softsign-cy";
rightMetricsKey = "Softsign-cy";
unicode = 040A;
},
{
glyphname = "Ereversed-cy";
layers = (
{
layerId = UUID0;
paths = (
{
closed = 1;
nodes = (
"549 -20 OFFCURVE",
"691 150 OFFCURVE",
"691 400 CURVE SMOOTH",
"691 647 OFFCURVE",
"546 820 OFFCURVE",
"326 820 CURVE SMOOTH",
"266 820 OFFCURVE",
"208 801 OFFCURVE",
"156 763 CURVE",
"89 820 LINE",
"68 820 LINE",
"68 572 LINE",
"89 572 LINE",
"151 727 LINE",
"202 774 OFFCURVE",
"261 797 OFFCURVE",
"326 797 CURVE SMOOTH",
"467 797 OFFCURVE",
"561 681 OFFCURVE",
"561 492 CURVE SMOOTH",
"561 425 LINE",
"201 425 LINE",
"201 401 LINE",
"561 401 LINE",
"561 309 LINE SMOOTH",
"561 118 OFFCURVE",
"470 3 OFFCURVE",
"329 3 CURVE SMOOTH",
"261 3 OFFCURVE",
"187 35 OFFCURVE",
"142 86 CURVE",
"84 247 LINE",
"63 247 LINE",
"63 -10 LINE",
"84 -10 LINE",
"154 41 LINE",
"207 0 OFFCURVE",
"265 -20 OFFCURVE",
"329 -20 CURVE SMOOTH"
);
}
);
width = 745;
}
);
leftKerningGroup = "Ereversed-cy";
rightKerningGroup = O;
rightMetricsKey = O;
unicode = 042D;
},
{
glyphname = "Tshe-cy";
layers = (
{
layerId = UUID0;
paths = (
{
closed = 1;
nodes = (
"478 0 LINE",
"478 21 LINE",
"386 36 LINE",
"386 775 LINE",
"532 775 LINE",
"607 577 LINE",
"637 577 LINE",
"637 800 LINE",
"25 800 LINE",
"25 577 LINE",
"54 577 LINE",
"130 775 LINE",
"276 775 LINE",
"276 36 LINE",
"184 21 LINE",
"184 0 LINE"
);
},
{
closed = 1;
nodes = (
"918 0 LINE",
"918 22 LINE",
"826 36 LINE",
"826 258 LINE SMOOTH",
"826 389 OFFCURVE",
"770 448 OFFCURVE",
"581 448 CURVE SMOOTH",
"464 448 OFFCURVE",
"386 407 OFFCURVE",
"386 407 CURVE",
"386 381 LINE",
"386 381 OFFCURVE",
"458 425 OFFCURVE",
"581 425 CURVE SMOOTH",
"679 425 OFFCURVE",
"716 368 OFFCURVE",
"716 256 CURVE SMOOTH",
"716 36 LINE",
"624 22 LINE",
"624 0 LINE"
);
}
);
width = 934;
}
);
leftKerningGroup = T;
leftMetricsKey = T;
rightKerningGroup = "Tshe-cy";
unicode = 040B;
},
{
glyphname = "Iu-cy";
layers = (
{
layerId = UUID0;
paths = (
{
closed = 1;
nodes = (
"980 -20 OFFCURVE",
"1133 155 OFFCURVE",
"1133 400 CURVE SMOOTH",
"1133 647 OFFCURVE",
"978 820 OFFCURVE",
"760 820 CURVE SMOOTH",
"550 820 OFFCURVE",
"398 661 OFFCURVE",
"387 426 CURVE",
"242 426 LINE",
"242 764 LINE",
"334 778 LINE",
"334 800 LINE",
"40 800 LINE",
"40 778 LINE",
"132 764 LINE",
"132 36 LINE",
"40 21 LINE",
"40 0 LINE",
"334 0 LINE",
"334 21 LINE",
"242 36 LINE",
"242 401 LINE",
"387 401 LINE",
"387 400 LINE",
"387 153 OFFCURVE",
"542 -20 OFFCURVE",
"760 -20 CURVE SMOOTH"
);
},
{
closed = 1;
nodes = (
"614 3 OFFCURVE",
"511 125 OFFCURVE",
"511 323 CURVE SMOOTH",
"511 477 LINE SMOOTH",
"511 673 OFFCURVE",
"615 797 OFFCURVE",
"760 797 CURVE SMOOTH",
"905 797 OFFCURVE",
"1009 673 OFFCURVE",
"1009 477 CURVE SMOOTH",
"1009 323 LINE",
"1009 125 OFFCURVE",
"906 3 OFFCURVE",
"760 3 CURVE SMOOTH"
);
}
);
width = 1187;
}
);
leftKerningGroup = H;
leftMetricsKey = H;
rightKerningGroup = O;
rightMetricsKey = O;
unicode = 042E;
},
{
glyphname = "Ia-cy";
layers = (
{
layerId = UUID0;
paths = (
{
closed = 1;
nodes = (
"181 -10 OFFCURVE",
"215 22 OFFCURVE",
"228 109 CURVE SMOOTH",
"247 243 LINE SMOOTH",
"261 340 OFFCURVE",
"314 377 OFFCURVE",
"407 377 CURVE SMOOTH",
"485 377 LINE",
"485 36 LINE",
"393 21 LINE",
"393 0 LINE",
"687 0 LINE",
"687 21 LINE",
"595 36 LINE",
"595 764 LINE",
"687 778 LINE",
"687 800 LINE",
"412 800 LINE SMOOTH",
"192 800 OFFCURVE",
"97 730 OFFCURVE",
"97 588 CURVE SMOOTH",
"97 470 OFFCURVE",
"170 406 OFFCURVE",
"306 388 CURVE",
"306 382 LINE",
"198 367 OFFCURVE",
"142 327 OFFCURVE",
"126 227 CURVE SMOOTH",
"111 131 LINE SMOOTH",
"101 64 OFFCURVE",
"91 41 OFFCURVE",
"68 36 CURVE SMOOTH",
"45 32 OFFCURVE",
"21 43 OFFCURVE",
"-4 69 CURVE",
"-21 51 LINE",
"15 10 OFFCURVE",
"57 -10 OFFCURVE",
"106 -10 CURVE SMOOTH"
);
},
{
closed = 1;
nodes = (
"281 401 OFFCURVE",
"218 461 OFFCURVE",
"218 577 CURVE SMOOTH",
"218 609 LINE SMOOTH",
"218 720 OFFCURVE",
"284 775 OFFCURVE",
"412 775 CURVE SMOOTH",
"485 775 LINE",
"485 401 LINE",
"378 401 LINE SMOOTH"
);
}
);
width = 727;
}
);
leftKerningGroup = "Ia-cy";
rightKerningGroup = H;
rightMetricsKey = H;
unicode = 042F;
},
{
glyphname = "Dje-cy";
layers = (
{
layerId = UUID0;
paths = (
{
closed = 1;
nodes = (
"478 0 LINE",
"478 21 LINE",
"386 36 LINE",
"386 775 LINE",
"532 775 LINE",
"607 577 LINE",
"637 577 LINE",
"637 800 LINE",
"25 800 LINE",
"25 577 LINE",
"54 577 LINE",
"130 775 LINE",
"276 775 LINE",
"276 36 LINE",
"184 21 LINE",
"184 0 LINE"
);
},
{
closed = 1;
nodes = (
"785 -6 OFFCURVE",
"846 75 OFFCURVE",
"846 219 CURVE SMOOTH",
"846 365 OFFCURVE",
"783 448 OFFCURVE",
"571 448 CURVE SMOOTH",
"460 448 OFFCURVE",
"386 407 OFFCURVE",
"386 407 CURVE",
"386 381 LINE",
"386 381 OFFCURVE",
"454 425 OFFCURVE",
"571 425 CURVE SMOOTH",
"691 425 OFFCURVE",
"736 346 OFFCURVE",
"736 219 CURVE SMOOTH",
"736 94 OFFCURVE",
"694 17 OFFCURVE",
"581 17 CURVE",
"581 -6 LINE"
);
}
);
width = 880;
}
);
leftKerningGroup = T;
leftMetricsKey = T;
rightKerningGroup = "Tshe-cy";
rightMetricsKey = "Softsign-cy";
unicode = 0402;
},
{
glyphname = "Yat-cy";
layers = (
{
components = (
{
name = "Softsign-cy";
transform = "{1, 0, 0, 1, 135, 0}";
}
);
layerId = UUID0;
paths = (
{
closed = 1;
nodes = (
"54 517 LINE",
"130 675 LINE",
"511 675 LINE",
"586 517 LINE",
"616 517 LINE",
"616 700 LINE",
"25 700 LINE",
"25 517 LINE"
);
}
);
width = 845;
}
);
leftKerningGroup = H;
leftMetricsKey = T;
rightKerningGroup = "Softsign-cy";
rightMetricsKey = "Softsign-cy";
unicode = 0462;
},
{
glyphname = "Yusbig-cy";
layers = (
{
layerId = UUID0;
paths = (
{
closed = 1;
nodes = (
"172 -10 OFFCURVE",
"206 22 OFFCURVE",
"219 109 CURVE SMOOTH",
"243 278 LINE SMOOTH",
"256 370 OFFCURVE",
"292 413 OFFCURVE",
"392 413 CURVE SMOOTH",
"466 413 LINE",
"466 36 LINE",
"374 21 LINE",
"374 0 LINE",
"668 0 LINE",
"668 21 LINE",
"576 36 LINE",
"576 413 LINE",
"650 413 LINE SMOOTH",
"750 413 OFFCURVE",
"786 370 OFFCURVE",
"799 278 CURVE SMOOTH",
"823 109 LINE SMOOTH",
"836 22 OFFCURVE",
"870 -10 OFFCURVE",
"945 -10 CURVE SMOOTH",
"994 -10 OFFCURVE",
"1036 10 OFFCURVE",
"1072 51 CURVE",
"1055 69 LINE",
"1030 43 OFFCURVE",
"1006 32 OFFCURVE",
"983 36 CURVE SMOOTH",
"960 41 OFFCURVE",
"951 64 OFFCURVE",
"940 131 CURVE SMOOTH",
"917 282 LINE SMOOTH",
"901 388 OFFCURVE",
"832 437 OFFCURVE",
"705 437 CURVE SMOOTH",
"337 437 LINE SMOOTH",
"210 437 OFFCURVE",
"141 388 OFFCURVE",
"125 282 CURVE SMOOTH",
"102 131 LINE SMOOTH",
"91 64 OFFCURVE",
"82 41 OFFCURVE",
"59 36 CURVE SMOOTH",
"36 32 OFFCURVE",
"12 43 OFFCURVE",
"-14 69 CURVE",
"-31 51 LINE",
"6 10 OFFCURVE",
"48 -10 OFFCURVE",
"97 -10 CURVE SMOOTH"
);
},
{
closed = 1;
nodes = (
"586 422 LINE",
"579 422 LINE",
"270 800 LINE",
"137 800 LINE",
"445 422 LINE",
"554 422 LINE",
"579 422 LINE",
"586 422 LINE",
"898 800 LINE",
"867 800 LINE",
"554 422 LINE",
"445 422 LINE"
);
},
{
closed = 1;
nodes = (
"874 778 LINE",
"874 800 LINE",
"188 800 LINE",
"188 778 LINE"
);
}
);
width = 1042;
}
);
leftKerningGroup = X;
leftMetricsKey = "=Zhe-cy-20";
rightKerningGroup = "Ka-cy";
rightMetricsKey = "=Zhe-cy-20";
unicode = 046A;
},
{
glyphname = "Fita-cy";
layers = (
{
components = (
{
name = O;
}
);
layerId = UUID0;
paths = (
{
closed = 1;
nodes = (
"736 411 LINE",
"736 436 LINE",
"96 436 LINE",
"96 411 LINE"
);
}
);
width = 862;
}
);
leftKerningGroup = O;
leftMetricsKey = O;
rightKerningGroup = O;
rightMetricsKey = O;
unicode = 0472;
},
{
glyphname = "Izhitsa-cy";
layers = (
{
layerId = UUID0;
paths = (
{
closed = 1;
nodes = (
"347 -20 LINE",
"623 707 LINE SMOOTH",
"636 742 OFFCURVE",
"650 751 OFFCURVE",
"671 751 CURVE SMOOTH",
"689 751 OFFCURVE",
"700 739 OFFCURVE",
"700 725 CURVE SMOOTH",
"700 710 OFFCURVE",
"694 697 OFFCURVE",
"681 685 CURVE",
"681 685 OFFCURVE",
"699 648 OFFCURVE",
"745 648 CURVE SMOOTH",
"781 648 OFFCURVE",
"815 673 OFFCURVE",
"815 721 CURVE SMOOTH",
"815 780 OFFCURVE",
"768 809 OFFCURVE",
"714 809 CURVE SMOOTH",
"665 809 OFFCURVE",
"630 794 OFFCURVE",
"599 712 CURVE SMOOTH",
"390 167 LINE",
"170 766 LINE",
"264 778 LINE",
"264 800 LINE",
"-29 800 LINE",
"-29 778 LINE",
"51 764 LINE",
"339 -20 LINE"
);
}
);
width = 784;
}
);
leftKerningGroup = V;
leftMetricsKey = V;
rightKerningGroup = V;
unicode = 0474;
},
{
glyphname = "Ghemiddlehook-cy";
layers = (
{
components = (
{
name = "Ge-cy";
}
);
layerId = UUID0;
paths = (
{
closed = 1;
nodes = (
"564 -140 OFFCURVE",
"680 28 OFFCURVE",
"680 219 CURVE SMOOTH",
"680 370 OFFCURVE",
"610 456 OFFCURVE",
"415 456 CURVE SMOOTH",
"310 456 OFFCURVE",
"240 407 OFFCURVE",
"240 407 CURVE",
"240 377 LINE",
"240 377 OFFCURVE",
"304 430 OFFCURVE",
"415 430 CURVE SMOOTH",
"519 430 OFFCURVE",
"567 349 OFFCURVE",
"567 219 CURVE SMOOTH",
"567 62 OFFCURVE",
"525 -131 OFFCURVE",
"352 -274 CURVE",
"366 -288 LINE"
);
}
);
width = 727;
}
);
leftKerningGroup = H;
rightKerningGroup = "Tshe-cy";
rightMetricsKey = "Be-cy";
unicode = 0494;
},
{
glyphname = "Zhedescender-cy";
layers = (
{
layerId = UUID0;
paths = (
{
closed = 1;
nodes = (
"1135 -220 LINE",
"1120 25 LINE",
"1041 25 LINE SMOOTH",
"999 25 OFFCURVE",
"978 44 OFFCURVE",
"962 121 CURVE SMOOTH",
"937 282 LINE SMOOTH",
"924 368 OFFCURVE",
"869 421 OFFCURVE",
"755 434 CURVE",
"795 452 OFFCURVE",
"827 497 OFFCURVE",
"844 559 CURVE",
"875 685 LINE SMOOTH",
"880 706 OFFCURVE",
"893 719 OFFCURVE",
"916 719 CURVE SMOOTH",
"943 719 OFFCURVE",
"958 698 OFFCURVE",
"966 676 CURVE",
"986 676 LINE SMOOTH",
"1023 676 OFFCURVE",
"1046 703 OFFCURVE",
"1046 741 CURVE SMOOTH",
"1046 783 OFFCURVE",
"1013 810 OFFCURVE",
"964 810 CURVE SMOOTH",
"908 810 OFFCURVE",
"873 774 OFFCURVE",
"853 698 CURVE",
"822 572 LINE",
"799 491 OFFCURVE",
"753 439 OFFCURVE",
"693 437 CURVE",
"596 437 LINE",
"596 764 LINE",
"688 778 LINE",
"688 800 LINE",
"394 800 LINE",
"394 778 LINE",
"486 764 LINE",
"486 437 LINE",
"390 437 LINE",
"329 438 OFFCURVE",
"282 490 OFFCURVE",
"260 572 CURVE",
"229 698 LINE",
"209 774 OFFCURVE",
"174 810 OFFCURVE",
"118 810 CURVE SMOOTH",
"69 810 OFFCURVE",
"36 783 OFFCURVE",
"36 741 CURVE SMOOTH",
"36 703 OFFCURVE",
"59 676 OFFCURVE",
"96 676 CURVE SMOOTH",
"116 676 LINE",
"124 698 OFFCURVE",
"139 719 OFFCURVE",
"166 719 CURVE SMOOTH",
"189 719 OFFCURVE",
"202 706 OFFCURVE",
"207 685 CURVE SMOOTH",
"238 559 LINE",
"255 497 OFFCURVE",
"286 452 OFFCURVE",
"327 434 CURVE",
"213 421 OFFCURVE",
"158 368 OFFCURVE",
"145 282 CURVE SMOOTH",
"122 131 LINE SMOOTH",
"111 64 OFFCURVE",
"102 41 OFFCURVE",
"79 36 CURVE SMOOTH",
"56 32 OFFCURVE",
"32 43 OFFCURVE",
"7 69 CURVE",
"-11 51 LINE",
"26 10 OFFCURVE",
"68 -10 OFFCURVE",
"117 -10 CURVE SMOOTH",
"192 -10 OFFCURVE",
"226 22 OFFCURVE",
"239 109 CURVE SMOOTH",
"263 278 LINE SMOOTH",
"276 370 OFFCURVE",
"312 413 OFFCURVE",
"412 413 CURVE SMOOTH",
"486 413 LINE",
"486 36 LINE",
"394 21 LINE",
"394 0 LINE",
"688 0 LINE",
"688 21 LINE",
"596 36 LINE",
"596 413 LINE",
"670 413 LINE SMOOTH",
"770 413 OFFCURVE",
"806 370 OFFCURVE",
"819 278 CURVE SMOOTH",
"843 109 LINE SMOOTH",
"856 29 OFFCURVE",
"890 0 OFFCURVE",
"965 0 CURVE SMOOTH",
"1001 0 LINE",
"1105 -220 LINE"
);
}
);
width = 1083;
},
{
anchors = (
{
name = _bottom;
position = "{1225.333, 0}";
}
);
associatedMasterId = UUID0;
layerId = "53D6403E-8073-488E-B50D-BDDC83B6941D";
name = "Regular Sep 6 16, 18:04";
paths = (
{
closed = 1;
nodes = (
"1082 0 LINE",
"1141 0 LINE",
"1245 -220 LINE",
"1275 -220 LINE",
"1260 25 LINE",
"1082 25 LINE"
);
},
{
closed = 1;
nodes = (
"486 437 LINE",
"390 437 LINE",
"329 438 OFFCURVE",
"282 490 OFFCURVE",
"260 572 CURVE",
"229 698 LINE",
"209 774 OFFCURVE",
"174 810 OFFCURVE",
"118 810 CURVE SMOOTH",
"69 810 OFFCURVE",
"36 783 OFFCURVE",
"36 741 CURVE SMOOTH",
"36 703 OFFCURVE",
"59 676 OFFCURVE",
"96 676 CURVE SMOOTH",
"116 676 LINE",
"124 698 OFFCURVE",
"139 719 OFFCURVE",
"166 719 CURVE SMOOTH",
"189 719 OFFCURVE",
"202 706 OFFCURVE",
"207 685 CURVE SMOOTH",
"238 559 LINE",
"255 497 OFFCURVE",
"286 452 OFFCURVE",
"327 434 CURVE",
"213 421 OFFCURVE",
"158 368 OFFCURVE",
"145 282 CURVE SMOOTH",
"122 131 LINE SMOOTH",
"111 64 OFFCURVE",
"102 41 OFFCURVE",
"79 36 CURVE SMOOTH",
"56 32 OFFCURVE",
"32 43 OFFCURVE",
"7 69 CURVE",
"-10 51 LINE",
"26 10 OFFCURVE",
"68 -10 OFFCURVE",
"117 -10 CURVE SMOOTH",
"192 -10 OFFCURVE",
"226 22 OFFCURVE",
"239 109 CURVE SMOOTH",
"263 278 LINE SMOOTH",
"276 370 OFFCURVE",
"312 413 OFFCURVE",
"412 413 CURVE SMOOTH",
"486 413 LINE",
"486 36 LINE",
"394 21 LINE",
"394 0 LINE",
"688 0 LINE",
"688 21 LINE",
"596 36 LINE",
"596 413 LINE",
"670 413 LINE SMOOTH",
"770 413 OFFCURVE",
"806 370 OFFCURVE",
"819 278 CURVE SMOOTH",
"843 109 LINE SMOOTH",
"856 22 OFFCURVE",
"890 -10 OFFCURVE",
"965 -10 CURVE SMOOTH",
"1014 -10 OFFCURVE",
"1056 10 OFFCURVE",
"1092 51 CURVE",
"1075 69 LINE",
"1050 43 OFFCURVE",
"1026 32 OFFCURVE",
"1003 36 CURVE SMOOTH",
"980 41 OFFCURVE",
"971 64 OFFCURVE",
"960 131 CURVE SMOOTH",
"937 282 LINE SMOOTH",
"924 368 OFFCURVE",
"869 421 OFFCURVE",
"755 434 CURVE",
"795 452 OFFCURVE",
"827 497 OFFCURVE",
"844 559 CURVE",
"875 685 LINE SMOOTH",
"880 706 OFFCURVE",
"893 719 OFFCURVE",
"916 719 CURVE SMOOTH",
"943 719 OFFCURVE",
"958 698 OFFCURVE",
"966 676 CURVE",
"986 676 LINE SMOOTH",
"1023 676 OFFCURVE",
"1046 703 OFFCURVE",
"1046 741 CURVE SMOOTH",
"1046 783 OFFCURVE",
"1013 810 OFFCURVE",
"964 810 CURVE SMOOTH",
"908 810 OFFCURVE",
"873 774 OFFCURVE",
"853 698 CURVE",
"822 572 LINE",
"799 491 OFFCURVE",
"753 439 OFFCURVE",
"693 437 CURVE",
"596 437 LINE",
"596 764 LINE",
"688 778 LINE",
"688 800 LINE",
"394 800 LINE",
"394 778 LINE",
"486 764 LINE"
);
}
);
visible = 1;
width = 1425;
}
);
leftKerningGroup = "Zhe-cy";
rightKerningGroup = "Kadescender-cy";
unicode = 0496;
},
{
glyphname = "Zedescender-cy";
layers = (
{
components = (
{
name = "Ze-cy";
}
);
layerId = UUID0;
paths = (
{
closed = 1;
nodes = (
"337 -220 LINE",
"383 -3 LINE",
"260 -3 LINE",
"306 -220 LINE"
);
}
);
width = 676;
}
);
leftKerningGroup = "Ze-cy";
leftMetricsKey = "Ze-cy";
rightKerningGroup = B;
rightMetricsKey = "Ze-cy";
unicode = 0498;
},
{
glyphname = "Kadescender-cy";
layers = (
{
layerId = UUID0;
paths = (
{
closed = 1;
nodes = (
"791 -220 LINE",
"776 25 LINE",
"697 25 LINE SMOOTH",
"655 25 OFFCURVE",
"634 44 OFFCURVE",
"618 121 CURVE SMOOTH",
"593 282 LINE SMOOTH",
"580 367 OFFCURVE",
"525 420 OFFCURVE",
"412 433 CURVE",
"452 452 OFFCURVE",
"484 496 OFFCURVE",
"500 559 CURVE SMOOTH",
"531 685 LINE SMOOTH",
"536 706 OFFCURVE",
"549 719 OFFCURVE",
"572 719 CURVE SMOOTH",
"599 719 OFFCURVE",
"614 698 OFFCURVE",
"622 676 CURVE",
"642 676 LINE SMOOTH",
"679 676 OFFCURVE",
"702 703 OFFCURVE",
"702 741 CURVE SMOOTH",
"702 783 OFFCURVE",
"663 810 OFFCURVE",
"620 810 CURVE SMOOTH",
"568 810 OFFCURVE",
"528 774 OFFCURVE",
"509 698 CURVE SMOOTH",
"478 572 LINE SMOOTH",
"457 490 OFFCURVE",
"409 439 OFFCURVE",
"349 437 CURVE SMOOTH",
"347 437 LINE",
"242 437 LINE",
"242 764 LINE",
"334 778 LINE",
"334 800 LINE",
"40 800 LINE",
"40 778 LINE",
"132 764 LINE",
"132 36 LINE",
"40 21 LINE",
"40 0 LINE",
"334 0 LINE",
"334 21 LINE",
"242 36 LINE",
"242 413 LINE",
"326 413 LINE SMOOTH",
"426 413 OFFCURVE",
"462 370 OFFCURVE",
"475 278 CURVE SMOOTH",
"499 109 LINE SMOOTH",
"512 29 OFFCURVE",
"546 0 OFFCURVE",
"621 0 CURVE SMOOTH",
"657 0 LINE",
"761 -220 LINE"
);
}
);
width = 739;
},
{
anchors = (
{
name = top;
position = "{356, 800}";
}
);
associatedMasterId = UUID0;
layerId = "D7D95750-44F5-4DB0-BD67-EFD4A0E10F02";
name = "Regular Sep 6 16, 18:07";
paths = (
{
closed = 1;
nodes = (
"240 437 LINE",
"240 764 LINE",
"332 778 LINE",
"332 800 LINE",
"38 800 LINE",
"38 778 LINE",
"130 764 LINE",
"130 36 LINE",
"38 21 LINE",
"38 0 LINE",
"332 0 LINE",
"332 21 LINE",
"240 36 LINE",
"240 413 LINE",
"324 413 LINE SMOOTH",
"424 413 OFFCURVE",
"460 370 OFFCURVE",
"473 278 CURVE SMOOTH",
"497 109 LINE SMOOTH",
"510 22 OFFCURVE",
"544 -10 OFFCURVE",
"619 -10 CURVE SMOOTH",
"668 -10 OFFCURVE",
"710 10 OFFCURVE",
"746 51 CURVE",
"729 69 LINE",
"704 43 OFFCURVE",
"680 32 OFFCURVE",
"657 36 CURVE SMOOTH",
"634 41 OFFCURVE",
"625 64 OFFCURVE",
"614 131 CURVE SMOOTH",
"591 282 LINE SMOOTH",
"578 367 OFFCURVE",
"523 420 OFFCURVE",
"410 433 CURVE",
"450 452 OFFCURVE",
"482 496 OFFCURVE",
"498 559 CURVE SMOOTH",
"529 685 LINE SMOOTH",
"534 706 OFFCURVE",
"547 719 OFFCURVE",
"570 719 CURVE SMOOTH",
"597 719 OFFCURVE",
"612 698 OFFCURVE",
"620 676 CURVE",
"640 676 LINE SMOOTH",
"677 676 OFFCURVE",
"700 703 OFFCURVE",
"700 741 CURVE SMOOTH",
"700 783 OFFCURVE",
"661 810 OFFCURVE",
"618 810 CURVE SMOOTH",
"566 810 OFFCURVE",
"526 774 OFFCURVE",
"507 698 CURVE SMOOTH",
"476 572 LINE SMOOTH",
"455 490 OFFCURVE",
"407 439 OFFCURVE",
"347 437 CURVE SMOOTH",
"345 437 LINE"
);
}
);
visible = 1;
width = 736;
}
);
leftKerningGroup = H;
rightKerningGroup = "Kadescender-cy";
unicode = 049A;
},
{
glyphname = "Kabashkir-cy";
layers = (
{
anchors = (
{
name = top;
position = "{503, 800}";
}
);
layerId = UUID0;
paths = (
{
closed = 1;
nodes = (
"815 -10 OFFCURVE",
"857 10 OFFCURVE",
"893 51 CURVE",
"876 69 LINE",
"851 43 OFFCURVE",
"827 32 OFFCURVE",
"804 36 CURVE SMOOTH",
"781 41 OFFCURVE",
"772 64 OFFCURVE",
"761 131 CURVE SMOOTH",
"738 282 LINE SMOOTH",
"725 367 OFFCURVE",
"670 420 OFFCURVE",
"557 433 CURVE",
"597 452 OFFCURVE",
"629 496 OFFCURVE",
"645 559 CURVE SMOOTH",
"676 685 LINE SMOOTH",
"681 706 OFFCURVE",
"694 719 OFFCURVE",
"717 719 CURVE SMOOTH",
"744 719 OFFCURVE",
"759 698 OFFCURVE",
"767 676 CURVE",
"787 676 LINE SMOOTH",
"824 676 OFFCURVE",
"847 703 OFFCURVE",
"847 741 CURVE SMOOTH",
"847 783 OFFCURVE",
"808 810 OFFCURVE",
"765 810 CURVE SMOOTH",
"713 810 OFFCURVE",
"673 774 OFFCURVE",
"654 698 CURVE SMOOTH",
"623 572 LINE SMOOTH",
"602 490 OFFCURVE",
"554 439 OFFCURVE",
"494 437 CURVE SMOOTH",
"492 437 LINE",
"387 437 LINE",
"387 673 LINE",
"277 673 LINE",
"277 36 LINE",
"185 21 LINE",
"185 0 LINE",
"479 0 LINE",
"479 21 LINE",
"387 36 LINE",
"387 413 LINE",
"471 413 LINE SMOOTH",
"571 413 OFFCURVE",
"607 370 OFFCURVE",
"620 278 CURVE SMOOTH",
"644 109 LINE SMOOTH",
"657 22 OFFCURVE",
"691 -10 OFFCURVE",
"766 -10 CURVE SMOOTH"
);
},
{
closed = 1;
nodes = (
"44 577 LINE",
"120 775 LINE",
"277 775 LINE",
"277 673 LINE",
"387 673 LINE",
"387 764 LINE",
"479 779 LINE",
"479 800 LINE",
"15 800 LINE",
"15 577 LINE"
);
}
);
width = 883;
}
);
leftKerningGroup = T;
leftMetricsKey = "Hardsign-cy";
rightKerningGroup = "Ka-cy";
rightMetricsKey = "Ka-cy";
unicode = 04A0;
},
{
glyphname = "Endescender-cy";
layers = (
{
layerId = UUID0;
paths = (
{
closed = 1;
nodes = (
"832 -220 LINE",
"817 25 LINE",
"731 25 LINE",
"731 764 LINE",
"824 778 LINE",
"824 800 LINE",
"529 800 LINE",
"529 778 LINE",
"622 764 LINE",
"622 436 LINE",
"242 436 LINE",
"242 764 LINE",
"334 778 LINE",
"334 800 LINE",
"40 800 LINE",
"40 778 LINE",
"132 764 LINE",
"132 36 LINE",
"40 21 LINE",
"40 0 LINE",
"334 0 LINE",
"334 21 LINE",
"242 36 LINE",
"242 411 LINE",
"622 411 LINE",
"622 0 LINE",
"698 0 LINE",
"802 -220 LINE"
);
},
{
closed = 1;
nodes = (
"622 0 LINE",
"667 43 LINE",
"529 22 LINE",
"529 0 LINE"
);
}
);
width = 872;
}
);
leftKerningGroup = H;
leftMetricsKey = H;
rightKerningGroup = "Tse-cy";
rightMetricsKey = "Tse-cy";
unicode = 04A2;
},
{
glyphname = "Pedescender-cy";
layers = (
{
layerId = UUID0;
paths = (
{
closed = 1;
nodes = (
"823 -220 LINE",
"808 25 LINE",
"722 25 LINE",
"722 764 LINE",
"815 778 LINE",
"815 800 LINE",
"40 800 LINE",
"40 778 LINE",
"132 764 LINE",
"132 36 LINE",
"40 21 LINE",
"40 0 LINE",
"334 0 LINE",
"334 21 LINE",
"242 36 LINE",
"242 775 LINE",
"612 775 LINE",
"612 36 LINE",
"520 21 LINE",
"520 0 LINE",
"689 0 LINE",
"793 -220 LINE"
);
}
);
width = 863;
}
);
leftKerningGroup = H;
rightKerningGroup = "Tse-cy";
rightMetricsKey = "Tse-cy";
unicode = 0524;
},
{
glyphname = "Esdescender-cy";
layers = (
{
components = (
{
name = "Es-cy";
}
);
layerId = UUID0;
paths = (
{
closed = 1;
nodes = (
"425 -220 LINE",
"471 -3 LINE",
"348 -3 LINE",
"394 -220 LINE"
);
}
);
width = 746;
}
);
leftKerningGroup = O;
leftMetricsKey = C;
rightKerningGroup = C;
rightMetricsKey = C;
unicode = 04AA;
},
{
glyphname = "Chedescender-cy";
layers = (
{
layerId = UUID0;
paths = (
{
closed = 1;
nodes = (
"777 -220 LINE",
"762 25 LINE",
"677 25 LINE",
"677 764 LINE",
"770 778 LINE",
"770 800 LINE",
"475 800 LINE",
"475 778 LINE",
"568 764 LINE",
"568 399 LINE",
"568 399 OFFCURVE",
"496 355 OFFCURVE",
"373 355 CURVE SMOOTH",
"261 355 OFFCURVE",
"218 415 OFFCURVE",
"218 534 CURVE SMOOTH",
"218 764 LINE",
"310 778 LINE",
"310 800 LINE",
"16 800 LINE",
"16 778 LINE",
"108 764 LINE",
"108 532 LINE SMOOTH",
"108 394 OFFCURVE",
"168 332 OFFCURVE",
"373 332 CURVE SMOOTH",
"490 332 OFFCURVE",
"568 373 OFFCURVE",
"568 373 CURVE",
"568 0 LINE",
"643 0 LINE",
"747 -220 LINE"
);
},
{
closed = 1;
nodes = (
"568 0 LINE",
"613 43 LINE",
"445 22 LINE",
"445 0 LINE"
);
}
);
width = 817;
}
);
leftKerningGroup = "Che-cy";
leftMetricsKey = "Che-cy";
rightKerningGroup = "Tse-cy";
rightMetricsKey = "Tse-cy";
unicode = 04B6;
},
{
glyphname = "Chekhakassian-cy";
layers = (
{
layerId = UUID0;
paths = (
{
closed = 1;
nodes = (
"498 -220 LINE",
"602 0 LINE",
"677 0 LINE",
"677 764 LINE",
"770 778 LINE",
"770 800 LINE",
"475 800 LINE",
"475 778 LINE",
"568 764 LINE",
"568 399 LINE",
"568 399 OFFCURVE",
"496 355 OFFCURVE",
"373 355 CURVE SMOOTH",
"261 355 OFFCURVE",
"218 415 OFFCURVE",
"218 534 CURVE SMOOTH",
"218 764 LINE",
"310 778 LINE",
"310 800 LINE",
"16 800 LINE",
"16 778 LINE",
"108 764 LINE",
"108 532 LINE SMOOTH",
"108 394 OFFCURVE",
"168 332 OFFCURVE",
"373 332 CURVE SMOOTH",
"490 332 OFFCURVE",
"568 373 OFFCURVE",
"568 373 CURVE",
"568 25 LINE",
"483 25 LINE",
"468 -220 LINE"
);
},
{
closed = 1;
nodes = (
"770 0 LINE",
"770 22 LINE",
"632 43 LINE",
"677 0 LINE"
);
}
);
width = 810;
}
);
leftKerningGroup = "Che-cy";
leftMetricsKey = "Che-cy";
rightKerningGroup = H;
rightMetricsKey = "Che-cy";
unicode = 04CB;
},
{
glyphname = "Schwa-cy";
layers = (
{
layerId = UUID0;
paths = (
{
closed = 1;
nodes = (
"600 -20 OFFCURVE",
"741 151 OFFCURVE",
"741 400 CURVE SMOOTH",
"741 650 OFFCURVE",
"591 820 OFFCURVE",
"364 820 CURVE SMOOTH",
"299 820 OFFCURVE",
"230 798 OFFCURVE",
"176 763 CURVE",
"109 820 LINE",
"88 820 LINE",
"88 572 LINE",
"109 572 LINE",
"171 727 LINE",
"222 769 OFFCURVE",
"296 797 OFFCURVE",
"364 797 CURVE SMOOTH",
"509 797 OFFCURVE",
"611 686 OFFCURVE",
"611 492 CURVE SMOOTH",
"611 309 LINE SMOOTH",
"611 115 OFFCURVE",
"518 3 OFFCURVE",
"379 3 CURVE SMOOTH",
"258 3 OFFCURVE",
"177 115 OFFCURVE",
"177 309 CURVE SMOOTH",
"177 400 LINE",
"47 400 LINE",
"47 151 OFFCURVE",
"177 -20 OFFCURVE",
"379 -20 CURVE SMOOTH"
);
},
{
closed = 1;
nodes = (
"664 375 LINE",
"664 400 LINE",
"84 400 LINE",
"84 375 LINE"
);
}
);
width = 795;
}
);
leftKerningGroup = "Ereversed-cy";
rightKerningGroup = O;
rightMetricsKey = O;
unicode = 04D8;
},
{
glyphname = "Obarred-cy";
layers = (
{
components = (
{
name = O;
}
);
layerId = UUID0;
paths = (
{
closed = 1;
nodes = (
"716 411 LINE",
"716 436 LINE",
"136 436 LINE",
"136 411 LINE"
);
}
);
width = 862;
}
);
leftKerningGroup = O;
leftMetricsKey = O;
rightKerningGroup = O;
rightMetricsKey = O;
unicode = 04E8;
},
{
glyphname = "Uhungarumlaut-cy";
layers = (
{
components = (
{
name = "U-cy";
}
);
layerId = UUID0;
paths = (
{
closed = 1;
nodes = (
"403 927 LINE",
"413 930 OFFCURVE",
"422 940 OFFCURVE",
"426 951 CURVE SMOOTH",
"433 972 OFFCURVE",
"422 995 OFFCURVE",
"403 1002 CURVE SMOOTH",
"387 1008 OFFCURVE",
"371 1003 OFFCURVE",
"359 993 CURVE SMOOTH",
"217 857 LINE",
"226 842 LINE"
);
},
{
closed = 1;
nodes = (
"583 920 LINE",
"593 922 OFFCURVE",
"603 931 OFFCURVE",
"608 942 CURVE SMOOTH",
"617 962 OFFCURVE",
"608 986 OFFCURVE",
"589 995 CURVE SMOOTH",
"574 1002 OFFCURVE",
"557 999 OFFCURVE",
"545 989 CURVE SMOOTH",
"391 866 LINE",
"399 851 LINE"
);
}
);
width = 727;
}
);
leftKerningGroup = "U-cy";
rightKerningGroup = "U-cy";
unicode = 04F2;
},
{
glyphname = "Gedescender-cy";
layers = (
{
layerId = UUID0;
paths = (
{
closed = 1;
nodes = (
"343 -220 LINE",
"328 25 LINE",
"242 25 LINE",
"242 775 LINE",
"528 775 LINE",
"603 577 LINE",
"633 577 LINE",
"633 800 LINE",
"40 800 LINE",
"40 775 LINE",
"132 760 LINE",
"132 36 LINE",
"40 21 LINE",
"40 0 LINE",
"209 0 LINE",
"313 -220 LINE"
);
}
);
width = 654;
}
);
leftKerningGroup = H;
leftMetricsKey = H;
rightKerningGroup = "Ge-cy";
rightMetricsKey = "Ge-cy";
unicode = 04F6;
},
{
glyphname = "be-cy";
layers = (
{
layerId = UUID0;
paths = (
{
closed = 1;
nodes = (
"452 -10 OFFCURVE",
"567 93 OFFCURVE",
"567 254 CURVE SMOOTH",
"567 415 OFFCURVE",
"452 518 OFFCURVE",
"318 518 CURVE SMOOTH",
"207 518 OFFCURVE",
"115 448 OFFCURVE",
"86 333 CURVE",
"80 333 LINE",
"80 573 OFFCURVE",
"196 630 OFFCURVE",
"318 630 CURVE SMOOTH",
"400 630 LINE SMOOTH",
"501 630 OFFCURVE",
"537 675 OFFCURVE",
"537 800 CURVE",
"513 800 LINE",
"513 754 OFFCURVE",
"483 730 OFFCURVE",
"415 730 CURVE SMOOTH",
"335 730 LINE SMOOTH",
"157 730 OFFCURVE",
"50 594 OFFCURVE",
"50 333 CURVE SMOOTH",
"50 87 OFFCURVE",
"171 -10 OFFCURVE",
"318 -10 CURVE SMOOTH"
);
},
{
closed = 1;
nodes = (
"222 14 OFFCURVE",
"179 91 OFFCURVE",
"179 204 CURVE SMOOTH",
"179 304 LINE SMOOTH",
"179 417 OFFCURVE",
"222 494 OFFCURVE",
"318 494 CURVE SMOOTH",
"414 494 OFFCURVE",
"457 417 OFFCURVE",
"457 304 CURVE SMOOTH",
"457 204 LINE SMOOTH",
"457 91 OFFCURVE",
"414 14 OFFCURVE",
"318 14 CURVE SMOOTH"
);
}
);
width = 610;
},
{
associatedMasterId = UUID0;
layerId = "4AA6CF8C-76B6-4FFC-9B1A-13153CB6B86F";
name = "1";
paths = (
{
closed = 1;
nodes = (
"516 800 LINE",
"516 754 OFFCURVE",
"486 730 OFFCURVE",
"418 730 CURVE SMOOTH",
"367 730 LINE SMOOTH",
"299 730 OFFCURVE",
"242 721 OFFCURVE",
"195 692 CURVE SMOOTH",
"95 630 OFFCURVE",
"45 499 OFFCURVE",
"45 333 CURVE SMOOTH",
"45 120 OFFCURVE",
"167 -10 OFFCURVE",
"317 -10 CURVE SMOOTH",
"460 -10 OFFCURVE",
"576 93 OFFCURVE",
"576 254 CURVE SMOOTH",
"576 415 OFFCURVE",
"460 518 OFFCURVE",
"317 518 CURVE SMOOTH",
"204 518 OFFCURVE",
"107 448 OFFCURVE",
"76 333 CURVE",
"69 333 LINE",
"69 473 OFFCURVE",
"119 580 OFFCURVE",
"234 617 CURVE SMOOTH",
"271 629 OFFCURVE",
"316 630 OFFCURVE",
"367 630 CURVE SMOOTH",
"403 630 LINE SMOOTH",
"504 630 OFFCURVE",
"540 675 OFFCURVE",
"540 800 CURVE"
);
},
{
closed = 1;
nodes = (
"466 204 LINE SMOOTH",
"466 91 OFFCURVE",
"420 14 OFFCURVE",
"317 14 CURVE SMOOTH",
"214 14 OFFCURVE",
"168 91 OFFCURVE",
"168 204 CURVE SMOOTH",
"168 304 LINE SMOOTH",
"168 417 OFFCURVE",
"214 494 OFFCURVE",
"317 494 CURVE SMOOTH",
"420 494 OFFCURVE",
"466 417 OFFCURVE",
"466 304 CURVE SMOOTH"
);
}
);
width = 617;
},
{
associatedMasterId = UUID0;
layerId = "1ADC5F4C-C757-4018-ABF6-233A06CADB67";
name = "Sep 9 16, 12:27";
paths = (
{
closed = 1;
nodes = (
"527 800 LINE",
"527 754 OFFCURVE",
"497 730 OFFCURVE",
"429 730 CURVE SMOOTH",
"355 730 LINE SMOOTH",
"164 730 OFFCURVE",
"50 594 OFFCURVE",
"50 333 CURVE SMOOTH",
"50 87 OFFCURVE",
"178 -10 OFFCURVE",
"328 -10 CURVE SMOOTH",
"471 -10 OFFCURVE",
"587 93 OFFCURVE",
"587 254 CURVE SMOOTH",
"587 415 OFFCURVE",
"471 518 OFFCURVE",
"328 518 CURVE SMOOTH",
"215 518 OFFCURVE",
"117 448 OFFCURVE",
"86 333 CURVE",
"80 333 LINE",
"80 573 OFFCURVE",
"205 630 OFFCURVE",
"338 630 CURVE SMOOTH",
"414 630 LINE SMOOTH",
"515 630 OFFCURVE",
"551 675 OFFCURVE",
"551 800 CURVE"
);
},
{
closed = 1;
nodes = (
"477 204 LINE SMOOTH",
"477 91 OFFCURVE",
"431 14 OFFCURVE",
"328 14 CURVE SMOOTH",
"225 14 OFFCURVE",
"179 91 OFFCURVE",
"179 204 CURVE SMOOTH",
"179 304 LINE SMOOTH",
"179 417 OFFCURVE",
"225 494 OFFCURVE",
"328 494 CURVE SMOOTH",
"431 494 OFFCURVE",
"477 417 OFFCURVE",
"477 304 CURVE SMOOTH"
);
}
);
width = 630;
},
{
associatedMasterId = UUID0;
background = {
components = (
{
name = o;
transform = "{1, 0, 0, 1, 4, 0}";
}
);
};
layerId = "10F5B37F-0DCF-4199-B93D-AD6BAF4BB561";
name = "Sep 9 16, 14:35";
paths = (
{
closed = 1;
nodes = (
"527 800 LINE",
"527 754 OFFCURVE",
"497 730 OFFCURVE",
"429 730 CURVE SMOOTH",
"335 730 LINE SMOOTH",
"157 730 OFFCURVE",
"50 594 OFFCURVE",
"50 333 CURVE SMOOTH",
"50 87 OFFCURVE",
"169 -10 OFFCURVE",
"308 -10 CURVE SMOOTH",
"451 -10 OFFCURVE",
"567 93 OFFCURVE",
"567 254 CURVE SMOOTH",
"567 415 OFFCURVE",
"451 518 OFFCURVE",
"308 518 CURVE SMOOTH",
"205 518 OFFCURVE",
"115 448 OFFCURVE",
"86 333 CURVE",
"80 333 LINE",
"80 573 OFFCURVE",
"196 630 OFFCURVE",
"318 630 CURVE SMOOTH",
"414 630 LINE SMOOTH",
"515 630 OFFCURVE",
"551 675 OFFCURVE",
"551 800 CURVE"
);
},
{
closed = 1;
nodes = (
"457 204 LINE SMOOTH",
"457 91 OFFCURVE",
"411 14 OFFCURVE",
"308 14 CURVE SMOOTH",
"219 14 OFFCURVE",
"179 91 OFFCURVE",
"179 204 CURVE SMOOTH",
"179 304 LINE SMOOTH",
"179 417 OFFCURVE",
"219 494 OFFCURVE",
"308 494 CURVE SMOOTH",
"411 494 OFFCURVE",
"457 417 OFFCURVE",
"457 304 CURVE SMOOTH"
);
}
);
visible = 1;
width = 610;
}
);
leftKerningGroup = "be-cy";
rightKerningGroup = o;
rightMetricsKey = o;
unicode = 0431;
},
{
glyphname = "ve-cy";
layers = (
{
layerId = UUID0;
paths = (
{
closed = 1;
nodes = (
"333 0 LINE SMOOTH",
"451 0 OFFCURVE",
"526 45 OFFCURVE",
"526 140 CURVE SMOOTH",
"526 216 OFFCURVE",
"475 261 OFFCURVE",
"374 275 CURVE",
"374 278 LINE",
"452 295 OFFCURVE",
"492 335 OFFCURVE",
"492 397 CURVE SMOOTH",
"492 482 OFFCURVE",
"439 518 OFFCURVE",
"301 518 CURVE SMOOTH",
"27 518 LINE",
"27 498 LINE",
"97 488 LINE",
"97 30 LINE",
"27 20 LINE",
"27 0 LINE"
);
},
{
closed = 1;
nodes = (
"197 260 LINE",
"303 260 LINE SMOOTH",
"377 260 OFFCURVE",
"418 223 OFFCURVE",
"418 146 CURVE SMOOTH",
"418 139 LINE SMOOTH",
"418 64 OFFCURVE",
"376 25 OFFCURVE",
"303 25 CURVE SMOOTH",
"197 25 LINE"
);
},
{
closed = 1;
nodes = (
"197 493 LINE",
"271 493 LINE SMOOTH",
"347 493 OFFCURVE",
"384 462 OFFCURVE",
"384 396 CURVE SMOOTH",
"384 392 LINE SMOOTH",
"384 320 OFFCURVE",
"346 284 OFFCURVE",
"277 284 CURVE SMOOTH",
"197 284 LINE"
);
}
);
width = 563;
}
);
leftKerningGroup = n;
leftMetricsKey = n;
rightKerningGroup = "ve-cy";
unicode = 0432;
},
{
glyphname = "ge-cy";
layers = (
{
anchors = (
{
name = bottomright;
position = "{237, 0}";
},
{
name = top;
position = "{247, 518}";
}
);
layerId = UUID0;
paths = (
{
closed = 1;
nodes = (
"287 0 LINE",
"287 20 LINE",
"197 30 LINE",
"197 493 LINE",
"363 493 LINE",
"451 328 LINE",
"479 328 LINE",
"464 518 LINE",
"27 518 LINE",
"27 498 LINE",
"97 488 LINE",
"97 30 LINE",
"27 20 LINE",
"27 0 LINE"
);
}
);
width = 500;
}
);
leftKerningGroup = n;
leftMetricsKey = n;
rightKerningGroup = "ge-cy";
unicode = 0433;
},
{
glyphname = "gheupturn-cy";
layers = (
{
layerId = UUID0;
paths = (
{
closed = 1;
nodes = (
"287 0 LINE",
"287 20 LINE",
"197 30 LINE",
"197 493 LINE",
"464 493 LINE",
"479 683 LINE",
"451 683 LINE",
"363 518 LINE",
"27 518 LINE",
"27 498 LINE",
"97 488 LINE",
"97 30 LINE",
"27 20 LINE",
"27 0 LINE"
);
}
);
width = 486;
}
);
leftKerningGroup = n;
rightKerningGroup = "ge-cy";
unicode = 0491;
},
{
glyphname = "de-cy";
layers = (
{
background = {
paths = (
{
closed = 1;
nodes = (
"171 336 LINE SMOOTH",
"161 160 OFFCURVE",
"118 46 OFFCURVE",
"56 46 CURVE SMOOTH",
"44 46 OFFCURVE",
"39 52 OFFCURVE",
"40 60 CURVE SMOOTH",
"39 68 OFFCURVE",
"45 79 OFFCURVE",
"55 88 CURVE",
"55 88 OFFCURVE",
"40 117 OFFCURVE",
"4 117 CURVE SMOOTH",
"-26 117 OFFCURVE",
"-54 96 OFFCURVE",
"-53 57 CURVE SMOOTH",
"-54 12 OFFCURVE",
"-24 -10 OFFCURVE",
"21 -10 CURVE SMOOTH",
"136 -10 OFFCURVE",
"184 140 OFFCURVE",
"195 335 CURVE SMOOTH",
"203 493 LINE",
"348 493 LINE",
"348 31 LINE",
"286 21 LINE",
"286 0 LINE",
"520 0 LINE",
"520 21 LINE",
"448 31 LINE",
"448 488 LINE",
"518 498 LINE",
"518 518 LINE",
"86 518 LINE",
"86 498 LINE",
"177 455 LINE"
);
}
);
};
layerId = UUID0;
paths = (
{
closed = 1;
nodes = (
"8 -165 LINE",
"95 0 LINE",
"417 0 LINE",
"505 -165 LINE",
"533 -165 LINE",
"518 25 LINE",
"447 25 LINE",
"447 488 LINE",
"517 498 LINE",
"517 518 LINE",
"62 518 LINE",
"62 498 LINE",
"153 455 LINE",
"145 335 LINE SMOOTH",
"135 189 OFFCURVE",
"125 141 OFFCURVE",
"107 99 CURVE SMOOTH",
"85 49 OFFCURVE",
"55 25 OFFCURVE",
"27 25 CURVE SMOOTH",
"-5 25 LINE",
"-20 -165 LINE"
);
},
{
closed = 1;
nodes = (
"85 25 OFFCURVE",
"112 44 OFFCURVE",
"132 94 CURVE SMOOTH",
"147 132 OFFCURVE",
"160 181 OFFCURVE",
"170 335 CURVE SMOOTH",
"181 497 LINE",
"167 493 LINE",
"347 493 LINE",
"347 25 LINE",
"85 25 LINE"
);
}
);
width = 540;
},
{
associatedMasterId = UUID0;
layerId = "6BF681CD-6455-4E65-B74B-9FC30CBD49C5";
name = old;
paths = (
{
closed = 1;
nodes = (
"542 518 LINE",
"46 518 LINE",
"46 498 LINE",
"128 452 LINE",
"128 259 LINE SMOOTH",
"128 96 OFFCURVE",
"75 25 OFFCURVE",
"12 25 CURVE SMOOTH",
"-10 25 LINE",
"-25 -165 LINE",
"3 -165 LINE",
"90 0 LINE",
"442 0 LINE",
"530 -165 LINE",
"558 -165 LINE",
"543 25 LINE",
"472 25 LINE",
"472 488 LINE",
"542 498 LINE"
);
},
{
closed = 1;
nodes = (
"153 452 LINE",
"228 493 LINE",
"372 493 LINE",
"372 25 LINE",
"80 25 LINE",
"126 63 OFFCURVE",
"153 144 OFFCURVE",
"153 260 CURVE"
);
}
);
visible = 1;
width = 564;
},
{
associatedMasterId = UUID0;
layerId = "7D771480-7C48-4C0A-A62A-4E1CD3C463FC";
name = "Sep 9 16, 12:06";
paths = (
{
closed = 1;
nodes = (
"3 -165 LINE",
"90 0 LINE",
"442 0 LINE",
"530 -165 LINE",
"558 -165 LINE",
"543 25 LINE",
"472 25 LINE",
"472 488 LINE",
"542 498 LINE",
"542 518 LINE",
"65 518 LINE",
"65 498 LINE",
"156 455 LINE",
"148 335 LINE SMOOTH",
"138 189 OFFCURVE",
"127 141 OFFCURVE",
"110 99 CURVE SMOOTH",
"89 48 OFFCURVE",
"58 25 OFFCURVE",
"30 25 CURVE SMOOTH",
"-10 25 LINE",
"-25 -165 LINE"
);
},
{
closed = 1;
nodes = (
"88 25 OFFCURVE",
"115 44 OFFCURVE",
"135 94 CURVE SMOOTH",
"150 132 OFFCURVE",
"163 181 OFFCURVE",
"173 335 CURVE SMOOTH",
"184 497 LINE",
"170 493 LINE",
"372 493 LINE",
"372 25 LINE",
"88 25 LINE"
);
}
);
width = 564;
},
{
associatedMasterId = UUID0;
background = {
paths = (
{
closed = 1;
nodes = (
"196 336 LINE SMOOTH",
"186 160 OFFCURVE",
"143 46 OFFCURVE",
"81 46 CURVE SMOOTH",
"69 46 OFFCURVE",
"64 52 OFFCURVE",
"65 60 CURVE SMOOTH",
"64 68 OFFCURVE",
"70 79 OFFCURVE",
"80 88 CURVE",
"80 88 OFFCURVE",
"65 117 OFFCURVE",
"29 117 CURVE SMOOTH",
"-1 117 OFFCURVE",
"-29 96 OFFCURVE",
"-28 57 CURVE SMOOTH",
"-29 12 OFFCURVE",
"1 -10 OFFCURVE",
"46 -10 CURVE SMOOTH",
"161 -10 OFFCURVE",
"209 140 OFFCURVE",
"220 335 CURVE SMOOTH",
"228 493 LINE",
"373 493 LINE",
"373 31 LINE",
"311 21 LINE",
"311 0 LINE",
"545 0 LINE",
"545 21 LINE",
"473 31 LINE",
"473 488 LINE",
"543 498 LINE",
"543 518 LINE",
"111 518 LINE",
"111 498 LINE",
"202 455 LINE"
);
}
);
};
layerId = "AA29DA02-F7FF-4B74-9C8F-B9684B3EADBE";
name = "Sep 9 16, 14:43";
paths = (
{
closed = 1;
nodes = (
"33 -165 LINE",
"120 0 LINE",
"442 0 LINE",
"530 -165 LINE",
"558 -165 LINE",
"543 25 LINE",
"472 25 LINE",
"472 488 LINE",
"542 498 LINE",
"542 518 LINE",
"95 518 LINE",
"95 498 LINE",
"186 455 LINE",
"178 335 LINE SMOOTH",
"169 189 OFFCURVE",
"158 141 OFFCURVE",
"140 99 CURVE SMOOTH",
"120 48 OFFCURVE",
"88 25 OFFCURVE",
"60 25 CURVE SMOOTH",
"20 25 LINE",
"5 -165 LINE"
);
},
{
closed = 1;
nodes = (
"118 25 OFFCURVE",
"145 44 OFFCURVE",
"165 94 CURVE SMOOTH",
"180 132 OFFCURVE",
"193 181 OFFCURVE",
"203 335 CURVE SMOOTH",
"214 497 LINE",
"200 493 LINE",
"372 493 LINE",
"372 25 LINE",
"118 25 LINE"
);
}
);
width = 565;
}
);
leftKerningGroup = "de-cy";
rightKerningGroup = "tse-cy";
rightMetricsKey = "=en-cy-20";
unicode = 0434;
},
{
glyphname = "zhe-cy";
layers = (
{
anchors = (
{
name = top;
position = "{425, 518}";
}
);
layerId = UUID0;
paths = (
{
closed = 1;
nodes = (
"150 -12 OFFCURVE",
"174 12 OFFCURVE",
"185 69 CURVE SMOOTH",
"205 177 LINE",
"216 243 OFFCURVE",
"246 262 OFFCURVE",
"292 263 CURVE SMOOTH",
"296 263 LINE",
"297 263 LINE",
"375 263 LINE",
"375 31 LINE",
"303 20 LINE",
"303 0 LINE",
"547 0 LINE",
"547 20 LINE",
"475 31 LINE",
"475 263 LINE",
"553 263 LINE SMOOTH",
"602 263 OFFCURVE",
"632 246 OFFCURVE",
"645 177 CURVE SMOOTH",
"665 69 LINE SMOOTH",
"676 12 OFFCURVE",
"700 -12 OFFCURVE",
"759 -12 CURVE SMOOTH",
"791 -12 OFFCURVE",
"829 3 OFFCURVE",
"855 33 CURVE",
"840 48 LINE",
"827 35 OFFCURVE",
"815 30 OFFCURVE",
"805 30 CURVE SMOOTH",
"785 30 OFFCURVE",
"776 41 OFFCURVE",
"768 85 CURVE SMOOTH",
"751 173 LINE",
"739 241 OFFCURVE",
"705 276 OFFCURVE",
"614 284 CURVE",
"630 299 OFFCURVE",
"641 322 OFFCURVE",
"648 350 CURVE SMOOTH",
"667 422 LINE SMOOTH",
"672 440 OFFCURVE",
"682 450 OFFCURVE",
"699 450 CURVE SMOOTH",
"720 450 OFFCURVE",
"734 429 OFFCURVE",
"724 402 CURVE",
"780 383 OFFCURVE",
"814 419 OFFCURVE",
"814 460 CURVE SMOOTH",
"814 495 OFFCURVE",
"789 527 OFFCURVE",
"738 527 CURVE SMOOTH",
"676 527 OFFCURVE",
"656 487 OFFCURVE",
"642 429 CURVE SMOOTH",
"624 357 LINE SMOOTH",
"611 306 OFFCURVE",
"591 287 OFFCURVE",
"558 286 CURVE",
"475 286 LINE",
"475 487 LINE",
"547 497 LINE",
"547 518 LINE",
"303 518 LINE",
"303 497 LINE",
"375 487 LINE",
"375 286 LINE",
"296 286 LINE",
"292 286 LINE",
"290 286 LINE SMOOTH",
"257 288 OFFCURVE",
"238 306 OFFCURVE",
"226 357 CURVE SMOOTH",
"208 429 LINE SMOOTH",
"194 487 OFFCURVE",
"174 527 OFFCURVE",
"112 527 CURVE SMOOTH",
"61 527 OFFCURVE",
"36 495 OFFCURVE",
"36 460 CURVE SMOOTH",
"36 419 OFFCURVE",
"70 383 OFFCURVE",
"126 402 CURVE",
"116 429 OFFCURVE",
"130 450 OFFCURVE",
"151 450 CURVE SMOOTH",
"168 450 OFFCURVE",
"178 440 OFFCURVE",
"183 422 CURVE SMOOTH",
"202 350 LINE SMOOTH",
"209 322 OFFCURVE",
"219 299 OFFCURVE",
"235 284 CURVE",
"145 276 OFFCURVE",
"111 241 OFFCURVE",
"99 173 CURVE",
"82 85 LINE SMOOTH",
"74 41 OFFCURVE",
"65 30 OFFCURVE",
"45 30 CURVE SMOOTH",
"35 30 OFFCURVE",
"23 35 OFFCURVE",
"10 48 CURVE",
"-5 33 LINE",
"21 3 OFFCURVE",
"59 -12 OFFCURVE",
"91 -12 CURVE SMOOTH"
);
}
);
width = 850;
}
);
leftKerningGroup = "zhe-cy";
rightKerningGroup = "ka-cy";
unicode = 0436;
},
{
glyphname = "ze-cy";
layers = (
{
anchors = (
{
name = top;
position = "{252, 518}";
}
);
layerId = UUID0;
paths = (
{
closed = 1;
nodes = (
"415 -10 OFFCURVE",
"490 48 OFFCURVE",
"490 140 CURVE SMOOTH",
"490 216 OFFCURVE",
"437 265 OFFCURVE",
"328 276 CURVE",
"328 277 LINE",
"421 292 OFFCURVE",
"466 335 OFFCURVE",
"466 397 CURVE SMOOTH",
"466 482 OFFCURVE",
"406 527 OFFCURVE",
"254 527 CURVE SMOOTH",
"203 527 OFFCURVE",
"164 512 OFFCURVE",
"137 498 CURVE",
"77 527 LINE",
"66 337 LINE",
"87 337 LINE",
"147 480 LINE",
"171 494 OFFCURVE",
"207 508 OFFCURVE",
"252 508 CURVE SMOOTH",
"332 508 OFFCURVE",
"358 461 OFFCURVE",
"358 396 CURVE SMOOTH",
"358 392 LINE SMOOTH",
"358 320 OFFCURVE",
"316 284 OFFCURVE",
"241 284 CURVE SMOOTH",
"185 284 LINE",
"185 260 LINE",
"241 260 LINE SMOOTH",
"315 260 OFFCURVE",
"382 223 OFFCURVE",
"382 146 CURVE SMOOTH",
"382 133 LINE SMOOTH",
"382 49 OFFCURVE",
"325 9 OFFCURVE",
"249 9 CURVE SMOOTH",
"182 9 OFFCURVE",
"139 43 OFFCURVE",
"139 88 CURVE SMOOTH",
"139 103 OFFCURVE",
"145 117 OFFCURVE",
"156 130 CURVE",
"148 155 OFFCURVE",
"125 168 OFFCURVE",
"101 168 CURVE SMOOTH",
"62 168 OFFCURVE",
"37 140 OFFCURVE",
"37 101 CURVE SMOOTH",
"37 44 OFFCURVE",
"89 -10 OFFCURVE",
"249 -10 CURVE SMOOTH"
);
}
);
width = 532;
},
{
associatedMasterId = UUID0;
layerId = "5F5C6053-78AE-4D32-9E69-A5A36581D3CD";
name = "Regular Sep 6 16, 20:42";
paths = (
{
closed = 1;
nodes = (
"183 260 LINE",
"239 260 LINE SMOOTH",
"313 260 OFFCURVE",
"380 223 OFFCURVE",
"380 146 CURVE SMOOTH",
"380 133 LINE SMOOTH",
"380 49 OFFCURVE",
"323 9 OFFCURVE",
"247 9 CURVE SMOOTH",
"180 9 OFFCURVE",
"137 43 OFFCURVE",
"137 88 CURVE SMOOTH",
"137 103 OFFCURVE",
"143 117 OFFCURVE",
"154 130 CURVE",
"146 155 OFFCURVE",
"123 168 OFFCURVE",
"99 168 CURVE SMOOTH",
"60 168 OFFCURVE",
"35 140 OFFCURVE",
"35 101 CURVE SMOOTH",
"35 44 OFFCURVE",
"87 -10 OFFCURVE",
"247 -10 CURVE SMOOTH",
"413 -10 OFFCURVE",
"488 48 OFFCURVE",
"488 140 CURVE SMOOTH",
"488 216 OFFCURVE",
"435 265 OFFCURVE",
"326 276 CURVE",
"326 277 LINE",
"413 292 OFFCURVE",
"454 335 OFFCURVE",
"454 397 CURVE SMOOTH",
"454 482 OFFCURVE",
"397 527 OFFCURVE",
"252 527 CURVE SMOOTH",
"201 527 OFFCURVE",
"162 512 OFFCURVE",
"135 498 CURVE",
"75 527 LINE",
"64 337 LINE",
"85 337 LINE",
"145 480 LINE",
"169 494 OFFCURVE",
"205 508 OFFCURVE",
"250 508 CURVE SMOOTH",
"322 508 OFFCURVE",
"346 461 OFFCURVE",
"346 396 CURVE SMOOTH",
"346 392 LINE SMOOTH",
"346 320 OFFCURVE",
"308 284 OFFCURVE",
"239 284 CURVE SMOOTH",
"183 284 LINE"
);
}
);
visible = 1;
width = 528;
}
);
leftKerningGroup = "ze-cy";
rightKerningGroup = "ve-cy";
unicode = 0437;
},
{
glyphname = "ii-cy";
layers = (
{
anchors = (
{
name = top;
position = "{326, 518}";
}
);
layerId = UUID0;
paths = (
{
closed = 1;
nodes = (
"257 0 LINE",
"257 20 LINE",
"197 30 LINE",
"197 56 LINE",
"450 426 LINE",
"450 30 LINE",
"390 20 LINE",
"390 0 LINE",
"620 0 LINE",
"620 20 LINE",
"550 30 LINE",
"550 488 LINE",
"620 498 LINE",
"620 518 LINE",
"390 518 LINE",
"390 498 LINE",
"450 488 LINE",
"450 468 LINE",
"197 99 LINE",
"197 488 LINE",
"257 498 LINE",
"257 518 LINE",
"27 518 LINE",
"27 498 LINE",
"97 488 LINE",
"97 30 LINE",
"27 20 LINE",
"27 0 LINE"
);
}
);
width = 647;
}
);
leftKerningGroup = n;
rightKerningGroup = u;
unicode = 0438;
},
{
glyphname = "ka-cy";
layers = (
{
anchors = (
{
name = center;
position = "{274, 275}";
},
{
name = top;
position = "{304, 518}";
}
);
layerId = UUID0;
paths = (
{
closed = 1;
nodes = (
"525 -10 OFFCURVE",
"563 5 OFFCURVE",
"589 35 CURVE",
"574 50 LINE",
"561 37 OFFCURVE",
"549 32 OFFCURVE",
"539 32 CURVE SMOOTH",
"519 32 OFFCURVE",
"511 43 OFFCURVE",
"502 87 CURVE SMOOTH",
"485 173 LINE SMOOTH",
"472 241 OFFCURVE",
"438 276 OFFCURVE",
"348 284 CURVE",
"364 299 OFFCURVE",
"374 322 OFFCURVE",
"382 350 CURVE SMOOTH",
"401 422 LINE SMOOTH",
"406 440 OFFCURVE",
"416 450 OFFCURVE",
"433 450 CURVE SMOOTH",
"454 450 OFFCURVE",
"468 429 OFFCURVE",
"458 402 CURVE",
"514 383 OFFCURVE",
"548 419 OFFCURVE",
"548 460 CURVE SMOOTH",
"548 495 OFFCURVE",
"523 527 OFFCURVE",
"472 527 CURVE SMOOTH",
"410 527 OFFCURVE",
"390 487 OFFCURVE",
"376 429 CURVE SMOOTH",
"358 357 LINE SMOOTH",
"345 306 OFFCURVE",
"326 288 OFFCURVE",
"293 286 CURVE",
"199 286 LINE",
"199 487 LINE",
"271 497 LINE",
"271 518 LINE",
"27 518 LINE",
"27 497 LINE",
"99 487 LINE",
"99 31 LINE",
"27 20 LINE",
"27 0 LINE",
"271 0 LINE",
"271 20 LINE",
"199 31 LINE",
"199 263 LINE",
"287 263 LINE",
"288 263 LINE",
"292 263 LINE SMOOTH",
"338 262 OFFCURVE",
"366 243 OFFCURVE",
"379 177 CURVE SMOOTH",
"399 71 LINE SMOOTH",
"410 14 OFFCURVE",
"434 -10 OFFCURVE",
"493 -10 CURVE SMOOTH"
);
}
);
width = 584;
}
);
leftKerningGroup = n;
leftMetricsKey = n;
rightKerningGroup = "ka-cy";
unicode = 043A;
},
{
glyphname = "el-cy";
layers = (
{
layerId = UUID0;
paths = (
{
closed = 1;
nodes = (
"187 -10 OFFCURVE",
"225 100 OFFCURVE",
"237 335 CURVE SMOOTH",
"245 493 LINE",
"407 493 LINE",
"407 31 LINE",
"345 21 LINE",
"345 0 LINE",
"579 0 LINE",
"579 21 LINE",
"507 31 LINE",
"507 488 LINE",
"577 498 LINE",
"577 518 LINE",
"128 518 LINE",
"128 498 LINE",
"219 455 LINE",
"213 336 LINE SMOOTH",
"202 120 OFFCURVE",
"169 46 OFFCURVE",
"130 46 CURVE SMOOTH",
"115 46 OFFCURVE",
"110 54 OFFCURVE",
"110 62 CURVE SMOOTH",
"110 70 OFFCURVE",
"113 79 OFFCURVE",
"123 88 CURVE",
"123 88 OFFCURVE",
"109 117 OFFCURVE",
"73 117 CURVE SMOOTH",
"43 117 OFFCURVE",
"15 96 OFFCURVE",
"15 57 CURVE SMOOTH",
"15 12 OFFCURVE",
"45 -10 OFFCURVE",
"90 -10 CURVE SMOOTH"
);
}
);
width = 606;
},
{
associatedMasterId = UUID0;
layerId = "01661C94-F2B1-49FE-BDCD-E33D7D5F3AC9";
name = old;
paths = (
{
closed = 1;
nodes = (
"583 518 LINE",
"87 518 LINE",
"87 497 LINE",
"182 446 LINE",
"182 228 LINE SMOOTH",
"182 79 OFFCURVE",
"155 43 OFFCURVE",
"119 43 CURVE SMOOTH",
"97 43 OFFCURVE",
"83 76 OFFCURVE",
"113 104 CURVE",
"113 104 OFFCURVE",
"97 138 OFFCURVE",
"54 138 CURVE SMOOTH",
"21 138 OFFCURVE",
"-10 115 OFFCURVE",
"-10 71 CURVE SMOOTH",
"-10 17 OFFCURVE",
"32 -11 OFFCURVE",
"87 -10 CURVE SMOOTH",
"161 -9 OFFCURVE",
"207 44 OFFCURVE",
"207 228 CURVE SMOOTH",
"207 446 LINE",
"294 493 LINE",
"413 493 LINE",
"413 31 LINE",
"351 21 LINE",
"351 0 LINE",
"585 0 LINE",
"585 21 LINE",
"513 31 LINE",
"513 488 LINE",
"583 498 LINE"
);
}
);
width = 611;
},
{
associatedMasterId = UUID0;
layerId = "0FD67286-E2B7-40D3-8333-0AB74C5C2D0A";
name = "Sep 9 16, 12:03";
paths = (
{
closed = 1;
nodes = (
"196 336 LINE SMOOTH",
"188 187 OFFCURVE",
"179 113 OFFCURVE",
"166 77 CURVE SMOOTH",
"158 54 OFFCURVE",
"142 46 OFFCURVE",
"131 46 CURVE SMOOTH",
"115 46 OFFCURVE",
"105 55 OFFCURVE",
"105 72 CURVE SMOOTH",
"105 84 OFFCURVE",
"111 94 OFFCURVE",
"122 104 CURVE",
"122 104 OFFCURVE",
"106 138 OFFCURVE",
"63 138 CURVE SMOOTH",
"29 138 OFFCURVE",
"-4 114 OFFCURVE",
"-4 68 CURVE SMOOTH",
"-4 16 OFFCURVE",
"31 -10 OFFCURVE",
"86 -10 CURVE SMOOTH",
"131 -10 OFFCURVE",
"171 12 OFFCURVE",
"190 67 CURVE SMOOTH",
"207 116 OFFCURVE",
"213 203 OFFCURVE",
"220 335 CURVE SMOOTH",
"228 493 LINE",
"413 493 LINE",
"413 31 LINE",
"351 21 LINE",
"351 0 LINE",
"585 0 LINE",
"585 21 LINE",
"513 31 LINE",
"513 488 LINE",
"583 498 LINE",
"583 518 LINE",
"111 518 LINE",
"111 498 LINE",
"202 455 LINE"
);
}
);
width = 611;
},
{
associatedMasterId = UUID0;
layerId = "1744A083-3D18-476C-9902-B2257C74A5ED";
name = "Sep 9 16, 14:40";
paths = (
{
closed = 1;
nodes = (
"237 336 LINE SMOOTH",
"228 160 OFFCURVE",
"185 46 OFFCURVE",
"122 46 CURVE SMOOTH",
"111 46 OFFCURVE",
"105 52 OFFCURVE",
"105 60 CURVE SMOOTH",
"105 68 OFFCURVE",
"110 79 OFFCURVE",
"120 88 CURVE",
"120 88 OFFCURVE",
"106 117 OFFCURVE",
"70 117 CURVE SMOOTH",
"40 117 OFFCURVE",
"12 96 OFFCURVE",
"12 57 CURVE SMOOTH",
"12 12 OFFCURVE",
"42 -10 OFFCURVE",
"87 -10 CURVE SMOOTH",
"202 -10 OFFCURVE",
"251 140 OFFCURVE",
"261 335 CURVE SMOOTH",
"269 493 LINE",
"414 493 LINE",
"414 31 LINE",
"352 21 LINE",
"352 0 LINE",
"586 0 LINE",
"586 21 LINE",
"514 31 LINE",
"514 488 LINE",
"584 498 LINE",
"584 518 LINE",
"152 518 LINE",
"152 498 LINE",
"243 455 LINE"
);
}
);
visible = 1;
width = 613;
}
);
leftKerningGroup = "el-cy";
rightKerningGroup = u;
rightMetricsKey = "en-cy";
unicode = 043B;
},
{
glyphname = "em-cy";
layers = (
{
layerId = UUID0;
paths = (
{
closed = 1;
nodes = (
"204 0 LINE",
"204 20 LINE",
"128 50 LINE",
"128 485 LINE",
"337 0 LINE",
"349 0 LINE",
"556 485 LINE",
"556 30 LINE",
"496 20 LINE",
"496 0 LINE",
"726 0 LINE",
"726 20 LINE",
"656 30 LINE",
"656 488 LINE",
"726 498 LINE",
"726 518 LINE",
"542 518 LINE",
"385 144 LINE",
"227 518 LINE",
"33 518 LINE",
"33 498 LINE",
"103 489 LINE",
"103 50 LINE",
"27 20 LINE",
"27 0 LINE"
);
}
);
width = 753;
}
);
leftKerningGroup = n;
leftMetricsKey = "en-cy";
rightKerningGroup = u;
rightMetricsKey = "en-cy";
unicode = 043C;
},
{
glyphname = "en-cy";
layers = (
{
layerId = UUID0;
paths = (
{
closed = 1;
nodes = (
"257 0 LINE",
"257 20 LINE",
"197 30 LINE",
"197 250 LINE",
"444 250 LINE",
"444 30 LINE",
"384 20 LINE",
"384 0 LINE",
"614 0 LINE",
"614 20 LINE",
"544 30 LINE",
"544 488 LINE",
"614 498 LINE",
"614 518 LINE",
"384 518 LINE",
"384 498 LINE",
"444 488 LINE",
"444 275 LINE",
"197 275 LINE",
"197 488 LINE",
"257 498 LINE",
"257 518 LINE",
"27 518 LINE",
"27 498 LINE",
"97 488 LINE",
"97 30 LINE",
"27 20 LINE",
"27 0 LINE"
);
}
);
width = 641;
}
);
leftKerningGroup = n;
rightKerningGroup = n;
unicode = 043D;
},
{
glyphname = "pe-cy";
layers = (
{
layerId = UUID0;
paths = (
{
closed = 1;
nodes = (
"257 0 LINE",
"257 20 LINE",
"197 30 LINE",
"197 493 LINE",
"437 493 LINE",
"437 30 LINE",
"377 20 LINE",
"377 0 LINE",
"607 0 LINE",
"607 20 LINE",
"537 30 LINE",
"537 488 LINE",
"607 498 LINE",
"607 518 LINE",
"27 518 LINE",
"27 498 LINE",
"97 488 LINE",
"97 30 LINE",
"27 20 LINE",
"27 0 LINE"
);
}
);
width = 634;
}
);
leftKerningGroup = n;
rightKerningGroup = u;
unicode = 043F;
},
{
glyphname = "te-cy";
layers = (
{
layerId = UUID0;
paths = (
{
closed = 1;
nodes = (
"402 0 LINE",
"402 20 LINE",
"322 30 LINE",
"322 493 LINE",
"407 493 LINE",
"495 328 LINE",
"523 328 LINE",
"508 518 LINE",
"36 518 LINE",
"21 328 LINE",
"49 328 LINE",
"136 493 LINE",
"222 493 LINE",
"222 30 LINE",
"142 20 LINE",
"142 0 LINE"
);
}
);
width = 544;
}
);
leftKerningGroup = "te-cy";
rightKerningGroup = "te-cy";
unicode = 0442;
},
{
glyphname = "ef-cy";
layers = (
{
layerId = UUID0;
paths = (
{
closed = 1;
nodes = (
"493 -283 LINE",
"493 -263 LINE",
"423 -253 LINE",
"423 -10 LINE",
"580 -10 OFFCURVE",
"703 102 OFFCURVE",
"703 259 CURVE SMOOTH",
"703 417 OFFCURVE",
"579 527 OFFCURVE",
"423 527 CURVE",
"423 800 LINE",
"253 800 LINE",
"253 780 LINE",
"323 770 LINE",
"323 527 LINE",
"167 527 OFFCURVE",
"43 417 OFFCURVE",
"43 259 CURVE SMOOTH",
"43 102 OFFCURVE",
"166 -10 OFFCURVE",
"323 -10 CURVE",
"323 -253 LINE",
"253 -263 LINE",
"253 -283 LINE"
);
},
{
closed = 1;
nodes = (
"214 12 OFFCURVE",
"153 90 OFFCURVE",
"153 209 CURVE SMOOTH",
"153 309 LINE SMOOTH",
"153 429 OFFCURVE",
"213 505 OFFCURVE",
"323 505 CURVE",
"323 12 LINE"
);
},
{
closed = 1;
nodes = (
"423 505 LINE",
"533 505 OFFCURVE",
"593 429 OFFCURVE",
"593 309 CURVE SMOOTH",
"593 209 LINE SMOOTH",
"593 90 OFFCURVE",
"532 12 OFFCURVE",
"423 12 CURVE"
);
}
);
width = 746;
}
);
leftKerningGroup = o;
leftMetricsKey = o;
rightKerningGroup = o;
rightMetricsKey = o;
unicode = 0444;
},
{
glyphname = "che-cy";
layers = (
{
anchors = (
{
name = center;
position = "{305, 212}";
},
{
name = top;
position = "{295, 518}";
}
);
layerId = UUID0;
paths = (
{
closed = 1;
nodes = (
"582 0 LINE",
"582 20 LINE",
"512 30 LINE",
"512 488 LINE",
"582 498 LINE",
"582 518 LINE",
"352 518 LINE",
"352 498 LINE",
"412 488 LINE",
"412 251 LINE",
"390 238 OFFCURVE",
"344 218 OFFCURVE",
"275 218 CURVE SMOOTH",
"201 218 OFFCURVE",
"176 261 OFFCURVE",
"176 332 CURVE SMOOTH",
"176 488 LINE",
"236 498 LINE",
"236 518 LINE",
"6 518 LINE",
"6 498 LINE",
"76 488 LINE",
"76 332 LINE SMOOTH",
"76 225 OFFCURVE",
"146 188 OFFCURVE",
"249 188 CURVE SMOOTH",
"329 188 OFFCURVE",
"385 210 OFFCURVE",
"412 224 CURVE",
"412 30 LINE",
"312 20 LINE",
"312 0 LINE"
);
}
);
width = 609;
}
);
leftKerningGroup = "che-cy";
rightKerningGroup = u;
unicode = 0447;
},
{
glyphname = "tse-cy";
layers = (
{
layerId = UUID0;
paths = (
{
closed = 1;
nodes = (
"617 -165 LINE",
"602 25 LINE",
"531 25 LINE",
"531 488 LINE",
"601 498 LINE",
"601 518 LINE",
"371 518 LINE",
"371 498 LINE",
"431 488 LINE",
"431 25 LINE",
"197 25 LINE",
"197 488 LINE",
"257 498 LINE",
"257 518 LINE",
"27 518 LINE",
"27 498 LINE",
"97 488 LINE",
"97 30 LINE",
"27 20 LINE",
"27 0 LINE",
"501 0 LINE",
"589 -165 LINE"
);
}
);
width = 624;
}
);
leftKerningGroup = n;
leftMetricsKey = "en-cy";
rightKerningGroup = "tse-cy";
rightMetricsKey = "=en-cy-20";
unicode = 0446;
},
{
glyphname = "sha-cy";
layers = (
{
layerId = UUID0;
paths = (
{
closed = 1;
nodes = (
"857 0 LINE",
"857 20 LINE",
"787 30 LINE",
"787 488 LINE",
"857 498 LINE",
"857 518 LINE",
"617 518 LINE",
"617 498 LINE",
"687 488 LINE",
"687 25 LINE",
"492 25 LINE",
"492 488 LINE",
"562 498 LINE",
"562 518 LINE",
"322 518 LINE",
"322 498 LINE",
"392 488 LINE",
"392 25 LINE",
"197 25 LINE",
"197 488 LINE",
"267 498 LINE",
"267 518 LINE",
"27 518 LINE",
"27 498 LINE",
"97 488 LINE",
"97 30 LINE",
"27 20 LINE",
"27 0 LINE"
);
}
);
width = 884;
}
);
leftKerningGroup = n;
leftMetricsKey = "en-cy";
rightKerningGroup = u;
rightMetricsKey = "en-cy";
unicode = 0448;
},
{
glyphname = "shcha-cy";
layers = (
{
layerId = UUID0;
paths = (
{
closed = 1;
nodes = (
"873 -165 LINE",
"858 25 LINE",
"787 25 LINE",
"787 488 LINE",
"857 498 LINE",
"857 518 LINE",
"617 518 LINE",
"617 498 LINE",
"687 488 LINE",
"687 25 LINE",
"492 25 LINE",
"492 488 LINE",
"562 498 LINE",
"562 518 LINE",
"322 518 LINE",
"322 498 LINE",
"392 488 LINE",
"392 25 LINE",
"197 25 LINE",
"197 488 LINE",
"267 498 LINE",
"267 518 LINE",
"27 518 LINE",
"27 498 LINE",
"97 488 LINE",
"97 30 LINE",
"27 20 LINE",
"27 0 LINE",
"757 0 LINE",
"845 -165 LINE"
);
}
);
width = 880;
}
);
leftKerningGroup = n;
leftMetricsKey = "en-cy";
rightKerningGroup = "tse-cy";
rightMetricsKey = "=en-cy-20";
unicode = 0449;
},
{
glyphname = "dzhe-cy";
layers = (
{
layerId = UUID0;
paths = (
{
closed = 1;
nodes = (
"604 0 LINE",
"604 20 LINE",
"534 30 LINE",
"534 488 LINE",
"604 498 LINE",
"604 518 LINE",
"374 518 LINE",
"374 498 LINE",
"434 488 LINE",
"434 25 LINE",
"197 25 LINE",
"197 488 LINE",
"257 498 LINE",
"257 518 LINE",
"27 518 LINE",
"27 498 LINE",
"97 488 LINE",
"97 30 LINE",
"27 20 LINE",
"27 0 LINE"
);
},
{
closed = 1;
nodes = (
"328 -164 LINE",
"366 15 LINE",
"267 15 LINE",
"305 -164 LINE"
);
}
);
width = 631;
}
);
leftKerningGroup = n;
leftMetricsKey = "en-cy";
rightKerningGroup = u;
rightMetricsKey = "en-cy";
unicode = 045F;
},
{
glyphname = "softsign-cy";
layers = (
{
layerId = UUID0;
paths = (
{
closed = 1;
nodes = (
"333 0 LINE SMOOTH",
"451 0 OFFCURVE",
"526 50 OFFCURVE",
"526 150 CURVE SMOOTH",
"526 250 OFFCURVE",
"451 300 OFFCURVE",
"333 300 CURVE SMOOTH",
"197 300 LINE",
"197 488 LINE",
"267 498 LINE",
"267 518 LINE",
"27 518 LINE",
"27 498 LINE",
"97 488 LINE",
"97 30 LINE",
"27 20 LINE",
"27 0 LINE"
);
},
{
closed = 1;
nodes = (
"197 275 LINE",
"303 275 LINE SMOOTH",
"376 275 OFFCURVE",
"418 231 OFFCURVE",
"418 151 CURVE SMOOTH",
"418 149 LINE SMOOTH",
"418 69 OFFCURVE",
"376 25 OFFCURVE",
"303 25 CURVE SMOOTH",
"197 25 LINE"
);
}
);
width = 542;
}
);
leftKerningGroup = n;
rightKerningGroup = "softsign-cy";
unicode = 044C;
},
{
glyphname = "hardsign-cy";
layers = (
{
layerId = UUID0;
paths = (
{
closed = 1;
nodes = (
"443 0 LINE SMOOTH",
"561 0 OFFCURVE",
"636 50 OFFCURVE",
"636 150 CURVE SMOOTH",
"636 250 OFFCURVE",
"561 300 OFFCURVE",
"443 300 CURVE SMOOTH",
"317 300 LINE",
"317 488 LINE",
"387 498 LINE",
"387 518 LINE",
"36 518 LINE",
"21 328 LINE",
"49 328 LINE",
"136 493 LINE",
"217 493 LINE",
"217 30 LINE",
"147 20 LINE",
"147 0 LINE"
);
},
{
closed = 1;
nodes = (
"317 275 LINE",
"413 275 LINE SMOOTH",
"486 275 OFFCURVE",
"528 231 OFFCURVE",
"528 151 CURVE SMOOTH",
"528 149 LINE SMOOTH",
"528 69 OFFCURVE",
"486 25 OFFCURVE",
"413 25 CURVE SMOOTH",
"317 25 LINE"
);
}
);
width = 652;
}
);
leftKerningGroup = "te-cy";
leftMetricsKey = "te-cy";
rightKerningGroup = "softsign-cy";
unicode = 044A;
},
{
glyphname = "yeru-cy";
layers = (
{
anchors = (
{
name = top;
position = "{399, 518}";
}
);
layerId = UUID0;
paths = (
{
closed = 1;
nodes = (
"323 0 LINE SMOOTH",
"441 0 OFFCURVE",
"516 50 OFFCURVE",
"516 150 CURVE SMOOTH",
"516 250 OFFCURVE",
"441 300 OFFCURVE",
"323 300 CURVE SMOOTH",
"197 300 LINE",
"197 488 LINE",
"267 498 LINE",
"267 518 LINE",
"27 518 LINE",
"27 498 LINE",
"97 488 LINE",
"97 30 LINE",
"27 20 LINE",
"27 0 LINE"
);
},
{
closed = 1;
nodes = (
"197 275 LINE",
"293 275 LINE SMOOTH",
"366 275 OFFCURVE",
"408 231 OFFCURVE",
"408 151 CURVE SMOOTH",
"408 149 LINE SMOOTH",
"408 69 OFFCURVE",
"366 25 OFFCURVE",
"293 25 CURVE SMOOTH",
"197 25 LINE"
);
},
{
closed = 1;
nodes = (
"768 0 LINE",
"768 20 LINE",
"698 30 LINE",
"698 488 LINE",
"768 498 LINE",
"768 518 LINE",
"528 518 LINE",
"528 498 LINE",
"598 488 LINE",
"598 30 LINE",
"528 20 LINE",
"528 0 LINE"
);
}
);
width = 795;
},
{
anchors = (
{
name = top;
position = "{398, 518}";
}
);
associatedMasterId = UUID0;
layerId = "38E6734A-C0E1-423C-BF72-E806057373C1";
name = old;
paths = (
{
closed = 1;
nodes = (
"96 488 LINE",
"96 30 LINE",
"26 20 LINE",
"26 0 LINE",
"332 0 LINE SMOOTH",
"450 0 OFFCURVE",
"525 50 OFFCURVE",
"525 150 CURVE SMOOTH",
"525 250 OFFCURVE",
"450 300 OFFCURVE",
"332 300 CURVE SMOOTH",
"196 300 LINE",
"196 488 LINE",
"266 498 LINE",
"266 518 LINE",
"26 518 LINE",
"26 498 LINE"
);
},
{
closed = 1;
nodes = (
"196 275 LINE",
"302 275 LINE SMOOTH",
"375 275 OFFCURVE",
"417 231 OFFCURVE",
"417 151 CURVE SMOOTH",
"417 149 LINE SMOOTH",
"417 69 OFFCURVE",
"375 25 OFFCURVE",
"302 25 CURVE SMOOTH",
"196 25 LINE"
);
},
{
closed = 1;
nodes = (
"597 30 LINE",
"597 488 LINE",
"527 498 LINE",
"527 518 LINE",
"767 518 LINE",
"767 498 LINE",
"697 488 LINE",
"697 30 LINE",
"767 20 LINE",
"767 0 LINE",
"527 0 LINE",
"527 20 LINE"
);
}
);
visible = 1;
width = 793;
}
);
leftKerningGroup = n;
leftMetricsKey = "en-cy";
rightKerningGroup = u;
rightMetricsKey = "en-cy";
unicode = 044B;
},
{
glyphname = "lje-cy";
layers = (
{
layerId = UUID0;
paths = (
{
closed = 1;
nodes = (
"187 -10 OFFCURVE",
"225 100 OFFCURVE",
"237 335 CURVE SMOOTH",
"245 493 LINE",
"407 493 LINE",
"407 30 LINE",
"337 20 LINE",
"337 0 LINE",
"643 0 LINE SMOOTH",
"761 0 OFFCURVE",
"836 50 OFFCURVE",
"836 150 CURVE SMOOTH",
"836 250 OFFCURVE",
"761 300 OFFCURVE",
"643 300 CURVE SMOOTH",
"507 300 LINE",
"507 488 LINE",
"577 498 LINE",
"577 518 LINE",
"128 518 LINE",
"128 498 LINE",
"219 455 LINE",
"213 336 LINE SMOOTH",
"202 120 OFFCURVE",
"169 46 OFFCURVE",
"130 46 CURVE SMOOTH",
"115 46 OFFCURVE",
"110 54 OFFCURVE",
"110 62 CURVE SMOOTH",
"110 70 OFFCURVE",
"113 79 OFFCURVE",
"123 88 CURVE",
"123 88 OFFCURVE",
"109 117 OFFCURVE",
"73 117 CURVE SMOOTH",
"43 117 OFFCURVE",
"15 96 OFFCURVE",
"15 57 CURVE SMOOTH",
"15 12 OFFCURVE",
"45 -10 OFFCURVE",
"90 -10 CURVE SMOOTH"
);
},
{
closed = 1;
nodes = (
"507 275 LINE",
"613 275 LINE SMOOTH",
"686 275 OFFCURVE",
"728 231 OFFCURVE",
"728 151 CURVE SMOOTH",
"728 149 LINE SMOOTH",
"728 69 OFFCURVE",
"686 25 OFFCURVE",
"613 25 CURVE SMOOTH",
"507 25 LINE"
);
}
);
width = 852;
}
);
leftKerningGroup = "el-cy";
leftMetricsKey = "el-cy";
rightKerningGroup = "softsign-cy";
rightMetricsKey = "softsign-cy";
unicode = 0459;
},
{
glyphname = "nje-cy";
layers = (
{
guideLines = (
{
position = "{320, 275}";
},
{
angle = 180;
position = "{320, 250}";
}
);
layerId = UUID0;
paths = (
{
closed = 1;
nodes = (
"683 0 LINE SMOOTH",
"798 0 OFFCURVE",
"871 46 OFFCURVE",
"871 137 CURVE SMOOTH",
"871 229 OFFCURVE",
"798 275 OFFCURVE",
"683 275 CURVE SMOOTH",
"542 275 LINE",
"542 488 LINE",
"612 498 LINE",
"612 518 LINE",
"372 518 LINE",
"372 498 LINE",
"442 488 LINE",
"442 30 LINE",
"372 20 LINE",
"372 0 LINE"
);
},
{
closed = 1;
nodes = (
"257 0 LINE",
"257 20 LINE",
"197 30 LINE",
"197 250 LINE",
"442 250 LINE",
"442 275 LINE",
"197 275 LINE",
"197 488 LINE",
"257 498 LINE",
"257 518 LINE",
"27 518 LINE",
"27 498 LINE",
"97 488 LINE",
"97 30 LINE",
"27 20 LINE",
"27 0 LINE"
);
},
{
closed = 1;
nodes = (
"542 250 LINE",
"653 250 LINE SMOOTH",
"723 250 OFFCURVE",
"763 210 OFFCURVE",
"763 138 CURVE SMOOTH",
"763 136 LINE SMOOTH",
"763 65 OFFCURVE",
"723 25 OFFCURVE",
"653 25 CURVE SMOOTH",
"542 25 LINE"
);
}
);
width = 887;
}
);
leftKerningGroup = n;
leftMetricsKey = "en-cy";
rightKerningGroup = "softsign-cy";
rightMetricsKey = "softsign-cy";
unicode = 045A;
},
{
glyphname = "e-cy";
layers = (
{
layerId = UUID0;
paths = (
{
closed = 1;
nodes = (
"357 -9 OFFCURVE",
"401 8 OFFCURVE",
"430 22 CURVE",
"494 -9 LINE",
"505 181 LINE",
"484 181 LINE",
"428 48 LINE",
"401 31 OFFCURVE",
"358 12 OFFCURVE",
"302 12 CURVE SMOOTH",
"206 12 OFFCURVE",
"153 85 OFFCURVE",
"153 209 CURVE SMOOTH",
"153 254 LINE",
"383 254 LINE",
"383 279 LINE",
"153 279 LINE",
"153 309 LINE SMOOTH",
"153 428 OFFCURVE",
"203 506 OFFCURVE",
"302 506 CURVE SMOOTH",
"369 506 OFFCURVE",
"412 475 OFFCURVE",
"412 430 CURVE SMOOTH",
"412 415 OFFCURVE",
"406 401 OFFCURVE",
"395 388 CURVE",
"403 363 OFFCURVE",
"426 350 OFFCURVE",
"450 350 CURVE SMOOTH",
"489 350 OFFCURVE",
"514 378 OFFCURVE",
"514 417 CURVE SMOOTH",
"514 474 OFFCURVE",
"462 528 OFFCURVE",
"302 528 CURVE SMOOTH",
"148 528 OFFCURVE",
"43 419 OFFCURVE",
"43 259 CURVE SMOOTH",
"43 103 OFFCURVE",
"147 -9 OFFCURVE",
"302 -9 CURVE SMOOTH"
);
}
);
width = 558;
},
{
associatedMasterId = UUID0;
layerId = "2E9D853F-D873-4994-97D9-3F9ADF94D209";
name = "Regular Sep 6 16, 17:07";
paths = (
{
closed = 1;
nodes = (
"166 255 LINE",
"396 255 LINE",
"396 209 LINE SMOOTH",
"396 90 OFFCURVE",
"346 12 OFFCURVE",
"247 12 CURVE SMOOTH",
"180 12 OFFCURVE",
"137 43 OFFCURVE",
"137 88 CURVE SMOOTH",
"137 103 OFFCURVE",
"143 117 OFFCURVE",
"154 130 CURVE",
"146 155 OFFCURVE",
"123 168 OFFCURVE",
"99 168 CURVE SMOOTH",
"60 168 OFFCURVE",
"35 140 OFFCURVE",
"35 101 CURVE SMOOTH",
"35 44 OFFCURVE",
"87 -10 OFFCURVE",
"247 -10 CURVE SMOOTH",
"320 -10 OFFCURVE",
"382 15 OFFCURVE",
"432 64 CURVE",
"481 114 OFFCURVE",
"506 179 OFFCURVE",
"506 259 CURVE SMOOTH",
"506 342 OFFCURVE",
"480 407 OFFCURVE",
"429 455 CURVE SMOOTH",
"378 503 OFFCURVE",
"317 527 OFFCURVE",
"247 527 CURVE SMOOTH",
"192 527 OFFCURVE",
"148 510 OFFCURVE",
"119 496 CURVE",
"55 527 LINE",
"44 337 LINE",
"65 337 LINE",
"121 470 LINE",
"148 487 OFFCURVE",
"191 506 OFFCURVE",
"247 506 CURVE SMOOTH",
"343 506 OFFCURVE",
"396 433 OFFCURVE",
"396 309 CURVE SMOOTH",
"396 280 LINE",
"166 280 LINE"
);
}
);
width = 600;
},
{
associatedMasterId = UUID0;
layerId = "8C068B16-EF42-49A5-AFB5-544A24A14F1C";
name = "Regular Sep 6 16, 17:08";
paths = (
{
closed = 1;
nodes = (
"381 279 LINE",
"151 279 LINE",
"151 308 LINE SMOOTH",
"151 427 OFFCURVE",
"201 505 OFFCURVE",
"300 505 CURVE SMOOTH",
"367 505 OFFCURVE",
"410 474 OFFCURVE",
"410 429 CURVE SMOOTH",
"410 414 OFFCURVE",
"404 400 OFFCURVE",
"393 387 CURVE",
"401 362 OFFCURVE",
"424 349 OFFCURVE",
"448 349 CURVE SMOOTH",
"487 349 OFFCURVE",
"512 377 OFFCURVE",
"512 416 CURVE SMOOTH",
"512 473 OFFCURVE",
"460 527 OFFCURVE",
"300 527 CURVE SMOOTH",
"227 527 OFFCURVE",
"165 502 OFFCURVE",
"115 453 CURVE",
"66 403 OFFCURVE",
"41 338 OFFCURVE",
"41 258 CURVE SMOOTH",
"41 175 OFFCURVE",
"67 110 OFFCURVE",
"118 62 CURVE SMOOTH",
"169 14 OFFCURVE",
"230 -10 OFFCURVE",
"300 -10 CURVE SMOOTH",
"355 -10 OFFCURVE",
"399 7 OFFCURVE",
"428 21 CURVE",
"492 -10 LINE",
"503 180 LINE",
"482 180 LINE",
"426 47 LINE",
"399 30 OFFCURVE",
"356 11 OFFCURVE",
"300 11 CURVE SMOOTH",
"204 11 OFFCURVE",
"151 84 OFFCURVE",
"151 208 CURVE SMOOTH",
"151 254 LINE",
"381 254 LINE"
);
}
);
width = 549;
},
{
associatedMasterId = UUID0;
layerId = "5F1878FA-302D-437C-A654-765AFF9008E2";
name = "1";
paths = (
{
closed = 1;
nodes = (
"87 254 LINE",
"381 254 LINE",
"381 279 LINE",
"87 279 LINE"
);
},
{
closed = 1;
nodes = (
"377 505 OFFCURVE",
"410 462 OFFCURVE",
"410 415 CURVE SMOOTH",
"410 400 OFFCURVE",
"404 386 OFFCURVE",
"393 373 CURVE",
"401 348 OFFCURVE",
"424 335 OFFCURVE",
"448 335 CURVE SMOOTH",
"487 335 OFFCURVE",
"512 363 OFFCURVE",
"512 402 CURVE SMOOTH",
"512 461 OFFCURVE",
"464 527 OFFCURVE",
"310 527 CURVE SMOOTH",
"168 527 OFFCURVE",
"41 432 OFFCURVE",
"41 259 CURVE SMOOTH",
"41 96 OFFCURVE",
"157 -10 OFFCURVE",
"300 -10 CURVE SMOOTH",
"405 -10 OFFCURVE",
"485 53 OFFCURVE",
"504 152 CURVE",
"481 152 LINE",
"465 68 OFFCURVE",
"390 12 OFFCURVE",
"300 12 CURVE SMOOTH",
"197 12 OFFCURVE",
"151 96 OFFCURVE",
"151 209 CURVE SMOOTH",
"151 309 LINE SMOOTH",
"151 432 OFFCURVE",
"204 505 OFFCURVE",
"310 505 CURVE SMOOTH"
);
}
);
visible = 1;
width = 549;
}
);
leftKerningGroup = o;
leftMetricsKey = c;
rightKerningGroup = c;
rightMetricsKey = "=c+5";
unicode = 0454;
},
{
glyphname = "ereversed-cy";
layers = (
{
layerId = UUID0;
paths = (
{
closed = 1;
nodes = (
"403 -10 OFFCURVE",
"508 99 OFFCURVE",
"508 259 CURVE SMOOTH",
"508 415 OFFCURVE",
"404 527 OFFCURVE",
"249 527 CURVE SMOOTH",
"194 527 OFFCURVE",
"150 510 OFFCURVE",
"121 496 CURVE",
"57 527 LINE",
"46 337 LINE",
"67 337 LINE",
"123 470 LINE",
"150 487 OFFCURVE",
"193 506 OFFCURVE",
"249 506 CURVE SMOOTH",
"345 506 OFFCURVE",
"398 433 OFFCURVE",
"398 309 CURVE SMOOTH",
"398 280 LINE",
"168 280 LINE",
"168 255 LINE",
"398 255 LINE",
"398 209 LINE SMOOTH",
"398 90 OFFCURVE",
"348 12 OFFCURVE",
"249 12 CURVE SMOOTH",
"182 12 OFFCURVE",
"139 43 OFFCURVE",
"139 88 CURVE SMOOTH",
"139 103 OFFCURVE",
"145 117 OFFCURVE",
"156 130 CURVE",
"148 155 OFFCURVE",
"125 168 OFFCURVE",
"101 168 CURVE SMOOTH",
"62 168 OFFCURVE",
"37 140 OFFCURVE",
"37 101 CURVE SMOOTH",
"37 44 OFFCURVE",
"89 -10 OFFCURVE",
"249 -10 CURVE SMOOTH"
);
}
);
width = 551;
},
{
associatedMasterId = UUID0;
layerId = "9CB14A94-80B6-4217-B487-1D3291C35293";
name = "Regular Sep 6 16, 17:52";
paths = (
{
closed = 1;
nodes = (
"176 255 LINE",
"406 255 LINE",
"406 209 LINE SMOOTH",
"406 90 OFFCURVE",
"356 12 OFFCURVE",
"257 12 CURVE SMOOTH",
"190 12 OFFCURVE",
"147 43 OFFCURVE",
"147 88 CURVE SMOOTH",
"147 103 OFFCURVE",
"153 117 OFFCURVE",
"164 130 CURVE",
"156 155 OFFCURVE",
"133 168 OFFCURVE",
"109 168 CURVE SMOOTH",
"70 168 OFFCURVE",
"45 140 OFFCURVE",
"45 101 CURVE SMOOTH",
"45 44 OFFCURVE",
"97 -10 OFFCURVE",
"257 -10 CURVE SMOOTH",
"330 -10 OFFCURVE",
"392 15 OFFCURVE",
"442 64 CURVE",
"491 114 OFFCURVE",
"516 179 OFFCURVE",
"516 259 CURVE SMOOTH",
"516 342 OFFCURVE",
"490 407 OFFCURVE",
"439 455 CURVE SMOOTH",
"388 503 OFFCURVE",
"327 527 OFFCURVE",
"257 527 CURVE SMOOTH",
"202 527 OFFCURVE",
"158 510 OFFCURVE",
"129 496 CURVE",
"65 527 LINE",
"54 337 LINE",
"75 337 LINE",
"131 470 LINE",
"158 487 OFFCURVE",
"201 506 OFFCURVE",
"257 506 CURVE SMOOTH",
"353 506 OFFCURVE",
"406 433 OFFCURVE",
"406 309 CURVE SMOOTH",
"406 280 LINE",
"176 280 LINE"
);
}
);
visible = 1;
width = 557;
}
);
leftKerningGroup = "ereversed-cy";
leftMetricsKey = "ze-cy";
rightKerningGroup = o;
rightMetricsKey = o;
unicode = 044D;
},
{
glyphname = "tshe-cy";
layers = (
{
layerId = UUID0;
paths = (
{
closed = 1;
nodes = (
"250 0 LINE",
"250 20 LINE",
"190 30 LINE",
"190 355 LINE",
"228 412 OFFCURVE",
"288 471 OFFCURVE",
"354 471 CURVE SMOOTH",
"414 471 OFFCURVE",
"440 429 OFFCURVE",
"440 362 CURVE SMOOTH",
"440 30 LINE",
"380 20 LINE",
"380 0 LINE",
"610 0 LINE",
"610 20 LINE",
"540 30 LINE",
"540 364 LINE SMOOTH",
"540 462 OFFCURVE",
"478 507 OFFCURVE",
"385 507 CURVE SMOOTH",
"305 507 OFFCURVE",
"237 458 OFFCURVE",
"190 390 CURVE",
"190 800 LINE",
"20 800 LINE",
"20 780 LINE",
"90 770 LINE",
"90 30 LINE",
"20 20 LINE",
"20 0 LINE"
);
},
{
closed = 1;
nodes = (
"375 636 LINE",
"375 661 LINE",
"0 661 LINE",
"0 636 LINE"
);
}
);
width = 628;
}
);
leftKerningGroup = h;
rightKerningGroup = h;
rightMetricsKey = n;
unicode = 045B;
},
{
glyphname = "iu-cy";
layers = (
{
layerId = UUID0;
paths = (
{
closed = 1;
nodes = (
"698 -10 OFFCURVE",
"810 102 OFFCURVE",
"810 259 CURVE SMOOTH",
"810 417 OFFCURVE",
"697 527 OFFCURVE",
"551 527 CURVE SMOOTH",
"411 527 OFFCURVE",
"300 427 OFFCURVE",
"292 275 CURVE",
"197 275 LINE",
"197 488 LINE",
"257 498 LINE",
"257 518 LINE",
"27 518 LINE",
"27 498 LINE",
"97 488 LINE",
"97 30 LINE",
"27 20 LINE",
"27 0 LINE",
"257 0 LINE",
"257 20 LINE",
"197 30 LINE",
"197 250 LINE",
"292 250 LINE",
"294 175 OFFCURVE",
"319 113 OFFCURVE",
"366 64 CURVE",
"417 15 OFFCURVE",
"478 -10 OFFCURVE",
"551 -10 CURVE SMOOTH"
);
},
{
closed = 1;
nodes = (
"452 12 OFFCURVE",
"402 90 OFFCURVE",
"402 209 CURVE SMOOTH",
"402 309 LINE SMOOTH",
"402 429 OFFCURVE",
"451 505 OFFCURVE",
"551 505 CURVE SMOOTH",
"651 505 OFFCURVE",
"700 429 OFFCURVE",
"700 309 CURVE SMOOTH",
"700 209 LINE SMOOTH",
"700 90 OFFCURVE",
"650 12 OFFCURVE",
"551 12 CURVE SMOOTH"
);
}
);
width = 853;
}
);
leftKerningGroup = n;
leftMetricsKey = "en-cy";
rightKerningGroup = o;
rightMetricsKey = o;
unicode = 044E;
},
{
glyphname = "ia-cy";
layers = (
{
layerId = UUID0;
paths = (
{
closed = 1;
nodes = (
"145 -10 OFFCURVE",
"169 14 OFFCURVE",
"180 71 CURVE SMOOTH",
"195 156 LINE SMOOTH",
"205 215 OFFCURVE",
"236 238 OFFCURVE",
"292 238 CURVE SMOOTH",
"384 238 LINE",
"384 31 LINE",
"312 20 LINE",
"312 0 LINE",
"556 0 LINE",
"556 20 LINE",
"484 31 LINE",
"484 487 LINE",
"556 497 LINE",
"556 518 LINE",
"270 518 LINE SMOOTH",
"132 518 OFFCURVE",
"79 469 OFFCURVE",
"79 382 CURVE SMOOTH",
"79 298 OFFCURVE",
"138 265 OFFCURVE",
"199 255 CURVE",
"199 250 LINE",
"125 239 OFFCURVE",
"100 208 OFFCURVE",
"88 145 CURVE SMOOTH",
"77 87 LINE SMOOTH",
"68 43 OFFCURVE",
"60 32 OFFCURVE",
"40 32 CURVE SMOOTH",
"30 32 OFFCURVE",
"18 37 OFFCURVE",
"5 50 CURVE",
"-10 35 LINE",
"16 5 OFFCURVE",
"54 -10 OFFCURVE",
"86 -10 CURVE SMOOTH"
);
},
{
closed = 1;
nodes = (
"231 263 OFFCURVE",
"187 293 OFFCURVE",
"187 371 CURVE SMOOTH",
"187 384 LINE SMOOTH",
"187 461 OFFCURVE",
"224 493 OFFCURVE",
"300 493 CURVE SMOOTH",
"384 493 LINE",
"384 263 LINE",
"292 263 LINE SMOOTH"
);
}
);
width = 583;
},
{
associatedMasterId = UUID0;
layerId = "7C7729AA-A643-4CBD-B243-E9A7B3E41ADD";
name = old;
paths = (
{
closed = 1;
nodes = (
"317 20 LINE",
"317 0 LINE",
"561 0 LINE",
"561 20 LINE",
"489 31 LINE",
"489 487 LINE",
"561 497 LINE",
"561 518 LINE",
"270 518 LINE SMOOTH",
"132 518 OFFCURVE",
"79 470 OFFCURVE",
"79 384 CURVE SMOOTH",
"79 291 OFFCURVE",
"178 264 OFFCURVE",
"204 259 CURVE",
"204 254 LINE",
"127 240 OFFCURVE",
"105 207 OFFCURVE",
"95 153 CURVE SMOOTH",
"82 87 LINE SMOOTH",
"73 43 OFFCURVE",
"65 32 OFFCURVE",
"45 32 CURVE SMOOTH",
"35 32 OFFCURVE",
"23 37 OFFCURVE",
"10 50 CURVE",
"-5 35 LINE",
"21 5 OFFCURVE",
"59 -10 OFFCURVE",
"91 -10 CURVE SMOOTH",
"150 -10 OFFCURVE",
"174 14 OFFCURVE",
"185 71 CURVE SMOOTH",
"201 157 LINE SMOOTH",
"214 226 OFFCURVE",
"248 242 OFFCURVE",
"297 242 CURVE SMOOTH",
"389 242 LINE",
"389 31 LINE"
);
},
{
closed = 1;
nodes = (
"294 267 LINE SMOOTH",
"231 267 OFFCURVE",
"187 296 OFFCURVE",
"187 373 CURVE SMOOTH",
"187 386 LINE SMOOTH",
"187 462 OFFCURVE",
"224 493 OFFCURVE",
"300 493 CURVE SMOOTH",
"389 493 LINE",
"389 267 LINE"
);
}
);
visible = 1;
width = 587;
}
);
leftKerningGroup = "ia-cy";
rightKerningGroup = u;
unicode = 044F;
},
{
glyphname = "dje-cy";
layers = (
{
layerId = UUID0;
paths = (
{
closed = 1;
nodes = (
"520 -62 OFFCURVE",
"552 98 OFFCURVE",
"552 304 CURVE SMOOTH",
"552 473 OFFCURVE",
"485 507 OFFCURVE",
"385 507 CURVE SMOOTH",
"305 507 OFFCURVE",
"237 458 OFFCURVE",
"190 390 CURVE",
"190 800 LINE",
"20 800 LINE",
"20 780 LINE",
"90 770 LINE",
"90 30 LINE",
"20 20 LINE",
"20 0 LINE",
"250 0 LINE",
"250 20 LINE",
"190 30 LINE",
"190 355 LINE",
"228 412 OFFCURVE",
"288 471 OFFCURVE",
"354 471 CURVE SMOOTH",
"419 471 OFFCURVE",
"447 436 OFFCURVE",
"447 302 CURVE SMOOTH",
"447 93 OFFCURVE",
"424 -78 OFFCURVE",
"237 -177 CURVE",
"253 -193 LINE"
);
},
{
closed = 1;
nodes = (
"375 636 LINE",
"375 661 LINE",
"0 661 LINE",
"0 636 LINE"
);
}
);
width = 621;
},
{
associatedMasterId = UUID0;
layerId = "FDDB6558-1057-4530-B093-D34E4963ECB5";
name = old;
paths = (
{
closed = 1;
nodes = (
"457 -89 OFFCURVE",
"540 15 OFFCURVE",
"540 219 CURVE SMOOTH",
"540 364 LINE SMOOTH",
"540 462 OFFCURVE",
"478 507 OFFCURVE",
"385 507 CURVE SMOOTH",
"305 507 OFFCURVE",
"237 458 OFFCURVE",
"190 390 CURVE",
"190 800 LINE",
"20 800 LINE",
"20 780 LINE",
"90 770 LINE",
"90 30 LINE",
"20 20 LINE",
"20 0 LINE",
"250 0 LINE",
"250 20 LINE",
"190 30 LINE",
"190 355 LINE",
"228 412 OFFCURVE",
"288 471 OFFCURVE",
"354 471 CURVE SMOOTH",
"414 471 OFFCURVE",
"440 429 OFFCURVE",
"440 362 CURVE SMOOTH",
"440 219 LINE SMOOTH",
"440 44 OFFCURVE",
"411 -77 OFFCURVE",
"297 -177 CURVE",
"313 -193 LINE"
);
},
{
closed = 1;
nodes = (
"375 636 LINE",
"375 661 LINE",
"0 661 LINE",
"0 636 LINE"
);
}
);
visible = 1;
width = 600;
}
);
leftKerningGroup = h;
rightKerningGroup = h;
unicode = 0452;
},
{
glyphname = "yat-cy";
layers = (
{
layerId = UUID0;
paths = (
{
closed = 1;
nodes = (
"458 0 LINE SMOOTH",
"576 0 OFFCURVE",
"651 50 OFFCURVE",
"651 150 CURVE SMOOTH",
"651 250 OFFCURVE",
"576 300 OFFCURVE",
"458 300 CURVE SMOOTH",
"322 300 LINE",
"322 800 LINE",
"152 800 LINE",
"152 780 LINE",
"222 770 LINE",
"222 30 LINE",
"152 20 LINE",
"152 0 LINE"
);
},
{
closed = 1;
nodes = (
"322 275 LINE",
"428 275 LINE SMOOTH",
"501 275 OFFCURVE",
"543 231 OFFCURVE",
"543 151 CURVE SMOOTH",
"543 149 LINE SMOOTH",
"543 69 OFFCURVE",
"501 25 OFFCURVE",
"428 25 CURVE SMOOTH",
"322 25 LINE"
);
},
{
closed = 1;
nodes = (
"49 398 LINE",
"136 563 LINE",
"407 563 LINE",
"495 398 LINE",
"523 398 LINE",
"508 588 LINE",
"36 588 LINE",
"21 398 LINE"
);
}
);
width = 667;
}
);
leftKerningGroup = "te-cy";
leftMetricsKey = "te-cy";
rightKerningGroup = "softsign-cy";
rightMetricsKey = "softsign-cy";
unicode = 0463;
},
{
glyphname = "yusbig-cy";
layers = (
{
layerId = UUID0;
paths = (
{
closed = 1;
nodes = (
"135 -12 OFFCURVE",
"159 12 OFFCURVE",
"170 69 CURVE SMOOTH",
"190 177 LINE SMOOTH",
"201 243 OFFCURVE",
"231 263 OFFCURVE",
"277 263 CURVE SMOOTH",
"360 263 LINE",
"360 31 LINE",
"288 20 LINE",
"288 0 LINE",
"532 0 LINE",
"532 20 LINE",
"460 31 LINE",
"460 263 LINE",
"538 263 LINE SMOOTH",
"587 263 OFFCURVE",
"617 246 OFFCURVE",
"630 177 CURVE SMOOTH",
"650 69 LINE SMOOTH",
"661 12 OFFCURVE",
"685 -12 OFFCURVE",
"744 -12 CURVE SMOOTH",
"776 -12 OFFCURVE",
"814 3 OFFCURVE",
"840 33 CURVE",
"825 48 LINE",
"812 35 OFFCURVE",
"800 30 OFFCURVE",
"790 30 CURVE SMOOTH",
"770 30 OFFCURVE",
"761 41 OFFCURVE",
"753 85 CURVE SMOOTH",
"736 173 LINE SMOOTH",
"719 259 OFFCURVE",
"668 286 OFFCURVE",
"543 286 CURVE SMOOTH",
"277 286 LINE SMOOTH",
"152 286 OFFCURVE",
"101 259 OFFCURVE",
"84 173 CURVE SMOOTH",
"67 85 LINE SMOOTH",
"59 41 OFFCURVE",
"50 30 OFFCURVE",
"30 30 CURVE SMOOTH",
"20 30 OFFCURVE",
"8 35 OFFCURVE",
"-5 48 CURVE",
"-20 33 LINE",
"6 3 OFFCURVE",
"44 -12 OFFCURVE",
"76 -12 CURVE SMOOTH"
);
},
{
closed = 1;
nodes = (
"449 277 LINE",
"465 277 LINE",
"470 277 LINE",
"696 518 LINE",
"666 518 LINE",
"436 277 LINE",
"470 277 LINE",
"465 277 LINE",
"231 518 LINE",
"109 518 LINE",
"343 277 LINE"
);
},
{
closed = 1;
nodes = (
"669 495 LINE",
"669 518 LINE",
"147 518 LINE",
"147 495 LINE"
);
}
);
width = 820;
}
);
leftKerningGroup = x;
leftMetricsKey = "=zhe-cy-15";
rightKerningGroup = "ka-cy";
rightMetricsKey = "=zhe-cy-15";
unicode = 046B;
},
{
glyphname = "fita-cy";
layers = (
{
components = (
{
name = o;
}
);
layerId = UUID0;
paths = (
{
closed = 1;
nodes = (
"448 216 OFFCURVE",
"464 304 OFFCURVE",
"464 304 CURVE SMOOTH",
"451 307 LINE",
"441 285 OFFCURVE",
"420 272 OFFCURVE",
"398 272 CURVE",
"349 272 OFFCURVE",
"302 325 OFFCURVE",
"238 325 CURVE",
"153 325 OFFCURVE",
"135 236 OFFCURVE",
"136 236 CURVE SMOOTH",
"149 234 LINE",
"159 258 OFFCURVE",
"181 269 OFFCURVE",
"201 269 CURVE",
"251 269 OFFCURVE",
"297 216 OFFCURVE",
"361 216 CURVE"
);
}
);
width = 604;
}
);
leftKerningGroup = o;
leftMetricsKey = o;
rightKerningGroup = o;
rightMetricsKey = o;
unicode = 0473;
},
{
glyphname = "izhitsa-cy";
layers = (
{
layerId = UUID0;
paths = (
{
closed = 1;
nodes = (
"293 -20 LINE",
"461 431 LINE SMOOTH",
"472 462 OFFCURVE",
"485 470 OFFCURVE",
"503 470 CURVE SMOOTH",
"519 470 OFFCURVE",
"529 459 OFFCURVE",
"529 447 CURVE SMOOTH",
"529 434 OFFCURVE",
"524 422 OFFCURVE",
"512 412 CURVE",
"512 412 OFFCURVE",
"528 379 OFFCURVE",
"569 379 CURVE SMOOTH",
"600 379 OFFCURVE",
"630 401 OFFCURVE",
"630 443 CURVE SMOOTH",
"630 495 OFFCURVE",
"589 521 OFFCURVE",
"541 521 CURVE SMOOTH",
"491 521 OFFCURVE",
"460 503 OFFCURVE",
"435 435 CURVE SMOOTH",
"314 109 LINE",
"163 485 LINE",
"235 498 LINE",
"235 518 LINE",
"-14 518 LINE",
"-14 498 LINE",
"51 488 LINE",
"265 -20 LINE"
);
}
);
width = 609;
}
);
leftKerningGroup = v;
leftMetricsKey = v;
rightKerningGroup = v;
unicode = 0475;
},
{
glyphname = "ghemiddlehook-cy";
layers = (
{
components = (
{
name = "ge-cy";
}
);
layerId = UUID0;
paths = (
{
closed = 1;
nodes = (
"432 -189 OFFCURVE",
"534 -70 OFFCURVE",
"534 104 CURVE SMOOTH",
"534 216 OFFCURVE",
"478 280 OFFCURVE",
"313 280 CURVE SMOOTH",
"244 280 OFFCURVE",
"191 257 OFFCURVE",
"191 257 CURVE",
"191 231 LINE",
"191 231 OFFCURVE",
"239 257 OFFCURVE",
"313 257 CURVE SMOOTH",
"398 257 OFFCURVE",
"433 198 OFFCURVE",
"433 104 CURVE SMOOTH",
"433 -33 OFFCURVE",
"396 -171 OFFCURVE",
"245 -276 CURVE",
"257 -288 LINE"
);
}
);
width = 566;
},
{
associatedMasterId = UUID0;
components = (
{
name = "ge-cy";
}
);
layerId = "84559C83-E71B-486B-BB86-57816374C90D";
name = "Regular Sep 6 16, 22:10";
paths = (
{
closed = 1;
nodes = (
"238 277 OFFCURVE",
"156 218 OFFCURVE",
"156 218 CURVE",
"156 188 LINE",
"156 188 OFFCURVE",
"220 241 OFFCURVE",
"331 241 CURVE SMOOTH",
"391 241 OFFCURVE",
"417 199 OFFCURVE",
"417 132 CURVE SMOOTH",
"417 109 LINE SMOOTH",
"417 -60 OFFCURVE",
"388 -177 OFFCURVE",
"274 -274 CURVE",
"290 -290 LINE",
"434 -189 OFFCURVE",
"517 -88 OFFCURVE",
"517 109 CURVE SMOOTH",
"517 134 LINE SMOOTH",
"517 232 OFFCURVE",
"455 277 OFFCURVE",
"362 277 CURVE SMOOTH"
);
}
);
width = 1100;
}
);
leftKerningGroup = n;
rightKerningGroup = "midddehook-cy";
unicode = 0495;
},
{
glyphname = "zhedescender-cy";
layers = (
{
layerId = UUID0;
paths = (
{
closed = 1;
nodes = (
"150 -12 OFFCURVE",
"174 12 OFFCURVE",
"185 69 CURVE SMOOTH",
"205 177 LINE",
"216 243 OFFCURVE",
"246 262 OFFCURVE",
"292 263 CURVE",
"375 263 LINE",
"375 31 LINE",
"303 20 LINE",
"303 0 LINE",
"551 0 LINE",
"551 20 LINE",
"479 31 LINE",
"479 263 LINE",
"557 263 LINE SMOOTH",
"606 263 OFFCURVE",
"636 246 OFFCURVE",
"649 177 CURVE SMOOTH",
"668 72 LINE SMOOTH",
"677 20 OFFCURVE",
"704 0 OFFCURVE",
"763 0 CURVE SMOOTH",
"783 0 LINE",
"819 25 LINE",
"794 25 OFFCURVE",
"782 37 OFFCURVE",
"772 85 CURVE SMOOTH",
"755 173 LINE",
"743 241 OFFCURVE",
"709 276 OFFCURVE",
"618 284 CURVE",
"634 299 OFFCURVE",
"644 322 OFFCURVE",
"652 350 CURVE SMOOTH",
"671 422 LINE SMOOTH",
"676 440 OFFCURVE",
"686 450 OFFCURVE",
"703 450 CURVE SMOOTH",
"724 450 OFFCURVE",
"738 429 OFFCURVE",
"728 402 CURVE",
"784 383 OFFCURVE",
"818 419 OFFCURVE",
"818 460 CURVE SMOOTH",
"818 495 OFFCURVE",
"793 527 OFFCURVE",
"742 527 CURVE SMOOTH",
"680 527 OFFCURVE",
"660 487 OFFCURVE",
"646 429 CURVE SMOOTH",
"628 357 LINE SMOOTH",
"615 306 OFFCURVE",
"595 287 OFFCURVE",
"562 286 CURVE",
"479 286 LINE",
"479 487 LINE",
"551 497 LINE",
"551 518 LINE",
"303 518 LINE",
"303 497 LINE",
"375 487 LINE",
"375 286 LINE",
"291 286 LINE SMOOTH",
"258 286 OFFCURVE",
"238 306 OFFCURVE",
"226 357 CURVE SMOOTH",
"208 429 LINE SMOOTH",
"194 487 OFFCURVE",
"174 527 OFFCURVE",
"112 527 CURVE SMOOTH",
"61 527 OFFCURVE",
"36 495 OFFCURVE",
"36 460 CURVE SMOOTH",
"36 419 OFFCURVE",
"70 383 OFFCURVE",
"126 402 CURVE",
"116 429 OFFCURVE",
"130 450 OFFCURVE",
"151 450 CURVE SMOOTH",
"168 450 OFFCURVE",
"178 440 OFFCURVE",
"183 422 CURVE SMOOTH",
"202 350 LINE SMOOTH",
"209 322 OFFCURVE",
"219 299 OFFCURVE",
"235 284 CURVE",
"145 276 OFFCURVE",
"111 241 OFFCURVE",
"99 173 CURVE",
"82 85 LINE SMOOTH",
"74 41 OFFCURVE",
"65 30 OFFCURVE",
"45 30 CURVE SMOOTH",
"35 30 OFFCURVE",
"23 35 OFFCURVE",
"10 48 CURVE",
"-5 33 LINE",
"21 3 OFFCURVE",
"59 -12 OFFCURVE",
"91 -12 CURVE SMOOTH"
);
},
{
closed = 1;
nodes = (
"899 -165 LINE",
"884 25 LINE",
"819 25 LINE",
"783 0 LINE",
"871 -165 LINE"
);
}
);
width = 868;
}
);
leftKerningGroup = "zhe-cy";
rightKerningGroup = "kadescender-cy";
unicode = 0497;
},
{
glyphname = "zedescender-cy";
layers = (
{
components = (
{
name = "ze-cy";
}
);
layerId = UUID0;
paths = (
{
closed = 1;
nodes = (
"258 -164 LINE",
"293 2 LINE",
"200 2 LINE",
"235 -164 LINE"
);
}
);
width = 532;
}
);
leftKerningGroup = "ze-cy";
leftMetricsKey = "ze-cy";
rightKerningGroup = "ve-cy";
rightMetricsKey = "ze-cy";
unicode = 0499;
},
{
glyphname = "kadescender-cy";
layers = (
{
layerId = UUID0;
paths = (
{
closed = 1;
nodes = (
"275 0 LINE",
"275 20 LINE",
"203 31 LINE",
"203 263 LINE",
"291 263 LINE",
"292 263 LINE",
"296 263 LINE SMOOTH",
"342 262 OFFCURVE",
"371 243 OFFCURVE",
"383 177 CURVE SMOOTH",
"403 71 LINE SMOOTH",
"413 19 OFFCURVE",
"439 0 OFFCURVE",
"498 0 CURVE SMOOTH",
"518 0 LINE",
"554 25 LINE",
"529 25 OFFCURVE",
"516 39 OFFCURVE",
"506 87 CURVE SMOOTH",
"489 173 LINE SMOOTH",
"476 241 OFFCURVE",
"442 276 OFFCURVE",
"352 284 CURVE",
"368 299 OFFCURVE",
"378 322 OFFCURVE",
"386 350 CURVE SMOOTH",
"405 422 LINE SMOOTH",
"410 440 OFFCURVE",
"420 450 OFFCURVE",
"437 450 CURVE SMOOTH",
"458 450 OFFCURVE",
"472 429 OFFCURVE",
"462 402 CURVE",
"518 383 OFFCURVE",
"552 419 OFFCURVE",
"552 460 CURVE SMOOTH",
"552 495 OFFCURVE",
"527 527 OFFCURVE",
"476 527 CURVE SMOOTH",
"414 527 OFFCURVE",
"394 487 OFFCURVE",
"380 429 CURVE SMOOTH",
"362 357 LINE SMOOTH",
"349 306 OFFCURVE",
"330 288 OFFCURVE",
"297 286 CURVE",
"203 286 LINE",
"203 487 LINE",
"275 497 LINE",
"275 518 LINE",
"27 518 LINE",
"27 497 LINE",
"99 487 LINE",
"99 31 LINE",
"27 20 LINE",
"27 0 LINE"
);
},
{
closed = 1;
nodes = (
"634 -165 LINE",
"619 25 LINE",
"554 25 LINE",
"518 0 LINE",
"606 -165 LINE"
);
}
);
width = 603;
},
{
associatedMasterId = UUID0;
layerId = "EBD2D1DC-E0FF-4154-B820-D884A4BAECC3";
name = "Regular Sep 6 16, 18:08";
paths = (
{
closed = 1;
nodes = (
"291 263 LINE",
"295 263 LINE SMOOTH",
"341 262 OFFCURVE",
"369 243 OFFCURVE",
"382 177 CURVE SMOOTH",
"402 71 LINE SMOOTH",
"413 14 OFFCURVE",
"437 -10 OFFCURVE",
"496 -10 CURVE SMOOTH",
"528 -10 OFFCURVE",
"566 5 OFFCURVE",
"592 35 CURVE",
"577 50 LINE",
"564 37 OFFCURVE",
"552 32 OFFCURVE",
"542 32 CURVE SMOOTH",
"522 32 OFFCURVE",
"514 43 OFFCURVE",
"505 87 CURVE SMOOTH",
"488 173 LINE SMOOTH",
"475 241 OFFCURVE",
"441 276 OFFCURVE",
"351 284 CURVE",
"367 299 OFFCURVE",
"377 322 OFFCURVE",
"385 350 CURVE SMOOTH",
"404 422 LINE SMOOTH",
"409 440 OFFCURVE",
"419 450 OFFCURVE",
"436 450 CURVE SMOOTH",
"457 450 OFFCURVE",
"471 429 OFFCURVE",
"461 402 CURVE",
"517 383 OFFCURVE",
"551 419 OFFCURVE",
"551 460 CURVE SMOOTH",
"551 495 OFFCURVE",
"526 527 OFFCURVE",
"475 527 CURVE SMOOTH",
"413 527 OFFCURVE",
"393 487 OFFCURVE",
"379 429 CURVE SMOOTH",
"361 357 LINE SMOOTH",
"348 306 OFFCURVE",
"329 288 OFFCURVE",
"296 286 CURVE",
"202 286 LINE",
"202 487 LINE",
"274 497 LINE",
"274 518 LINE",
"26 518 LINE",
"26 497 LINE",
"98 487 LINE",
"98 31 LINE",
"26 20 LINE",
"26 0 LINE",
"274 0 LINE",
"274 20 LINE",
"202 31 LINE",
"202 263 LINE",
"290 263 LINE"
);
}
);
visible = 1;
width = 587;
}
);
leftKerningGroup = n;
rightKerningGroup = "ka-cy";
unicode = 049B;
},
{
glyphname = "kabashkir-cy";
layers = (
{
anchors = (
{
name = top;
position = "{422, 518}";
}
);
layerId = UUID0;
paths = (
{
closed = 1;
nodes = (
"643 -10 OFFCURVE",
"681 5 OFFCURVE",
"707 35 CURVE",
"692 50 LINE",
"679 37 OFFCURVE",
"667 32 OFFCURVE",
"657 32 CURVE SMOOTH",
"637 32 OFFCURVE",
"629 43 OFFCURVE",
"620 87 CURVE SMOOTH",
"603 173 LINE SMOOTH",
"590 241 OFFCURVE",
"556 276 OFFCURVE",
"466 284 CURVE",
"482 299 OFFCURVE",
"492 322 OFFCURVE",
"500 350 CURVE SMOOTH",
"519 422 LINE SMOOTH",
"524 440 OFFCURVE",
"534 450 OFFCURVE",
"551 450 CURVE SMOOTH",
"572 450 OFFCURVE",
"586 429 OFFCURVE",
"576 402 CURVE",
"586 398 OFFCURVE",
"596 397 OFFCURVE",
"605 397 CURVE SMOOTH",
"643 397 OFFCURVE",
"666 427 OFFCURVE",
"666 460 CURVE SMOOTH",
"666 495 OFFCURVE",
"641 527 OFFCURVE",
"590 527 CURVE SMOOTH",
"528 527 OFFCURVE",
"508 487 OFFCURVE",
"494 429 CURVE SMOOTH",
"476 357 LINE SMOOTH",
"463 306 OFFCURVE",
"442 286 OFFCURVE",
"409 286 CURVE SMOOTH",
"317 286 LINE",
"317 488 LINE",
"387 498 LINE",
"387 518 LINE",
"36 518 LINE",
"21 328 LINE",
"49 328 LINE",
"136 493 LINE",
"217 493 LINE",
"217 31 LINE",
"145 20 LINE",
"145 0 LINE",
"389 0 LINE",
"389 20 LINE",
"317 31 LINE",
"317 263 LINE",
"410 263 LINE SMOOTH",
"456 262 OFFCURVE",
"484 243 OFFCURVE",
"497 177 CURVE SMOOTH",
"517 71 LINE SMOOTH",
"528 14 OFFCURVE",
"552 -10 OFFCURVE",
"611 -10 CURVE SMOOTH"
);
}
);
width = 702;
}
);
leftKerningGroup = "te-cy";
leftMetricsKey = "hardsign-cy";
rightKerningGroup = "ka-cy";
rightMetricsKey = "ka-cy";
unicode = 04A1;
},
{
glyphname = "endescender-cy";
layers = (
{
layerId = UUID0;
paths = (
{
closed = 1;
nodes = (
"630 -165 LINE",
"615 25 LINE",
"544 25 LINE",
"544 488 LINE",
"614 498 LINE",
"614 518 LINE",
"384 518 LINE",
"384 498 LINE",
"444 488 LINE",
"444 275 LINE",
"197 275 LINE",
"197 488 LINE",
"257 498 LINE",
"257 518 LINE",
"27 518 LINE",
"27 498 LINE",
"97 488 LINE",
"97 30 LINE",
"27 20 LINE",
"27 0 LINE",
"257 0 LINE",
"257 20 LINE",
"197 30 LINE",
"197 250 LINE",
"444 250 LINE",
"444 0 LINE",
"514 0 LINE",
"602 -165 LINE"
);
},
{
closed = 1;
nodes = (
"444 0 LINE",
"505 40 LINE",
"384 20 LINE",
"384 0 LINE"
);
}
);
width = 637;
}
);
leftKerningGroup = n;
leftMetricsKey = n;
rightKerningGroup = "tse-cy";
rightMetricsKey = "tse-cy";
unicode = 04A3;
},
{
glyphname = "pedescender-cy";
layers = (
{
layerId = UUID0;
paths = (
{
closed = 1;
nodes = (
"623 -165 LINE",
"608 25 LINE",
"537 25 LINE",
"537 488 LINE",
"607 498 LINE",
"607 518 LINE",
"27 518 LINE",
"27 498 LINE",
"97 488 LINE",
"97 30 LINE",
"27 20 LINE",
"27 0 LINE",
"257 0 LINE",
"257 20 LINE",
"197 30 LINE",
"197 493 LINE",
"437 493 LINE",
"437 30 LINE",
"377 20 LINE",
"377 0 LINE",
"507 0 LINE",
"595 -165 LINE"
);
}
);
width = 630;
}
);
leftKerningGroup = n;
rightKerningGroup = "tse-cy";
rightMetricsKey = "tse-cy";
unicode = 0525;
},
{
glyphname = "esdescender-cy";
layers = (
{
components = (
{
name = "es-cy";
}
);
layerId = UUID0;
paths = (
{
closed = 1;
nodes = (
"310 -164 LINE",
"345 2 LINE",
"252 2 LINE",
"287 -164 LINE"
);
}
);
width = 547;
}
);
leftKerningGroup = o;
leftMetricsKey = c;
rightKerningGroup = c;
rightMetricsKey = c;
unicode = 04AB;
},
{
glyphname = "ustrait-cy";
layers = (
{
layerId = UUID0;
paths = (
{
closed = 1;
nodes = (
"323 56 LINE",
"163 485 LINE",
"235 498 LINE",
"235 518 LINE",
"-14 518 LINE",
"-14 498 LINE",
"51 488 LINE",
"232 20 LINE"
);
},
{
closed = 1;
nodes = (
"397 -283 LINE",
"397 -263 LINE",
"327 -253 LINE",
"327 65 LINE",
"227 65 LINE",
"227 -253 LINE",
"157 -263 LINE",
"157 -283 LINE"
);
},
{
closed = 1;
nodes = (
"325 26 LINE",
"477 473 LINE",
"540 497 LINE",
"540 517 LINE",
"361 517 LINE",
"361 497 LINE",
"449 472 LINE",
"298 26 LINE"
);
}
);
width = 530;
}
);
leftKerningGroup = v;
leftMetricsKey = v;
rightKerningGroup = v;
rightMetricsKey = v;
unicode = 04AF;
},
{
glyphname = "ustraitstroke-cy";
layers = (
{
components = (
{
name = strokeshortcomb;
transform = "{1.2653, 0, 0, 1, 75, -227}";
}
);
guideLines = (
{
position = "{297, 71}";
}
);
layerId = UUID0;
paths = (
{
closed = 1;
nodes = (
"323 56 LINE",
"163 485 LINE",
"235 498 LINE",
"235 518 LINE",
"-14 518 LINE",
"-14 498 LINE",
"51 488 LINE",
"232 20 LINE"
);
},
{
closed = 1;
nodes = (
"397 -283 LINE",
"397 -263 LINE",
"327 -253 LINE",
"327 65 LINE",
"227 65 LINE",
"227 -253 LINE",
"157 -263 LINE",
"157 -283 LINE"
);
},
{
closed = 1;
nodes = (
"325 26 LINE",
"477 473 LINE",
"540 497 LINE",
"540 517 LINE",
"361 517 LINE",
"361 497 LINE",
"449 472 LINE",
"298 26 LINE"
);
}
);
width = 530;
}
);
leftKerningGroup = v;
leftMetricsKey = v;
rightKerningGroup = v;
rightMetricsKey = v;
unicode = 04B1;
},
{
glyphname = "chedescender-cy";
layers = (
{
layerId = UUID0;
paths = (
{
closed = 1;
nodes = (
"598 -165 LINE",
"583 25 LINE",
"512 25 LINE",
"512 488 LINE",
"582 498 LINE",
"582 518 LINE",
"352 518 LINE",
"352 498 LINE",
"412 488 LINE",
"412 251 LINE",
"390 238 OFFCURVE",
"344 218 OFFCURVE",
"275 218 CURVE SMOOTH",
"201 218 OFFCURVE",
"176 261 OFFCURVE",
"176 332 CURVE SMOOTH",
"176 488 LINE",
"236 498 LINE",
"236 518 LINE",
"6 518 LINE",
"6 498 LINE",
"76 488 LINE",
"76 332 LINE SMOOTH",
"76 225 OFFCURVE",
"146 188 OFFCURVE",
"249 188 CURVE SMOOTH",
"329 188 OFFCURVE",
"385 210 OFFCURVE",
"412 224 CURVE",
"412 0 LINE",
"482 0 LINE",
"570 -165 LINE"
);
},
{
closed = 1;
nodes = (
"445 0 LINE",
"445 33 LINE",
"312 20 LINE",
"312 0 LINE"
);
}
);
width = 605;
}
);
leftKerningGroup = "che-cy";
leftMetricsKey = "che-cy";
rightKerningGroup = "tse-cy";
rightMetricsKey = "tse-cy";
unicode = 04B7;
},
{
glyphname = "chekhakassian-cy";
layers = (
{
layerId = UUID0;
paths = (
{
closed = 1;
nodes = (
"354 -165 LINE",
"442 0 LINE",
"512 0 LINE",
"512 488 LINE",
"582 498 LINE",
"582 518 LINE",
"352 518 LINE",
"352 498 LINE",
"412 488 LINE",
"412 251 LINE",
"390 238 OFFCURVE",
"344 218 OFFCURVE",
"275 218 CURVE SMOOTH",
"201 218 OFFCURVE",
"176 261 OFFCURVE",
"176 332 CURVE SMOOTH",
"176 488 LINE",
"236 498 LINE",
"236 518 LINE",
"6 518 LINE",
"6 498 LINE",
"76 488 LINE",
"76 332 LINE SMOOTH",
"76 225 OFFCURVE",
"146 188 OFFCURVE",
"249 188 CURVE SMOOTH",
"329 188 OFFCURVE",
"385 210 OFFCURVE",
"412 224 CURVE",
"412 25 LINE",
"341 25 LINE",
"326 -165 LINE"
);
},
{
closed = 1;
nodes = (
"572 0 LINE",
"572 20 LINE",
"451 40 LINE",
"512 0 LINE"
);
}
);
width = 609;
}
);
leftKerningGroup = "che-cy";
leftMetricsKey = "che-cy";
rightKerningGroup = u;
rightMetricsKey = "che-cy";
unicode = 04CC;
},
